<?xml version="1.0" encoding="UTF-8"?>
<svg version="1.1" xmlns="http://www.w3.org/2000/svg" width="200" height="200">
<path d="M0 0 C66 0 132 0 200 0 C200 66 200 132 200 200 C134 200 68 200 0 200 C0 134 0 68 0 0 Z " fill="#FDFEFE" transform="translate(0,0)"/>
<path d="M0 0 C6.90937474 5.77375086 11.85872223 12.8718258 13.2578125 21.88671875 C14.16044134 33.73927116 12.75420283 43.66711983 5.5078125 53.32421875 C-0.50140665 60.25536986 -7.02678345 63.40524954 -15.7421875 65.88671875 C-13.67586567 66.94115758 -11.61216094 67.94263691 -9.48046875 68.859375 C1.10650302 73.61584058 8.06964337 81.06104943 12.2578125 91.88671875 C15.08384956 100.52892239 13.99994402 111.22616034 10.51953125 119.45703125 C5.3802806 129.35366872 -1.97161577 135.93376739 -12.35546875 139.97265625 C-21.69403933 142.4931009 -30.90887611 141.60600775 -39.7421875 137.88671875 C-39.7421875 132.60671875 -39.7421875 127.32671875 -39.7421875 121.88671875 C-38.5046875 122.69109375 -37.2671875 123.49546875 -35.9921875 124.32421875 C-30.14403238 128.12551958 -24.61685724 128.57615554 -17.7421875 127.88671875 C-10.54491828 126.13489076 -5.79524889 123.09385473 -1.7421875 116.88671875 C1.29760885 111.77433398 1.0199875 105.31650627 -0.2421875 99.63671875 C-1.79188808 94.98761701 -3.96850059 92.10815879 -7.7421875 88.88671875 C-8.3815625 88.32984375 -9.0209375 87.77296875 -9.6796875 87.19921875 C-15.27687139 83.63737445 -21.26843215 83.05751861 -27.7421875 83.88671875 C-32.20533374 85.43812061 -36.1151738 87.86420733 -39.7421875 90.88671875 C-39.7421875 88.57671875 -39.7421875 86.26671875 -39.7421875 83.88671875 C-42.0521875 83.88671875 -44.3621875 83.88671875 -46.7421875 83.88671875 C-46.7421875 100.05671875 -46.7421875 116.22671875 -46.7421875 132.88671875 C-51.62953735 128.81392721 -53.65455902 127.002552 -56.5546875 121.82421875 C-57.13863281 120.80199219 -57.72257812 119.77976562 -58.32421875 118.7265625 C-59.49598903 116.37979392 -60.26966097 114.44572607 -60.7421875 111.88671875 C-61.18949219 112.83933594 -61.63679688 113.79195313 -62.09765625 114.7734375 C-62.7077853 116.0406286 -63.31849335 117.30754103 -63.9296875 118.57421875 C-64.22166016 119.20005859 -64.51363281 119.82589844 -64.81445312 120.47070312 C-67.44539419 125.8740337 -70.68991543 129.51853737 -75.7421875 132.88671875 C-75.75677002 131.92894531 -75.77135254 130.97117188 -75.78637695 129.984375 C-75.84477113 126.39823864 -75.92199734 122.81270349 -76.00463867 119.22705078 C-76.03769612 117.68125232 -76.06578653 116.13533871 -76.08862305 114.58935547 C-76.05860538 100.99264728 -76.05860538 100.99264728 -81.9921875 89.07421875 C-88.64473122 83.78242261 -94.43671901 83.1629565 -102.7421875 83.88671875 C-105.49873787 84.39382 -108.05286955 85.07484918 -110.7421875 85.88671875 C-109.7521875 87.53671875 -108.7621875 89.18671875 -107.7421875 90.88671875 C-107.21367188 90.72945313 -106.68515625 90.5721875 -106.140625 90.41015625 C-100.68704213 89.21996064 -93.79450264 88.47622192 -88.62890625 90.86328125 C-85.92358173 93.05170753 -83.75264836 95.5521979 -82.7421875 98.88671875 C-82.6171875 102.13671875 -82.6171875 102.13671875 -82.7421875 104.88671875 C-83.26425781 104.52578125 -83.78632812 104.16484375 -84.32421875 103.79296875 C-90.48959784 99.9058646 -95.50741752 98.76463478 -102.7421875 99.88671875 C-107.55765252 101.20300036 -110.78371612 103.42470601 -113.7421875 107.44921875 C-116.48980307 112.45081047 -116.61639346 117.3257975 -115.7421875 122.88671875 C-113.79302021 129.09709752 -110.51356753 132.73609708 -104.8515625 135.96484375 C-100.55769198 137.8414242 -95.85321512 137.6610057 -91.484375 136.05859375 C-88.40041129 134.5336818 -85.60669751 132.79639209 -82.7421875 130.88671875 C-82.7421875 133.19671875 -82.7421875 135.50671875 -82.7421875 137.88671875 C-91.83383497 141.64877977 -101.65578307 142.76068784 -111.0546875 139.26171875 C-112.6386354 138.51388761 -114.20246531 137.72182231 -115.7421875 136.88671875 C-116.91394531 136.26796875 -116.91394531 136.26796875 -118.109375 135.63671875 C-126.41318225 130.71594408 -131.56750038 122.88166559 -134.7421875 113.88671875 C-137.05376412 103.98926391 -136.32516745 94.13610239 -131.23046875 85.25 C-124.70624358 75.44167048 -117.05463091 69.71784399 -105.69921875 66.265625 C-94.9388077 64.18227196 -85.11719188 67.40182585 -76.06640625 73.15625 C-68.09308007 79.09269285 -64.30488792 86.87884302 -60.7421875 95.88671875 C-60.37867187 94.90832031 -60.37867187 94.90832031 -60.0078125 93.91015625 C-55.65898027 82.56973989 -49.67961191 74.67932195 -38.953125 68.83203125 C-36.56342174 67.81028533 -34.3008532 67.30867415 -31.7421875 66.88671875 C-33.82159497 65.82793788 -35.90178793 64.81668999 -38.0390625 63.87890625 C-49.62381198 58.603049 -56.04810976 50.2163026 -60.5546875 38.51171875 C-63.20447852 29.67397644 -62.19851669 22.1211074 -58.34375 13.80859375 C-52.88544852 3.85052179 -44.93209708 -4.19636464 -33.8046875 -7.55078125 C-21.14603907 -9.88059385 -10.27297331 -7.68057723 0 0 Z " fill="#06BEDC" transform="translate(157.7421875,30.11328125)"/>
<path d="M0 0 C7.59861749 5.32776629 14.40537817 12.53113369 16.7890625 21.6796875 C17.16586631 25.48499194 17.35579967 29.27403521 17.52734375 33.09375 C18.27178003 43.2936381 23.33140771 53.12889945 30.76953125 60.11328125 C36.39437633 64.47607212 42.91717508 67.03641007 49.7890625 68.6796875 C47.12496088 70.45575524 45.58344514 71.10637123 42.6015625 71.9296875 C33.2203935 74.97552159 26.03077581 82.07252026 21.5390625 90.7421875 C20.02562237 93.97716578 18.81624454 97.25574736 17.7890625 100.6796875 C16.40764777 97.99527896 15.22825045 95.2910639 14.1015625 92.4921875 C9.46655857 82.1695414 2.80123882 76.04559353 -7.58203125 71.68359375 C-12.44083323 70.01612312 -16.83553655 69.57269534 -21.9609375 69.4296875 C-32.09107574 68.85586703 -40.8715387 64.68377659 -47.8359375 57.2421875 C-54.82222986 48.43468217 -57.80255907 39.06730655 -57.58984375 27.8359375 C-56.57538403 19.38559263 -52.32860415 10.64312726 -46.2109375 4.6796875 C-42.70607024 2.01340811 -39.07696841 -0.2176367 -35.2109375 -2.3203125 C-34.55222656 -2.68382812 -33.89351562 -3.04734375 -33.21484375 -3.421875 C-22.59931674 -8.30730034 -9.67563907 -5.77803181 0 0 Z " fill="#F9FAF6" transform="translate(79.2109375,27.3203125)"/>
<path d="M0 0 C6.90937474 5.77375086 11.85872223 12.8718258 13.2578125 21.88671875 C14.16044134 33.73927116 12.75420283 43.66711983 5.5078125 53.32421875 C1.6150485 57.80920287 -2.67393877 62.30774597 -8.80078125 63.1796875 C-10.7421875 63.19921875 -10.7421875 63.19921875 -13.7421875 62.88671875 C-13.2471875 62.43296875 -12.7521875 61.97921875 -12.2421875 61.51171875 C-10.51609413 60.01036356 -10.51609413 60.01036356 -10.7421875 57.88671875 C-11.8146875 58.52609375 -12.8871875 59.16546875 -13.9921875 59.82421875 C-20.11367553 63.47356738 -26.99116875 63.88961716 -33.92578125 62.42578125 C-38.54930236 60.89362026 -41.73013859 58.48042921 -45.19921875 55.09375 C-46.80950328 53.57864527 -46.80950328 53.57864527 -49.7421875 53.88671875 C-49.9896875 53.24734375 -50.2371875 52.60796875 -50.4921875 51.94921875 C-50.9046875 51.26859375 -51.3171875 50.58796875 -51.7421875 49.88671875 C-52.70511719 49.70496094 -52.70511719 49.70496094 -53.6875 49.51953125 C-55.7421875 48.88671875 -55.7421875 48.88671875 -56.9375 47.03125 C-57.39769531 45.87689453 -57.39769531 45.87689453 -57.8671875 44.69921875 C-58.19460937 43.87808594 -58.52203125 43.05695313 -58.859375 42.2109375 C-59.15070313 41.44394531 -59.44203125 40.67695312 -59.7421875 39.88671875 C-60.1546875 38.93796875 -60.5671875 37.98921875 -60.9921875 37.01171875 C-63.30615279 27.37019672 -61.45929706 19.4925674 -56.7421875 10.88671875 C-51.31142895 2.28596991 -43.71090247 -4.56450023 -33.8046875 -7.55078125 C-21.14603907 -9.88059385 -10.27297331 -7.68057723 0 0 Z " fill="#04BFDD" transform="translate(157.7421875,30.11328125)"/>
<path d="M0 0 C7.46732691 5.23571197 14.74582823 12.56371923 16.7890625 21.6796875 C18.24402967 35.3379132 16.72903354 45.97668243 8.3515625 57.0859375 C6.63103194 58.84087867 4.99458865 59.63579884 2.7890625 60.6796875 C2.77447998 59.72191406 2.75989746 58.76414062 2.74487305 57.77734375 C2.68647887 54.19120739 2.60925266 50.60567224 2.52661133 47.02001953 C2.49355388 45.47422107 2.46546347 43.92830746 2.44262695 42.38232422 C2.62322114 29.22951584 2.62322114 29.22951584 -2.859375 17.65625 C-9.6099564 12.37185823 -14.61723419 11.00363217 -23.2109375 11.6796875 C-25.95769952 12.19277026 -28.52603672 12.88416134 -31.2109375 13.6796875 C-30.5509375 15.3296875 -29.8909375 16.9796875 -29.2109375 18.6796875 C-28.49679688 18.52242187 -27.78265625 18.36515625 -27.046875 18.203125 C-20.88400775 17.06562609 -14.54200846 16.24351531 -9.1484375 19.9296875 C-6.79265275 21.94168548 -5.04371679 23.62616342 -4.2109375 26.6796875 C-4.0859375 29.9296875 -4.0859375 29.9296875 -4.2109375 32.6796875 C-4.7265625 32.4115625 -5.2421875 32.1434375 -5.7734375 31.8671875 C-6.5778125 31.4753125 -7.3821875 31.0834375 -8.2109375 30.6796875 C-9.2834375 30.1434375 -10.3559375 29.6071875 -11.4609375 29.0546875 C-17.36655497 26.88929443 -21.80805591 26.78720815 -27.4609375 29.3671875 C-32.22821163 32.01255726 -35.10142714 35.68954324 -37.2109375 40.6796875 C-38.14589631 46.89176956 -37.98842464 52.30914176 -34.6484375 57.7421875 C-31.65316749 61.60524602 -29.03403657 63.45347587 -24.2109375 64.6796875 C-18.04365806 65.43553525 -13.70630043 64.48124507 -8.2109375 61.6796875 C-7.004375 61.091875 -7.004375 61.091875 -5.7734375 60.4921875 C-5 60.09 -5 60.09 -4.2109375 59.6796875 C-4.2109375 61.9896875 -4.2109375 64.2996875 -4.2109375 66.6796875 C-14.96628146 70.17977967 -26.46689781 70.57436133 -36.8359375 65.7421875 C-47.02972985 59.8901956 -52.80415203 51.90004392 -56.4609375 40.9296875 C-58.91122221 29.42009328 -56.60413121 20.51510922 -50.9296875 10.39453125 C-46.97363577 4.4259532 -41.41421782 1.05355795 -35.2109375 -2.3203125 C-34.55222656 -2.68382812 -33.89351562 -3.04734375 -33.21484375 -3.421875 C-22.59931674 -8.30730034 -9.67563907 -5.77803181 0 0 Z " fill="#F28323" transform="translate(79.2109375,27.3203125)"/>
<path d="M0 0 C5.42521431 3.1466243 9.68169984 7.44284091 11.68334961 13.50292969 C12.29939892 16.72450317 12.36097831 19.93395586 12.44140625 23.203125 C12.46218735 23.90773865 12.48296844 24.61235229 12.50437927 25.33831787 C12.56953837 27.57961681 12.62860248 29.82102864 12.6875 32.0625 C12.73071726 33.58594897 12.77433257 35.10938671 12.81835938 36.6328125 C12.92518491 40.35925591 13.02654639 44.08582494 13.125 47.8125 C19.95119923 41.10475069 24.37019199 34.28846325 26.125 24.8125 C27.9116789 27.49251835 29.0572137 29.84378744 30.25 32.8125 C30.60320312 33.67875 30.95640625 34.545 31.3203125 35.4375 C32.125 37.8125 32.125 37.8125 32.125 40.8125 C31.135 40.1525 30.145 39.4925 29.125 38.8125 C29.125 38.1525 29.125 37.4925 29.125 36.8125 C27.805 36.4825 26.485 36.1525 25.125 35.8125 C25.125 36.8025 25.125 37.7925 25.125 38.8125 C24.465 38.8125 23.805 38.8125 23.125 38.8125 C23.125 39.4725 23.125 40.1325 23.125 40.8125 C22.465 40.8125 21.805 40.8125 21.125 40.8125 C21.62 42.7925 21.62 42.7925 22.125 44.8125 C21.526875 45.06 20.92875 45.3075 20.3125 45.5625 C17.99922118 46.66808728 17.99922118 46.66808728 16.75 48.875 C15.125 50.8125 15.125 50.8125 12.0625 51.3125 C10.6084375 51.56 10.6084375 51.56 9.125 51.8125 C7.7487206 53.73014174 7.7487206 53.73014174 7.125 55.8125 C6.125 56.8125 6.125 56.8125 3.83984375 56.91015625 C2.46505859 56.89275391 2.46505859 56.89275391 1.0625 56.875 C0.14339844 56.86597656 -0.77570313 56.85695312 -1.72265625 56.84765625 C-2.43292969 56.83605469 -3.14320312 56.82445312 -3.875 56.8125 C-0.86612219 55.23091038 1.76172037 54.37304661 5.125 53.8125 C4.63 50.8425 4.63 50.8425 4.125 47.8125 C3.403125 48.43125 2.68125 49.05 1.9375 49.6875 C-2.75904934 53.23600394 -6.69595111 54.33146947 -12.53125 54.1953125 C-17.84506764 53.32738895 -21.63221909 50.12069043 -25.25 46.3125 C-29.09602843 40.39553319 -29.93786395 34.74958526 -28.875 27.8125 C-26.82296439 22.84084019 -23.84592051 18.99702735 -19.1875 16.25 C-14.20764598 14.19331077 -9.15858615 13.88729895 -3.875 14.8125 C-0.91970871 16.15750659 1.5960998 17.78358294 4.125 19.8125 C3.71134898 14.53844947 2.83526864 11.63520102 -0.875 7.8125 C-3.69829919 6.40085041 -6.1040079 6.68043035 -9.25 6.6875 C-10.39210938 6.68492188 -11.53421875 6.68234375 -12.7109375 6.6796875 C-15.30736152 6.7886732 -17.41124883 7.04788757 -19.875 7.8125 C-22.875 4.0625 -22.875 4.0625 -22.875 1.8125 C-15.54455024 -1.50694895 -7.76295489 -2.95973226 0 0 Z " fill="#E7FCFD" transform="translate(69.875,114.1875)"/>
<path d="M0 0 C3.82143592 2.15488679 6.12379923 4.84991144 8.6875 8.375 C7.3675 8.705 6.0475 9.035 4.6875 9.375 C5.1825 10.426875 5.1825 10.426875 5.6875 11.5 C6.79454461 14.68275326 6.98498557 17.02828734 6.6875 20.375 C6.0275 21.035 5.3675 21.695 4.6875 22.375 C3.6975 22.375 2.7075 22.375 1.6875 22.375 C2.28611742 24.72671131 2.95674352 27.0609378 3.6875 29.375 C4.3475 29.705 5.0075 30.035 5.6875 30.375 C6.45741319 36.38032287 4.14404306 40.6414563 0.6875 45.375 C-3.57752055 48.42144325 -9.2534773 47.55182021 -14.3125 47.375 C-14.3125 48.365 -14.3125 49.355 -14.3125 50.375 C-8.35943207 50.68710259 -4.35896353 50.89223216 0.6875 47.375 C2.1725 47.87 2.1725 47.87 3.6875 48.375 C-2.64623534 52.83740444 -7.60459224 54.28627974 -15.3125 53.375 C-21.4900091 51.37735207 -25.0598864 48.14300821 -28.38671875 42.578125 C-30.51813106 37.50590329 -30.35456024 31.04474112 -28.3671875 25.953125 C-25.03369082 20.37633181 -20.68297387 16.15280666 -14.3125 14.375 C-6.47761038 13.60435512 -1.72567356 16.09955096 4.6875 20.375 C3.57674449 14.41731138 2.52884231 11.36910741 -2.3125 7.375 C-4.87980774 6.09134613 -6.75902997 6.24224365 -9.625 6.25 C-10.56988281 6.24742188 -11.51476562 6.24484375 -12.48828125 6.2421875 C-15.19845736 6.369637 -17.67223585 6.76903774 -20.3125 7.375 C-22.3125 4.375 -22.3125 4.375 -22.3125 1.375 C-14.87532933 -1.93040919 -7.70357195 -3.46733276 0 0 Z " fill="#FCF5E2" transform="translate(70.3125,39.625)"/>
<path d="M0 0 C4.70385391 2.48570628 6.24191194 5.72356858 8.0625 10.5625 C8.475 11.5525 8.8875 12.5425 9.3125 13.5625 C9.56 14.2225 9.8075 14.8825 10.0625 15.5625 C11.3825 15.5625 12.7025 15.5625 14.0625 15.5625 C14.3925 12.5925 14.7225 9.6225 15.0625 6.5625 C16.0525 6.2325 17.0425 5.9025 18.0625 5.5625 C18.0625 4.9025 18.0625 4.2425 18.0625 3.5625 C19.0525 3.5625 20.0425 3.5625 21.0625 3.5625 C22.19952786 8.08307096 22.19064634 12.51589783 22.16015625 17.14453125 C22.1587413 17.95871017 22.15732635 18.7728891 22.15586853 19.61174011 C22.15029317 22.19953156 22.13774524 24.78723492 22.125 27.375 C22.11998181 29.13476437 22.11541946 30.89453011 22.11132812 32.65429688 C22.10033181 36.95706494 22.08308421 41.25976756 22.0625 45.5625 C20.5775 45.0675 20.5775 45.0675 19.0625 44.5625 C19.0625 43.5725 19.0625 42.5825 19.0625 41.5625 C17.4125 41.5625 15.7625 41.5625 14.0625 41.5625 C12.7425 38.2625 11.4225 34.9625 10.0625 31.5625 C8.7425 31.5625 7.4225 31.5625 6.0625 31.5625 C6.10375 32.47 6.145 33.3775 6.1875 34.3125 C5.9839634 39.6044517 3.6072206 42.69553207 0.0625 46.5625 C-0.9275 46.5625 -1.9175 46.5625 -2.9375 46.5625 C-3.86837909 42.62961636 -4.05358885 38.98595837 -4.03515625 34.94921875 C-4.03193359 33.70205078 -4.02871094 32.45488281 -4.02539062 31.16992188 C-4.01282227 29.22956055 -4.01282227 29.22956055 -4 27.25 C-3.99548828 25.93708984 -3.99097656 24.62417969 -3.98632812 23.27148438 C-3.97455949 20.0351099 -3.9581176 16.79882822 -3.9375 13.5625 C-4.5975 13.5625 -5.2575 13.5625 -5.9375 13.5625 C-8.69188494 9.43092259 -8.25931744 6.00831253 -7.625 1.1875 C-7.398125 0.65125 -7.17125 0.115 -6.9375 -0.4375 C-3.56204958 -1.56265014 -3.08181614 -1.42556178 0 0 Z " fill="#05BFDE" transform="translate(86.9375,110.4375)"/>
<path d="M0 0 C4.50665768 2.13473258 7.1741532 4.91822129 10 9 C11.76974865 14.30924595 11.69835764 19.0741395 9.5 24.1875 C6.98779026 28.64096272 3.7778796 31.2103475 -1 33 C-6.41586382 34.04878633 -10.66915158 33.56726274 -15.4375 30.75 C-19.30442937 27.99013509 -21.48486914 25.54539257 -23 21 C-23.39067482 16.56734343 -23.55361376 12.43288267 -21.9375 8.25 C-20.9784375 7.13625 -20.9784375 7.13625 -20 6 C-19.57074219 5.46246094 -19.14148438 4.92492187 -18.69921875 4.37109375 C-13.43439407 -1.2595252 -7.30191395 -1.1009329 0 0 Z " fill="#05BDDC" transform="translate(141,120)"/>
<path d="M0 0 C4.91551128 3.16777394 7.84903381 7.28964846 9.59375 12.9140625 C10.85600634 19.39526333 10.72781997 25.40827005 7 31 C6.41412109 31.87978516 6.41412109 31.87978516 5.81640625 32.77734375 C1.88757235 38.04175857 -2.66882917 40.43352474 -9 42 C-17.58713005 43.12618099 -23.0935075 41.17986937 -30 36 C-30.33 40.95 -30.66 45.9 -31 51 C-31.33 51 -31.66 51 -32 51 C-32 45.39 -32 39.78 -32 34 C-31.01 33.505 -31.01 33.505 -30 33 C-28.86649466 30.98330173 -28.86649466 30.98330173 -28 29 C-27.2575 29.61875 -26.515 30.2375 -25.75 30.875 C-20.89864732 34.62377253 -17.55364969 35.42557005 -11.4765625 35.3359375 C-7.77216548 34.83344831 -5.88826359 33.31061087 -3 31 C-2.34 31 -1.68 31 -1 31 C1.71097261 24.31293423 3.36093836 18.72467341 0.8125 11.75 C-1.53899209 8.1822189 -4.18442157 5.90778921 -8 4 C-13.39016505 3.32813807 -18.74204275 2.73540833 -23.6015625 5.45703125 C-26.72336864 8.15313656 -28.68222967 10.04668902 -30 14 C-30.09329934 15.64371491 -30.12995144 17.29114677 -30.125 18.9375 C-30.12757812 19.79214844 -30.13015625 20.64679688 -30.1328125 21.52734375 C-30.00930254 23.82680852 -29.64420687 25.79640348 -29 28 C-29.66 28 -30.32 28 -31 28 C-32.41634833 25.16730334 -32.3463005 22.52533562 -32.5625 19.375 C-32.64628906 18.18648437 -32.73007813 16.99796875 -32.81640625 15.7734375 C-32.90728516 14.40058594 -32.90728516 14.40058594 -33 13 C-35.38948197 16.58422296 -35.30233168 18.37232596 -35.4140625 22.63671875 C-35.45273438 23.93544922 -35.49140625 25.23417969 -35.53125 26.57226562 C-35.56270517 27.94400573 -35.59395251 29.31575061 -35.625 30.6875 C-35.66319197 32.07098785 -35.70224442 33.45445223 -35.7421875 34.83789062 C-35.83660517 38.2251245 -35.92218118 41.61235069 -36 45 C-36.99 45.495 -36.99 45.495 -38 46 C-38 29.83 -38 13.66 -38 -3 C-35.69 -3 -33.38 -3 -31 -3 C-30.67 -1.02 -30.34 0.96 -30 3 C-29.113125 2.21625 -28.22625 1.4325 -27.3125 0.625 C-18.79541881 -6.35070687 -9.19681889 -5.27357274 0 0 Z " fill="#D5FBFC" transform="translate(149,117)"/>
<path d="M0 0 C2.99115009 1.70749863 5.45393267 3.53616584 7.625 6.25 C7.625 6.91 7.625 7.57 7.625 8.25 C5.4378711 9.57789969 4.14779544 10.29752686 1.5625 10.0625 C-0.64625366 9.13624847 -1.76902339 8.00197449 -3.375 6.25 C-6.39368434 4.74065783 -9.04797229 5.07489328 -12.375 5.25 C-13.365 5.91 -14.355 6.57 -15.375 7.25 C-16.04290364 10.1215965 -16.04290364 10.1215965 -15.375 13.25 C-11.09541674 18.12746621 -5.92345168 21.34978447 -0.53125 24.87109375 C3.3219139 27.77527297 6.43772932 30.87545863 8.625 35.25 C9.20485258 44.09275184 9.20485258 44.09275184 5.625 48.25 C-1.06329817 53.03197164 -7.3507944 53.90355521 -15.375 53.25 C-21.38999244 51.98028782 -26.28749013 48.83567513 -30.375 44.25 C-30.375 43.59 -30.375 42.93 -30.375 42.25 C-28.27386305 40.97430971 -26.92426564 40.21456351 -24.4375 40.375 C-21.68203512 41.5439851 -19.6802412 43.35852004 -17.375 45.25 C-12.32881669 46.9320611 -7.37026967 46.99822613 -2.375 45.125 C-0.19192178 43.3280218 -0.19192178 43.3280218 0.8125 40.5 C0.57703857 36.41866852 -0.54013513 34.96088155 -3.29296875 32.046875 C-6.51311044 29.26776585 -10.04114327 27.09522833 -13.69140625 24.92578125 C-18.84829319 21.70554181 -22.17693494 19.03438174 -24.375 13.25 C-24.79368052 9.83077575 -24.6035987 7.81477326 -23.3125 4.625 C-17.29427893 -2.75217422 -8.45558797 -3.96798541 0 0 Z " fill="#D7FBFC" transform="translate(141.375,39.75)"/>
<path d="M0 0 C3.43403788 2.00011167 6.21175747 4.42351494 8 8 C8.39231417 12.70777 8.47336758 15.07079697 6.3125 19.3125 C3.41430219 22.68067583 1.36159162 24.6064014 -3.109375 25.3515625 C-7.26517473 25.6165296 -10.11690435 25.38694361 -13.4375 22.75 C-16.12945724 19.86107028 -17.86923752 17.84408624 -18.15234375 13.8515625 C-17.58683383 7.99082328 -16.22838384 5.12525253 -12 1 C-8.24289828 -0.87855086 -4.08021262 -0.66379578 0 0 Z " fill="#04BFDE" transform="translate(65,136)"/>
<path d="M0 0 C3.92710616 2.29808435 6.55264149 4.65792447 8 9 C8.37188362 14.02042893 8.13722452 16.99733424 5 21 C2.72260535 23.55344249 1.05671938 24.80915436 -2.3359375 25.421875 C-6.67612426 25.65647969 -9.98801371 25.53925103 -13.5 22.8125 C-16.68000526 19.23499408 -17.67468177 16.82991504 -18.5 12.1875 C-17.771467 7.5431021 -15.26317039 4.32668709 -12 1 C-7.90386827 -0.36537724 -4.27309313 -0.76406301 0 0 Z " fill="#EF8528" transform="translate(65,61)"/>
<path d="M0 0 C0.61875 0.7734375 0.61875 0.7734375 1.25 1.5625 C2.11625 2.2740625 2.11625 2.2740625 3 3 C4.34055176 2.69699857 5.67245161 2.35567423 7 2 C19.5076898 0.86881358 19.5076898 0.86881358 23.6875 4.25 C27.46863057 8.7464796 28.26949482 11.07111386 28 17 C27.47792969 16.6390625 26.95585938 16.278125 26.41796875 15.90625 C20.25258966 12.01914585 15.23476998 10.87791603 8 12 C3.18453498 13.31628161 -0.04152862 15.53798726 -3 19.5625 C-5.74761557 24.56409172 -5.87420596 29.43907875 -5 35 C-3.05083271 41.21037877 0.22861997 44.84937833 5.890625 48.078125 C10.18449552 49.95470545 14.88897238 49.77428695 19.2578125 48.171875 C22.34177621 46.64696305 25.13548999 44.90967334 28 43 C28 45.31 28 47.62 28 50 C18.90835253 53.76206102 9.08640443 54.87396909 -0.3125 51.375 C-5.21120572 49.11655856 -9.6403606 46.15915899 -14 43 C-13.01 42.505 -13.01 42.505 -12 42 C-10.0546875 42.77734375 -10.0546875 42.77734375 -7.875 43.9375 C-6.78832031 44.50791016 -6.78832031 44.50791016 -5.6796875 45.08984375 C-5.12539063 45.39019531 -4.57109375 45.69054687 -4 46 C-4.47581198 44.68628013 -4.95575149 43.37405454 -5.4375 42.0625 C-5.70433594 41.33160156 -5.97117187 40.60070312 -6.24609375 39.84765625 C-6.85386948 38.01694322 -6.85386948 38.01694322 -8 37 C-8.12617338 34.73181338 -8.17580246 32.45916315 -8.1875 30.1875 C-8.20167969 28.94355469 -8.21585938 27.69960937 -8.23046875 26.41796875 C-8.01764292 23.26165353 -7.77267939 21.56883014 -6 19 C-5.34 18.67 -4.68 18.34 -4 18 C-3.34786708 15.97536745 -3.34786708 15.97536745 -3 14 C-1.35 13.67 0.3 13.34 2 13 C2 12.34 2 11.68 2 11 C7.02649303 9.42922093 11.76119922 8.55145271 17 8 C17 6.68 17 5.36 17 4 C15.24967156 4.14183696 13.49974466 4.28863429 11.75 4.4375 C10.28820313 4.55931641 10.28820313 4.55931641 8.796875 4.68359375 C6.43538247 4.95074584 4.28098935 5.35371968 2 6 C1.34 4.02 0.68 2.04 0 0 Z " fill="#1FB9CF" transform="translate(47,118)"/>
<path d="M0 0 C5.42521431 3.1466243 9.68169984 7.44284091 11.68334961 13.50292969 C12.29939892 16.72450317 12.36097831 19.93395586 12.44140625 23.203125 C12.46218735 23.90773865 12.48296844 24.61235229 12.50437927 25.33831787 C12.56953837 27.57961681 12.62860248 29.82102864 12.6875 32.0625 C12.73071726 33.58594897 12.77433257 35.10938671 12.81835938 36.6328125 C12.92518491 40.35925591 13.02654639 44.08582494 13.125 47.8125 C14.115 47.1525 15.105 46.4925 16.125 45.8125 C15.465 47.1325 14.805 48.4525 14.125 49.8125 C12.805 49.8125 11.485 49.8125 10.125 49.8125 C10.09994385 49.00095459 10.0748877 48.18940918 10.04907227 47.35327148 C9.93254183 43.65204284 9.810075 39.95103319 9.6875 36.25 C9.64818359 34.97318359 9.60886719 33.69636719 9.56835938 32.38085938 C9.52646484 31.14013672 9.48457031 29.89941406 9.44140625 28.62109375 C9.38641968 26.91651001 9.38641968 26.91651001 9.33032227 25.17749023 C9.11695699 21.68068455 8.66545723 18.27258025 8.125 14.8125 C7.465 16.7925 6.805 18.7725 6.125 20.8125 C5.795 20.8125 5.465 20.8125 5.125 20.8125 C4.8775 19.595625 4.63 18.37875 4.375 17.125 C3.40615233 13.22192794 1.9609991 10.73712408 -0.875 7.8125 C-3.69829919 6.40085041 -6.1040079 6.68043035 -9.25 6.6875 C-10.39210938 6.68492188 -11.53421875 6.68234375 -12.7109375 6.6796875 C-15.30736152 6.7886732 -17.41124883 7.04788757 -19.875 7.8125 C-22.875 4.0625 -22.875 4.0625 -22.875 1.8125 C-15.54455024 -1.50694895 -7.76295489 -2.95973226 0 0 Z " fill="#DEFAFC" transform="translate(69.875,114.1875)"/>
<path d="M0 0 C-2 2 -2 2 -4.875 3.3125 C-9.44100248 5.77814134 -12.01202563 9.26592544 -14 14 C-14.93495881 20.21208206 -14.77748714 25.62945426 -11.4375 31.0625 C-8.44222999 34.92555852 -5.82309907 36.77378837 -1 38 C5.16727944 38.75584775 9.50463707 37.80155757 15 35 C16.2065625 34.4121875 16.2065625 34.4121875 17.4375 33.8125 C17.953125 33.544375 18.46875 33.27625 19 33 C19 35.31 19 37.62 19 40 C8.39910423 43.44983038 -3.52790048 44.11111788 -13.6875 39 C-19.23786592 35.84770159 -23.373081 32.24948803 -27 27 C-26.01 27 -25.02 27 -24 27 C-23.67 27.99 -23.34 28.98 -23 30 C-20.98491642 30.73323796 -20.98491642 30.73323796 -19 31 C-19 31.99 -19 32.98 -19 34 C-16.9837767 33.28436734 -16.9837767 33.28436734 -15 32 C-14.19471111 29.94999129 -14.19471111 29.94999129 -14 28 C-14.66 28 -15.32 28 -16 28 C-16.59529846 11.06706614 -16.59529846 11.06706614 -13 5 C-9.14668716 1.61375538 -5.29003951 -0.82656867 0 0 Z " fill="#E5842E" transform="translate(56,54)"/>
<path d="M0 0 C2.31 0 4.62 0 7 0 C7 2.31 7 4.62 7 7 C8.32 7.33 9.64 7.66 11 8 C10.67 8.66 10.34 9.32 10 10 C9.34 10 8.68 10 8 10 C7.9729797 12.75006608 7.95315117 15.49986546 7.9375 18.25 C7.92912109 19.02730469 7.92074219 19.80460937 7.91210938 20.60546875 C7.90727539 21.73662109 7.90727539 21.73662109 7.90234375 22.890625 C7.89710693 23.58188477 7.89187012 24.27314453 7.88647461 24.98535156 C8.00562029 27.09973898 8.42381763 28.96641515 9 31 C8.34 31 7.68 31 7 31 C5.58365167 28.16730334 5.6536995 25.52533562 5.4375 22.375 C5.35371094 21.18648437 5.26992187 19.99796875 5.18359375 18.7734375 C5.09271484 17.40058594 5.09271484 17.40058594 5 16 C2.61051803 19.58422296 2.69766832 21.37232596 2.5859375 25.63671875 C2.54726562 26.93544922 2.50859375 28.23417969 2.46875 29.57226562 C2.43729483 30.94400573 2.40604749 32.31575061 2.375 33.6875 C2.33680803 35.07098785 2.29775558 36.45445223 2.2578125 37.83789062 C2.16339483 41.2251245 2.07781882 44.61235069 2 48 C1.01 48.495 1.01 48.495 0 49 C0 32.83 0 16.66 0 0 Z " fill="#CDF9FC" transform="translate(111,114)"/>
<path d="M0 0 C1.16306443 3.54950034 0.92365049 6.55823948 0.5625 10.25 C0.40974609 11.86648437 0.40974609 11.86648437 0.25390625 13.515625 C0.17011719 14.33546875 0.08632813 15.1553125 0 16 C0.66 15.67 1.32 15.34 2 15 C2.46651207 12.87423218 2.46651207 12.87423218 2.625 10.4375 C2.69976562 9.61121094 2.77453125 8.78492187 2.8515625 7.93359375 C2.90054688 7.29550781 2.94953125 6.65742187 3 6 C3.33 6 3.66 6 4 6 C4.09796875 6.59167969 4.1959375 7.18335937 4.296875 7.79296875 C5.25351976 12.84834148 6.24766735 16.24766735 10 20 C12.76452033 21.38226016 15.0461363 21.09525387 18.125 21.0625 C19.22070312 21.05347656 20.31640625 21.04445313 21.4453125 21.03515625 C22.28835937 21.02355469 23.13140625 21.01195313 24 21 C23.67 21.66 23.34 22.32 23 23 C19.7 23 16.4 23 13 23 C13 23.99 13 24.98 13 26 C18.95306793 26.31210259 22.95353647 26.51723216 28 23 C28.99 23.33 29.98 23.66 31 24 C24.66626466 28.46240444 19.70790776 29.91127974 12 29 C5.80987973 26.99827394 2.29027186 23.75670493 -1.0859375 18.21875 C-2.25656927 15.37721647 -2.26533177 13.06635421 -2.25 10 C-2.25515625 8.96875 -2.2603125 7.9375 -2.265625 6.875 C-2.00499165 4.05402722 -1.45296344 2.39854282 0 0 Z " fill="#FDEED0" transform="translate(43,64)"/>
<path d="M0 0 C6.90937474 5.77375086 11.85872223 12.8718258 13.2578125 21.88671875 C13.9548512 31.03963673 13.43498757 39.56030958 9.2578125 47.88671875 C8.2678125 48.54671875 7.2778125 49.20671875 6.2578125 49.88671875 C6.88443215 47.1364075 7.67523479 44.90104982 8.79296875 42.26171875 C10.61647664 37.46125923 10.73773635 32.97758048 10.6953125 27.88671875 C10.71529297 27.0359375 10.73527344 26.18515625 10.75585938 25.30859375 C10.75143734 19.54225808 9.85694236 14.55849757 6.2578125 9.88671875 C5.2678125 9.55671875 4.2778125 9.22671875 3.2578125 8.88671875 C2.55569356 7.23467419 1.88809837 5.56748106 1.2578125 3.88671875 C0.5978125 3.55671875 -0.0621875 3.22671875 -0.7421875 2.88671875 C-0.7421875 2.22671875 -0.7421875 1.56671875 -0.7421875 0.88671875 C-3.7121875 -0.10328125 -6.6821875 -1.09328125 -9.7421875 -2.11328125 C-9.7421875 -2.77328125 -9.7421875 -3.43328125 -9.7421875 -4.11328125 C-18.92987152 -5.8633163 -28.87655127 -6.33714897 -37.7421875 -3.11328125 C-38.4021875 -3.11328125 -39.0621875 -3.11328125 -39.7421875 -3.11328125 C-39.7421875 -2.45328125 -39.7421875 -1.79328125 -39.7421875 -1.11328125 C-40.3609375 -0.98953125 -40.9796875 -0.86578125 -41.6171875 -0.73828125 C-43.93339582 -0.24130769 -43.93339582 -0.24130769 -45.7421875 1.88671875 C-46.4021875 1.22671875 -47.0621875 0.56671875 -47.7421875 -0.11328125 C-32.09526293 -10.30943291 -15.52260338 -11.60545739 0 0 Z " fill="#31B7CC" transform="translate(157.7421875,30.11328125)"/>
<path d="M0 0 C0.70705078 0.03544922 1.41410156 0.07089844 2.14257812 0.10742188 C5.83563627 0.33975511 8.78197112 0.67943617 11.9375 2.6875 C11.9375 3.3475 11.9375 4.0075 11.9375 4.6875 C13.9175 4.6875 15.8975 4.6875 17.9375 4.6875 C17.916875 5.450625 17.89625 6.21375 17.875 7 C17.80807159 9.78935786 17.80807159 9.78935786 18.9375 12.6875 C19.5975 12.6875 20.2575 12.6875 20.9375 12.6875 C21.2675 23.5775 21.5975 34.4675 21.9375 45.6875 C26.06153473 44.03893175 26.06153473 44.03893175 27.9375 40.6875 C28.32249891 39.03200469 28.66543135 37.3652567 28.9375 35.6875 C29.2675 35.6875 29.5975 35.6875 29.9375 35.6875 C30.2675 34.0375 30.5975 32.3875 30.9375 30.6875 C31.9275 30.6875 32.9175 30.6875 33.9375 30.6875 C31.53237037 39.61179678 28.1242872 46.97379405 19.9375 51.6875 C19.92291748 50.72972656 19.90833496 49.77195313 19.89331055 48.78515625 C19.83491637 45.19901989 19.75769016 41.61348474 19.67504883 38.02783203 C19.64199138 36.48203357 19.61390097 34.93611996 19.59106445 33.39013672 C19.62108212 19.79342853 19.62108212 19.79342853 13.6875 7.875 C7.11913625 2.6501652 1.17273795 1.77902819 -7.0625 2.6875 C-10.59743964 3.63129456 -13.78867676 5.05058838 -17.0625 6.6875 C-16.04162836 3.62488507 -15.53439851 2.62970597 -13.0625 0.6875 C-8.70284992 -0.56620271 -4.47256565 -0.29926425 0 0 Z " fill="#24B6CC" transform="translate(62.0625,111.3125)"/>
<path d="M0 0 C1.2375 0.804375 2.475 1.60875 3.75 2.4375 C9.56920682 6.21998443 15.15218276 6.74135913 22 6 C26.18936195 4.71635149 30.08751101 2.9562445 34 1 C34 1.99 34 2.98 34 4 C33.01 4 32.02 4 31 4 C31 4.66 31 5.32 31 6 C29.68 6 28.36 6 27 6 C26.67 6.99 26.34 7.98 26 9 C20.72 9 15.44 9 10 9 C10 8.34 10 7.68 10 7 C7.69 7 5.38 7 3 7 C2.67 9.64 2.34 12.28 2 15 C7.12283766 15.98643638 12.17748929 16.30967053 17.375 16.5625 C18.62216797 16.62727539 18.62216797 16.62727539 19.89453125 16.69335938 C21.92953228 16.79861805 23.96474703 16.89973072 26 17 C23.11020289 19.88979711 20.96605188 19.30040225 16.9375 19.3125 C10.73745976 19.30061257 5.72102085 18.40885088 0 16 C0 10.72 0 5.44 0 0 Z " fill="#2CB6CA" transform="translate(118,152)"/>
<path d="M0 0 C2.75546488 1.1689851 4.7572588 2.98352004 7.0625 4.875 C10.21180893 5.92476964 12.45064456 5.97631595 15.75 5.9375 C16.74386719 5.92847656 17.73773438 5.91945313 18.76171875 5.91015625 C19.52097656 5.89855469 20.28023437 5.88695313 21.0625 5.875 C21.0625 6.535 21.0625 7.195 21.0625 7.875 C18.29797967 9.25726016 16.0163637 8.97025387 12.9375 8.9375 C11.84179688 8.92847656 10.74609375 8.91945313 9.6171875 8.91015625 C8.77414063 8.89855469 7.93109375 8.88695313 7.0625 8.875 C8.14924534 10.18571803 8.14924534 10.18571803 10.79296875 10.0078125 C12.50419922 10.00394531 12.50419922 10.00394531 14.25 10 C15.94189453 10.00386719 15.94189453 10.00386719 17.66796875 10.0078125 C20.88665367 9.88188006 23.90230072 9.47922627 27.0625 8.875 C21.55947503 13.39534194 15.97795238 13.43824951 9.0625 12.875 C3.04750756 11.60528782 -1.84999013 8.46067513 -5.9375 3.875 C-5.9375 3.215 -5.9375 2.555 -5.9375 1.875 C-3.83636305 0.59930971 -2.48676564 -0.16043649 0 0 Z " fill="#C7F9FC" transform="translate(116.9375,80.125)"/>
<path d="M0 0 C0.66 0 1.32 0 2 0 C3.625 2 3.625 2 5 4 C5.66 3.34 6.32 2.68 7 2 C7.515625 2.7425 8.03125 3.485 8.5625 4.25 C12.79371243 9.02367557 17.91400961 11.63865391 24.296875 12.203125 C31.82752278 12.34702273 37.34754768 10.60341168 44 7 C43.625 8.9375 43.625 8.9375 43 11 C42.34 11.33 41.68 11.66 41 12 C41.99 12.66 42.98 13.32 44 14 C35.28534927 17.65958372 23.72778637 16.5971712 14.75 14.09375 C8.89295046 11.38486459 3.99289785 7.05246571 0 2 C0 1.34 0 0.68 0 0 Z " fill="#2AB6CD" transform="translate(104,80)"/>
<path d="M0 0 C2.05078125 0.03255208 4.1015625 0.06510417 6.15234375 0.09765625 C5.82234375 0.75765625 5.49234375 1.41765625 5.15234375 2.09765625 C3.17234375 2.09765625 1.19234375 2.09765625 -0.84765625 2.09765625 C-0.84765625 18.26765625 -0.84765625 34.43765625 -0.84765625 51.09765625 C-7.59765625 45.47265625 -7.59765625 45.47265625 -9.84765625 40.09765625 C-8.52765625 40.09765625 -7.20765625 40.09765625 -5.84765625 40.09765625 C-5.51765625 41.08765625 -5.18765625 42.07765625 -4.84765625 43.09765625 C-4.18765625 43.42765625 -3.52765625 43.75765625 -2.84765625 44.09765625 C-2.85289307 42.80029541 -2.85812988 41.50293457 -2.86352539 40.16625977 C-2.88157094 35.3711821 -2.89308662 30.57610745 -2.90258789 25.78100586 C-2.90762913 23.70222469 -2.91446199 21.62344709 -2.9230957 19.54467773 C-2.93517047 16.56363039 -2.94088649 13.58262976 -2.9453125 10.6015625 C-2.95305443 9.19844566 -2.95305443 9.19844566 -2.96095276 7.76698303 C-2.96102829 6.90616623 -2.96110382 6.04534943 -2.96118164 5.15844727 C-2.96340225 4.3967775 -2.96562286 3.63510773 -2.96791077 2.85035706 C-2.79944636 0.39500062 -2.45420125 0.12971465 0 0 Z " fill="#11B8D2" transform="translate(111.84765625,111.90234375)"/>
<path d="M0 0 C0.66 0 1.32 0 2 0 C2 0.66 2 1.32 2 2 C2.99 2 3.98 2 5 2 C5 14.21 5 26.42 5 39 C9.74806994 34.430426 9.74806994 34.430426 12 29 C12.66 29 13.32 29 14 29 C13.938125 27.1128125 13.938125 27.1128125 13.875 25.1875 C13.7609626 21.70935927 13.94074319 21.08888522 16 18 C16.27401018 15.97078331 16.27401018 15.97078331 16.1953125 13.76953125 C16.18886719 12.96708984 16.18242188 12.16464844 16.17578125 11.33789062 C16.15902344 10.50451172 16.14226562 9.67113281 16.125 8.8125 C16.11597656 7.96751953 16.10695313 7.12253906 16.09765625 6.25195312 C16.07410703 4.16784757 16.03823647 2.08388783 16 0 C19.98802347 5.98203521 18.60475814 15.01806725 18 22 C16.53880748 28.79122431 12.86723225 35.0354231 8 40 C6.67969693 40.69211418 5.34740994 41.36226285 4 42 C3.98541748 41.04746338 3.97083496 40.09492676 3.95581055 39.11352539 C3.8973311 35.5404115 3.82010727 31.96789553 3.73754883 28.39526367 C3.70453079 26.85630074 3.67642878 25.31722344 3.65356445 23.77807617 C3.52586015 15.40665135 3.3235718 7.83222416 0 0 Z " fill="#D88F48" transform="translate(78,46)"/>
<path d="M0 0 C3.43403788 2.00011167 6.21175747 4.42351494 8 8 C8.39231417 12.70777 8.47336758 15.07079697 6.3125 19.3125 C3.41430219 22.68067583 1.36159162 24.6064014 -3.109375 25.3515625 C-7.26517473 25.6165296 -10.11690435 25.38694361 -13.4375 22.75 C-16.12945724 19.86107028 -17.86923752 17.84408624 -18.15234375 13.8515625 C-17.58683383 7.99082328 -16.22838384 5.12525253 -12 1 C-8.24289828 -0.87855086 -4.08021262 -0.66379578 0 0 Z M-15 6 C-16.71946285 9.4389257 -16.38285216 13.23192874 -16 17 C-14.32404345 20.11249074 -12.98730153 21.00846564 -10 23 C-7.71351152 23.24107326 -7.71351152 23.24107326 -5.3125 23.125 C-4.50425781 23.10695312 -3.69601563 23.08890625 -2.86328125 23.0703125 C-2.24839844 23.04710937 -1.63351563 23.02390625 -1 23 C-1 22.34 -1 21.68 -1 21 C0.175625 20.5359375 0.175625 20.5359375 1.375 20.0625 C3.92330128 19.07124962 3.92330128 19.07124962 6 18 C6.08114106 16.22992286 6.13925505 14.45877902 6.1875 12.6875 C6.22230469 11.70136719 6.25710937 10.71523437 6.29296875 9.69921875 C6.22923773 6.97865275 6.22923773 6.97865275 4.61328125 5.14453125 C3.05780696 3.8071267 3.05780696 3.8071267 1 4 C1 3.34 1 2.68 1 2 C-5.6390209 -1.31951045 -10.34242429 1.22882488 -15 6 Z " fill="#3AB6C6" transform="translate(65,136)"/>
<path d="M0 0 C3.01652866 2.22635832 5.03375006 4.58631259 7.20703125 7.62890625 C5.33203125 8.25390625 5.33203125 8.25390625 3.20703125 8.62890625 C2.54703125 7.96890625 1.88703125 7.30890625 1.20703125 6.62890625 C0.69140625 6.15453125 0.17578125 5.68015625 -0.35546875 5.19140625 C-1.79296875 3.62890625 -1.79296875 3.62890625 -2.79296875 0.62890625 C-9.35773384 -2.6534763 -14.89013352 -3.52168789 -22.16796875 -3.55859375 C-23.43382813 -3.57277344 -24.6996875 -3.58695312 -26.00390625 -3.6015625 C-29.83023565 -3.50709035 -29.83023565 -3.50709035 -33.51953125 -2.296875 C-36.6203008 -1.41992705 -37.87301827 -1.20311356 -40.79296875 -2.37109375 C-39.3781874 -3.02104672 -37.96105388 -3.66588097 -36.54296875 -4.30859375 C-35.7540625 -4.66824219 -34.96515625 -5.02789062 -34.15234375 -5.3984375 C-22.30921161 -10.28078833 -10.37888614 -6.52153633 0 0 Z " fill="#3BB6BF" transform="translate(81.79296875,103.37109375)"/>
<path d="M0 0 C4 2 4 2 5 4 C5.39779059 9.17127767 5.07498271 12.73470141 2 17 C-3.99706561 19.86816181 -11.48819237 19.84699036 -18 19 C-18.66 18.01 -19.32 17.02 -20 16 C-15.05 16 -10.1 16 -5 16 C-5 15.34 -5 14.68 -5 14 C-3.35 13.67 -1.7 13.34 0 13 C0 8.71 0 4.42 0 0 Z " fill="#F4FDFC" transform="translate(143,72)"/>
<path d="M0 0 C0.33 0 0.66 0 1 0 C1 2.31 1 4.62 1 7 C-7.84092577 10.65831411 -17.71157724 11.91797297 -26.875 8.5 C-27.90625 8.005 -28.9375 7.51 -30 7 C-21.34560907 4.82719547 -21.34560907 4.82719547 -19 6 C-12.44537848 6.82952679 -7.50645016 5.61814711 -2 2 C-1.34 1.34 -0.68 0.68 0 0 Z " fill="#30B5C3" transform="translate(74,161)"/>
<path d="M0 0 C0.66 0.33 1.32 0.66 2 1 C1.48050781 1.46148437 0.96101563 1.92296875 0.42578125 2.3984375 C-6.50332344 8.8792637 -10.36371306 15.89282693 -13 25 C-14.38141473 22.31559146 -15.56081205 19.6113764 -16.6875 16.8125 C-18.98154932 11.56148217 -22.32991993 7.36079739 -26 3 C-24.68 2.67 -23.36 2.34 -22 2 C-21.16121545 3.28813342 -20.32913217 4.58063256 -19.5 5.875 C-19.0359375 6.59429687 -18.571875 7.31359375 -18.09375 8.0546875 C-17 10 -17 10 -17 12 C-16.34 12 -15.68 12 -15 12 C-14.67 12.99 -14.34 13.98 -14 15 C-13.01 15 -12.02 15 -11 15 C-11 13.68 -11 12.36 -11 11 C-10.34 11 -9.68 11 -9 11 C-9 10.01 -9 9.02 -9 8 C-8.34 8 -7.68 8 -7 8 C-6.67 7.01 -6.34 6.02 -6 5 C-5.34 5 -4.68 5 -4 5 C-4 4.01 -4 3.02 -4 2 C-2.125 0.9375 -2.125 0.9375 0 0 Z " fill="#CAFBFC" transform="translate(110,103)"/>
<path d="M0 0 C0.99 0.33 1.98 0.66 3 1 C5.42066867 6.01312674 5.08070594 10.49766997 4.625 15.875 C4.56828125 16.65875 4.5115625 17.4425 4.453125 18.25 C4.31282139 20.16748262 4.15789804 22.08388599 4 24 C3.34 24 2.68 24 2 24 C2.2475 24.53625 2.495 25.0725 2.75 25.625 C3.13593635 29.29139532 1.11194471 31.10361868 -1 34 C-1.33 34.721875 -1.66 35.44375 -2 36.1875 C-3.26283598 38.47639021 -4.84693131 39.56462087 -7 41 C-7.66 40.67 -8.32 40.34 -9 40 C-8.61328125 39.55011719 -8.2265625 39.10023438 -7.828125 38.63671875 C0.3463955 28.53997189 1.87725796 18.81371877 1 6 C0.69800544 3.99502858 0.37531911 1.99254779 0 0 Z " fill="#D4FCFD" transform="translate(169,120)"/>
<path d="M0 0 C-3.21319766 2.27274956 -5.96427156 3.98521582 -9.625 5.5 C-12.93712313 6.97205472 -14.57237255 8.39254829 -17 11 C-17.66 11 -18.32 11 -19 11 C-19.2475 11.5775 -19.495 12.155 -19.75 12.75 C-21 15 -21 15 -23 16.6875 C-25.90820707 20.05011442 -26.30049348 23.69251248 -27 28 C-27.99 28 -28.98 28 -30 28 C-29.33092909 19.30207822 -24.34319874 12.6265455 -18.18359375 6.79296875 C-13.75393966 3.15573937 -5.89368297 -2.94684148 0 0 Z " fill="#19BAD0" transform="translate(128,98)"/>
<path d="M0 0 C1.125 3.75 1.125 3.75 0 6 C-0.24096906 9.39017144 -0.18520265 12.78971736 -0.1875 16.1875 C-0.19974609 17.12142578 -0.21199219 18.05535156 -0.22460938 19.01757812 C-0.23605507 24.4390205 0.24797569 28.87049917 2 34 C2.35371498 35.66246041 2.69595322 37.32774271 3 39 C-0.4496566 36.00555582 -1.66441905 33.74190829 -2.6875 29.3125 C-3.27152318 25.85980964 -3.27152318 25.85980964 -5 23 C-6.1389657 14.32758976 -3.77268318 7.72052665 0 0 Z " fill="#24BAD1" transform="translate(101,41)"/>
<path d="M0 0 C3.13919647 2.56843348 3.9366203 5.13801614 5 9 C5.22227519 11.52263617 5.35330216 14.0542567 5.4140625 16.5859375 C5.43342865 17.28772125 5.4527948 17.989505 5.4727478 18.71255493 C5.53207569 20.93324999 5.57873917 23.15399823 5.625 25.375 C5.66322302 26.88934434 5.70227722 28.40366794 5.7421875 29.91796875 C5.83773734 33.61178831 5.92193937 37.3057647 6 41 C6.99 40.34 7.98 39.68 9 39 C8.34 40.32 7.68 41.64 7 43 C5.68 43 4.36 43 3 43 C2.97494385 42.20416504 2.9498877 41.40833008 2.92407227 40.58837891 C2.80703014 36.93379832 2.68480038 33.27940825 2.5625 29.625 C2.52318359 28.37332031 2.48386719 27.12164062 2.44335938 25.83203125 C2.06072032 12.82379591 2.06072032 12.82379591 0 0 Z " fill="#B3EEF2" transform="translate(77,121)"/>
<path d="M0 0 C4.6 2.2 4.6 2.2 6 5 C9.465 4.505 9.465 4.505 13 4 C12.67 3.01 12.34 2.02 12 1 C12.66 1 13.32 1 14 1 C14 2.65 14 4.3 14 6 C11.2229192 7.34886782 9.4221566 8.02945279 6.3125 7.8125 C4 7 4 7 2 4 C0.09293424 3.59912669 0.09293424 3.59912669 -2 3.75 C-3.051875 3.77320313 -3.051875 3.77320313 -4.125 3.796875 C-6.08936628 3.89956666 -6.08936628 3.89956666 -8 5 C-8.41870553 7.33071879 -8.41870553 7.33071879 -8 10 C-5.49950283 12.36533516 -2.86234695 14.0917687 0 16 C-0.66 16.33 -1.32 16.66 -2 17 C-3.31611677 16.04663979 -4.62778961 15.08714226 -5.9375 14.125 C-6.66839844 13.59132813 -7.39929688 13.05765625 -8.15234375 12.5078125 C-10.71796253 10.414094 -10.95990796 9.37686521 -11.3125 6.0625 C-11 3 -11 3 -9.4375 1.125 C-6.07352674 -0.42760304 -3.66991425 -0.38630676 0 0 Z " fill="#31B7CE" transform="translate(136,44)"/>
<path d="M0 0 C-3.04632029 1.0154401 -4.2893934 0.98900876 -7.375 0.5625 C-10.61423699 0.15032955 -13.72787259 -0.1055525 -17 0 C-16.67 0.66 -16.34 1.32 -16 2 C-13.48036578 2.35672241 -10.98666757 2.44375117 -8.4453125 2.55859375 C-5.6477462 3.06358575 -4.753686 3.82240976 -3 6 C-4.55460937 5.98259766 -4.55460937 5.98259766 -6.140625 5.96484375 C-7.51041486 5.95546163 -8.88020668 5.94636188 -10.25 5.9375 C-10.93191406 5.92912109 -11.61382812 5.92074219 -12.31640625 5.91210938 C-15.69342554 5.89571608 -18.77291639 5.94371232 -22 7 C-25 3.25 -25 3.25 -25 1 C-16.80971883 -2.70880657 -8.46329217 -3.65980202 0 0 Z " fill="#C3F9FB" transform="translate(72,115)"/>
<path d="M0 0 C2 1.125 2 1.125 3 3.125 C2.38125 2.96 1.7625 2.795 1.125 2.625 C-4.75958422 1.68346652 -10.58076954 0.98398794 -16 3.875 C-18.91958563 6.06468922 -19.76285555 6.85583084 -21 10.125 C-21.32216395 14.74268323 -20.71826751 18.19547735 -17.875 21.875 C-14.64512365 24.40272932 -11.3819616 26.80404596 -8 29.125 C-8.66 29.455 -9.32 29.785 -10 30.125 C-12.03144641 29.19053465 -14.03533587 28.19275224 -16 27.125 C-16 26.465 -16 25.805 -16 25.125 C-16.78375 24.8775 -17.5675 24.63 -18.375 24.375 C-21.46461923 22.90375275 -21.83055778 22.25608723 -23 19.125 C-23.23046875 16.43359375 -23.23046875 16.43359375 -23.1875 13.5625 C-23.18105469 12.61246094 -23.17460938 11.66242187 -23.16796875 10.68359375 C-23 8.125 -23 8.125 -22 5.125 C-19.9375 4.4375 -19.9375 4.4375 -18 4.125 C-18 3.465 -18 2.805 -18 2.125 C-17.01 2.125 -16.02 2.125 -15 2.125 C-15 1.465 -15 0.805 -15 0.125 C-10.04181702 -1.52772766 -5.01061481 -1.46142932 0 0 Z " fill="#2BB9CB" transform="translate(139,36.875)"/>
<path d="M0 0 C0.33 0.99 0.66 1.98 1 3 C0.34 3.66 -0.32 4.32 -1 5 C-1.40047444 7.32275177 -1.7397104 9.65739357 -2 12 C-2.66 12 -3.32 12 -4 12 C-3.91838805 15.3551079 -3.80561448 18.70849442 -3.6875 22.0625 C-3.66494141 23.00544922 -3.64238281 23.94839844 -3.61914062 24.91992188 C-3.39677692 30.72159316 -2.47797416 34.77334862 0 40 C-0.33 40.66 -0.66 41.32 -1 42 C-1.82011312 40.44148245 -2.63076213 38.87798284 -3.4375 37.3125 C-3.88996094 36.44238281 -4.34242187 35.57226562 -4.80859375 34.67578125 C-8.53267401 26.31186329 -7.77127149 16.75131447 -4.93359375 8.23828125 C-3.64161221 5.14076902 -2.0333492 2.66438861 0 0 Z " fill="#33BAD4" transform="translate(29,112)"/>
<path d="M0 0 C10.917585 0.52827024 18.52336776 4.56955847 26.01171875 12.5234375 C29.04572371 16.30253208 31.5978487 20.33422067 33 25 C32.6171875 27.29296875 32.6171875 27.29296875 32 29 C29.70366176 25.55549263 29.45983515 23.06187717 29 19 C28.34 19 27.68 19 27 19 C25.44939017 17.12653592 24.11223184 15.14103269 22.73046875 13.140625 C18.6328846 8.07183015 14.50058801 6.28035272 8.25 4.9375 C5.75734944 4.40000755 3.43833294 3.78205069 1 3 C0.67 2.01 0.34 1.02 0 0 Z " fill="#30B9C8" transform="translate(137,97)"/>
<path d="M0 0 C2.5625 0.3125 2.5625 0.3125 4.4375 1.4375 C5.5625 3.3125 5.5625 3.3125 5.375 6.4375 C5.106875 7.38625 4.83875 8.335 4.5625 9.3125 C1.77386993 10.70681504 -0.35828868 10.56910094 -3.4375 10.3125 C-5.4375 7.3125 -5.4375 7.3125 -5.1875 4.75 C-4.19253762 1.51637226 -3.41216263 0.43745675 0 0 Z " fill="#D8D8D8" transform="translate(178.4375,23.6875)"/>
<path d="M0 0 C0.33 0 0.66 0 1 0 C1.44845077 6.27831074 0.86774959 10.87577809 -3 16 C-6.84981185 19.66353063 -10.69922497 21.31510854 -16 21.625 C-21.22251332 21.3666995 -25.06710926 19.38865259 -29 16 C-29.33 15.34 -29.66 14.68 -30 14 C-28.68 14 -27.36 14 -26 14 C-25.67 14.66 -25.34 15.32 -25 16 C-24.01 16.33 -23.02 16.66 -22 17 C-22 17.66 -22 18.32 -22 19 C-16.72684667 18.5547115 -11.98229776 17.91626837 -7 16 C-7 15.01 -7 14.02 -7 13 C-6.38125 12.7525 -5.7625 12.505 -5.125 12.25 C-2.51395104 10.71408885 -1.99900981 9.84333561 -1 7 C-0.61250787 4.67504723 -0.27017161 2.34148732 0 0 Z " fill="#36B7CA" transform="translate(151,132)"/>
<path d="M0 0 C2.6503079 4.5826041 2.51783066 8.82991297 2 14 C0.24772053 18.96479185 -3.04758878 23.49211425 -7 27 C-9.19140625 27.69921875 -9.19140625 27.69921875 -11 28 C-10.34 27.01 -9.68 26.02 -9 25 C-10.98 24.67 -12.96 24.34 -15 24 C-13.21825212 21.69857565 -11.83695835 20.19965609 -8.953125 19.51171875 C-6.9753389 19.27676898 -4.98728128 19.13248542 -3 19 C-1.2100144 12.6753842 -0.45759953 6.5508985 0 0 Z " fill="#C8FAFC" transform="translate(157,128)"/>
<path d="M0 0 C5.50923326 1.3355717 9.05604712 5.35028618 12 10 C12.13343996 13.53615906 11.74156798 15.02247857 9.625 17.8125 C5.61347885 20.74399622 0.74141762 20.58186551 -4 20 C-7.99893591 18.47874755 -10.59444296 16.60833556 -13 13 C-12.01 12.67 -11.02 12.34 -10 12 C-9.67 12.99 -9.34 13.98 -9 15 C-3.69604593 17.80797568 0.37935626 18.76224079 6.375 17.5 C7.179375 17.2525 7.179375 17.2525 8 17 C8.33 14.36 8.66 11.72 9 9 C8.34 9 7.68 9 7 9 C4 5.53846154 4 5.53846154 4 3 C2.68 2.67 1.36 2.34 0 2 C0 1.34 0 0.68 0 0 Z " fill="#2FB3C6" transform="translate(131,67)"/>
<path d="M0 0 C1.7866789 2.68001835 2.9322137 5.03128744 4.125 8 C4.65480469 9.299375 4.65480469 9.299375 5.1953125 10.625 C6 13 6 13 6 16 C5.01 15.34 4.02 14.68 3 14 C3 13.34 3 12.68 3 12 C1.68 11.67 0.36 11.34 -1 11 C-1 11.99 -1 12.98 -1 14 C-1.66 14 -2.32 14 -3 14 C-3 14.66 -3 15.32 -3 16 C-3.66 16 -4.32 16 -5 16 C-4.67 17.32 -4.34 18.64 -4 20 C-5.65 20.33 -7.3 20.66 -9 21 C-8.40251953 19.98292969 -8.40251953 19.98292969 -7.79296875 18.9453125 C-4.27729705 12.76936368 -1.7064753 6.90074663 0 0 Z " fill="#D2FAFA" transform="translate(96,139)"/>
<path d="M0 0 C0.79664063 0.49113281 0.79664063 0.49113281 1.609375 0.9921875 C4.62694157 2.2642989 6.98693023 2.1959363 10.25 2.125 C11.86648437 2.09792969 11.86648437 2.09792969 13.515625 2.0703125 C14.33546875 2.04710938 15.1553125 2.02390625 16 2 C15.67 2.66 15.34 3.32 15 4 C11.7 4 8.4 4 5 4 C5 4.99 5 5.98 5 7 C10.95306793 7.31210259 14.95353647 7.51723216 20 4 C20.99 4.33 21.98 4.66 23 5 C16.60707702 9.50410483 11.75533861 10.78073879 4 10 C1.47992912 9.20902885 -0.63495818 8.20768093 -3 7 C-3 6.67 -3 6.34 -3 6 C-1.35 5.67 0.3 5.34 2 5 C1.34 3.35 0.68 1.7 0 0 Z " fill="#FBE5C7" transform="translate(51,83)"/>
<path d="M0 0 C0.33 0 0.66 0 1 0 C1 1.98 1 3.96 1 6 C0.34 6 -0.32 6 -1 6 C-1.72598342 20.62488664 -1.72598342 20.62488664 3 34 C2.5859375 36.13671875 2.5859375 36.13671875 2 38 C-3.199413 28.29442906 -6.39320384 17.97040932 -3.1015625 7.0078125 C-2.14831418 4.6213114 -1.14081283 2.30199731 0 0 Z " fill="#E49B54" transform="translate(26,42)"/>
<path d="M0 0 C3.3 1.98 6.6 3.96 10 6 C6 7 6 7 4 7 C4 7.66 4 8.32 4 9 C5.32 8.67 6.64 8.34 8 8 C8 8.99 8 9.98 8 11 C8.66 11.33 9.32 11.66 10 12 C5.01662614 11.41372072 3.67695716 10.11797144 -1 7 C-1.33 11.95 -1.66 16.9 -2 22 C-2.33 22 -2.66 22 -3 22 C-3 16.39 -3 10.78 -3 5 C-2.34 4.67 -1.68 4.34 -1 4 C-0.67 2.68 -0.34 1.36 0 0 Z " fill="#CEFDFE" transform="translate(120,146)"/>
<path d="M0 0 C0.66 0 1.32 0 2 0 C3.625 2 3.625 2 5 4 C5.66 3.34 6.32 2.68 7 2 C7.515625 2.7425 8.03125 3.485 8.5625 4.25 C12.30268813 8.46969942 16.94439955 10.57331178 22 13 C22 13.66 22 14.32 22 15 C13.86323784 14.6537548 8.18359771 10.26571171 2.4375 4.75 C0 2 0 2 0 0 Z " fill="#3EB2C1" transform="translate(104,80)"/>
<path d="M0 0 C0 2.31 0 4.62 0 7 C-5.54134881 8.86687153 -10.42270714 9.30731763 -16.25 9.25 C-17.05179688 9.25773437 -17.85359375 9.26546875 -18.6796875 9.2734375 C-22.62092724 9.2602561 -24.65238893 9.23174071 -28 7 C-22.39 7.33 -16.78 7.66 -11 8 C-11 7.01 -11 6.02 -11 5 C-8.41210938 3.92578125 -8.41210938 3.92578125 -5.82421875 2.8515625 C-3.86122938 1.93522057 -2.15867359 0 0 0 Z " fill="#D3965A" transform="translate(75,87)"/>
<path d="M0 0 C2.03654295 2.03654295 2.86522597 3.62830869 4.125 6.1875 C9.13254957 15.25640519 16.60514487 19.25241992 26 23 C23.5237679 23.917123 22.23544481 24.06743897 19.66796875 23.33203125 C16.37596438 21.68843902 13.34176982 19.76304727 10.3125 17.6875 C9.73177734 17.30916016 9.15105469 16.93082031 8.55273438 16.54101562 C4.91814482 14.05772958 3.33996209 12.16319771 2 8 C1.34 7.67 0.68 7.34 0 7 C0 4.69 0 2.38 0 0 Z " fill="#FDEDCD" transform="translate(24,72)"/>
<path d="M0 0 C0.33 0.99 0.66 1.98 1 3 C0.01 3 -0.98 3 -2 3 C-2 3.66 -2 4.32 -2 5 C-3.32 5 -4.64 5 -6 5 C-6.33 5.99 -6.66 6.98 -7 8 C-12.28 8 -17.56 8 -23 8 C-23 7.34 -23 6.68 -23 6 C-25.31 6 -27.62 6 -30 6 C-30.33 5.01 -30.66 4.02 -31 3 C-30.39414063 3.144375 -29.78828125 3.28875 -29.1640625 3.4375 C-18.69611141 5.75655378 -10.74726599 5.90317016 -1 1 C-0.67 0.67 -0.34 0.34 0 0 Z " fill="#26B8CE" transform="translate(151,153)"/>
<path d="M0 0 C0.4125 0.515625 0.825 1.03125 1.25 1.5625 C2.11625 2.2740625 2.11625 2.2740625 3 3 C4.34055176 2.69699857 5.67245161 2.35567423 7 2 C19.5076898 0.86881358 19.5076898 0.86881358 23.6875 4.25 C27.46863057 8.7464796 28.26949482 11.07111386 28 17 C25.69 15.68 23.38 14.36 21 13 C22.32 12.67 23.64 12.34 25 12 C23.71710892 8.04441918 22.57092361 6.15233752 19 4 C16.19116363 3.42770132 16.19116363 3.42770132 13.25 3.3125 C11.77273437 3.21388672 11.77273437 3.21388672 10.265625 3.11328125 C9.14414062 3.05720703 9.14414062 3.05720703 8 3 C7.67 3.66 7.34 4.32 7 5 C4.4375 5.625 4.4375 5.625 2 6 C1.34 4.02 0.68 2.04 0 0 Z " fill="#3AB5CC" transform="translate(47,118)"/>
<path d="M0 0 C4.44132645 2.10378621 7.34312424 4.85527382 10 9 C9.67 9.99 9.34 10.98 9 12 C8.9175 11.38125 8.835 10.7625 8.75 10.125 C8.20052771 7.87612831 8.20052771 7.87612831 6.25 6.875 C5.5075 6.58625 4.765 6.2975 4 6 C3.0925 5.62875 2.185 5.2575 1.25 4.875 C0.5075 4.58625 -0.235 4.2975 -1 4 C-1 3.01 -1 2.02 -1 1 C-3.64 1 -6.28 1 -9 1 C-9 1.66 -9 2.32 -9 3 C-10.0725 3.28875 -11.145 3.5775 -12.25 3.875 C-15.09400364 4.72820109 -17.43508983 5.5636503 -20 7 C-13.91054262 -0.53169728 -9.82062665 -0.86124862 0 0 Z " fill="#2DB6C7" transform="translate(141,120)"/>
<path d="M0 0 C0.33 1.65 0.66 3.3 1 5 C-3.75 4.125 -3.75 4.125 -6 3 C-7.70363822 2.77377919 -9.41328701 2.59111527 -11.125 2.4375 C-12.03507812 2.35371094 -12.94515625 2.26992187 -13.8828125 2.18359375 C-14.58148438 2.12300781 -15.28015625 2.06242187 -16 2 C-16.33 1.01 -16.66 0.02 -17 -1 C-11.35652671 -2.63842773 -5.50311442 -1.83437147 0 0 Z " fill="#F6FDFC" transform="translate(72,116)"/>
<path d="M0 0 C-2 2 -2 2 -4.875 3.3125 C-9.42925389 5.7717971 -12.03519157 9.26430789 -14 14 C-14.90096437 21.42771788 -14.42409826 26.9168649 -10 33 C-11.32 32.34 -12.64 31.68 -14 31 C-14 30.01 -14 29.02 -14 28 C-14.66 28 -15.32 28 -16 28 C-16.59529846 11.06706614 -16.59529846 11.06706614 -13 5 C-9.14668716 1.61375538 -5.29003951 -0.82656867 0 0 Z " fill="#D8914C" transform="translate(56,54)"/>
<path d="M0 0 C0.598125 0.226875 1.19625 0.45375 1.8125 0.6875 C0.8225 1.1825 0.8225 1.1825 -0.1875 1.6875 C-0.1875 5.9775 -0.1875 10.2675 -0.1875 14.6875 C-2.6625 13.6975 -2.6625 13.6975 -5.1875 12.6875 C-5.26871924 11.08417209 -5.32679134 9.47965974 -5.375 7.875 C-5.40980469 6.98167969 -5.44460937 6.08835937 -5.48046875 5.16796875 C-5.1875 2.6875 -5.1875 2.6875 -3.8125 0.84375 C-2.1875 -0.3125 -2.1875 -0.3125 0 0 Z " fill="#F4FDFD" transform="translate(124.1875,43.3125)"/>
<path d="M0 0 C0.99 0 1.98 0 3 0 C3.33 0.99 3.66 1.98 4 3 C0.07173635 5.77675038 -2.53124892 6.34512366 -7.3125 6.1875 C-8.91544922 6.14689453 -8.91544922 6.14689453 -10.55078125 6.10546875 C-11.35902344 6.07066406 -12.16726562 6.03585938 -13 6 C-12.34 5.67 -11.68 5.34 -11 5 C-11 4.01 -11 3.02 -11 2 C-10.28972656 1.93941406 -9.57945313 1.87882812 -8.84765625 1.81640625 C-7.46900391 1.69072266 -7.46900391 1.69072266 -6.0625 1.5625 C-5.14597656 1.48128906 -4.22945312 1.40007812 -3.28515625 1.31640625 C-1.03840268 1.23955024 -1.03840268 1.23955024 0 0 Z " fill="#FDFCF0" transform="translate(67,85)"/>
<path d="M0 0 C0.99 0.33 1.98 0.66 3 1 C4.51867509 4.48548381 3.89568828 8.04790795 3.5625 11.75 C3.46066406 12.92046875 3.35882813 14.0909375 3.25390625 15.296875 C3.17011719 16.18890625 3.08632812 17.0809375 3 18 C2.01 17.67 1.02 17.34 0 17 C0 11.39 0 5.78 0 0 Z " fill="#F8FEFA" transform="translate(153,127)"/>
<path d="M0 0 C0.99 0.33 1.98 0.66 3 1 C2.51789062 1.70125 2.03578125 2.4025 1.5390625 3.125 C-5.74956985 14.07282328 -6.30142911 22.1390245 -6 35 C-8.03120707 31.95318939 -8.24659875 31.39881676 -8.1953125 27.98828125 C-8.18886719 27.23095703 -8.18242187 26.47363281 -8.17578125 25.69335938 C-8.15902344 24.90767578 -8.14226563 24.12199219 -8.125 23.3125 C-8.11597656 22.51521484 -8.10695313 21.71792969 -8.09765625 20.89648438 C-8.07411585 18.930861 -8.03824547 16.96539225 -8 15 C-7.34 15 -6.68 15 -6 15 C-6 13.02 -6 11.04 -6 9 C-5.34 9 -4.68 9 -4 9 C-4 7.68 -4 6.36 -4 5 C-3.34 5 -2.68 5 -2 5 C-2 4.01 -2 3.02 -2 2 C-1.34 2 -0.68 2 0 2 C0 1.34 0 0.68 0 0 Z " fill="#D0FBFE" transform="translate(29,108)"/>
<path d="M0 0 C0.33 0 0.66 0 1 0 C1 16.17 1 32.34 1 49 C-0.65 47.35 -2.3 45.7 -4 44 C-2.68 44.33 -1.36 44.66 0 45 C0 30.15 0 15.3 0 0 Z " fill="#2BB0C6" transform="translate(110,114)"/>
<path d="M0 0 C0.7528125 0.48210937 1.505625 0.96421875 2.28125 1.4609375 C11.12376017 6.71922631 18.78736796 8.35761365 29 9 C29 9.33 29 9.66 29 10 C24.05 10.66 19.1 11.32 14 12 C13.67 11.01 13.34 10.02 13 9 C12.01 9 11.02 9 10 9 C10 8.34 10 7.68 10 7 C9.278125 6.9175 8.55625 6.835 7.8125 6.75 C4.41073132 5.84286169 2.54533916 4.39989121 0 2 C0 1.34 0 0.68 0 0 Z " fill="#CAFBFC" transform="translate(35,162)"/>
<path d="M0 0 C6.75333887 0.35543889 12.99640902 4.03654609 17.75390625 8.73046875 C18.89874795 10.10362646 19.96086304 11.54520826 21 13 C19.125 13.625 19.125 13.625 17 14 C16.34 13.34 15.68 12.68 15 12 C14.484375 11.525625 13.96875 11.05125 13.4375 10.5625 C12 9 12 9 11 6 C8.68745988 4.95281202 6.3514852 3.95653635 4 3 C1.5625 1.3125 1.5625 1.3125 0 0 Z " fill="#33B7CB" transform="translate(68,98)"/>
<path d="M0 0 C4.11786086 1.45336266 7.37985909 3.58657273 11 6 C11.66 6 12.32 6 13 6 C15.71975816 12.49976102 16.21357445 17.04952816 15 24 C14.01 24 13.02 24 12 24 C12.33 23.34 12.66 22.68 13 22 C13.37075539 17.55093528 13.46545377 14.9916189 11.5625 10.9375 C8.62404827 7.56903095 5.42774406 5.048013 1.828125 2.41796875 C1.22484375 1.95003906 0.6215625 1.48210938 0 1 C0 0.67 0 0.34 0 0 Z " fill="#2CB9CD" transform="translate(136,61)"/>
<path d="M0 0 C0.33 0 0.66 0 1 0 C1.50537432 5.30643041 0.30655751 7.86680312 -3 12 C-4.31963709 13.01800576 -5.65009646 14.02248365 -7 15 C-7.33 15.99 -7.66 16.98 -8 18 C-10.31 18.33 -12.62 18.66 -15 19 C-12.87307648 16.87307648 -10.74487952 14.75796262 -8.5625 12.6875 C-4.92215057 8.86957255 -1.68027387 5.04082161 0 0 Z " fill="#CDF9FC" transform="translate(168,73)"/>
<path d="M0 0 C-1.3293874 4.12323366 -2.87450435 6.13827893 -6.3125 8.75 C-7.07175781 9.34296875 -7.83101562 9.9359375 -8.61328125 10.546875 C-11.12595644 12.07668706 -13.10395613 12.61044366 -16 13 C-15.67 12.34 -15.34 11.68 -15 11 C-14.01 11 -13.02 11 -12 11 C-11.773125 10.278125 -11.54625 9.55625 -11.3125 8.8125 C-9.73080282 5.42314891 -7.79885498 3.4575312 -5 1 C-2 0 -2 0 0 0 Z " fill="#27B9CA" transform="translate(164,80)"/>
<path d="M0 0 C0.99 0 1.98 0 3 0 C0.41572645 5.96875363 -4.9674446 10.30132549 -10.8125 13 C-14 14 -14 14 -17 13 C-15.68 12.67 -14.36 12.34 -13 12 C-13 11.34 -13 10.68 -13 10 C-11.2421875 9.0234375 -9.484375 8.046875 -7.7265625 7.0703125 C-5.8387386 5.99102726 -5.8387386 5.99102726 -4 4 C-3.01 4 -2.02 4 -1 4 C-0.67 2.68 -0.34 1.36 0 0 Z " fill="#2AB6CB" transform="translate(161,155)"/>
<path d="M0 0 C3.37086083 3.37086083 3.12877081 6.57419449 3.13671875 11.16015625 C3.13285156 11.93230469 3.12898437 12.70445313 3.125 13.5 C3.12886719 14.27214844 3.13273438 15.04429688 3.13671875 15.83984375 C3.13099051 19.14503737 3.05207501 21.84377498 2 25 C1.01 25 0.02 25 -1 25 C-0.83628906 24.21367188 -0.67257813 23.42734375 -0.50390625 22.6171875 C0.12655771 18.09153151 0.10715524 13.68670432 0.0625 9.125 C0.05798828 8.24585938 0.05347656 7.36671875 0.04882812 6.4609375 C0.03712337 4.30726197 0.01919069 2.15362183 0 0 Z " fill="#C8F9FC" transform="translate(170,47)"/>
<path d="M0 0 C0.804375 0.309375 1.60875 0.61875 2.4375 0.9375 C6.62249087 2.18565517 10.66306101 2.6337696 15 3 C15 3.66 15 4.32 15 5 C7.68949159 5.20059322 0.97562294 5.36907949 -6 3 C-6.66 2.34 -7.32 1.68 -8 1 C-5.36 1.33 -2.72 1.66 0 2 C0 1.34 0 0.68 0 0 Z " fill="#D78C42" transform="translate(49,90)"/>
<path d="M0 0 C1.22602512 3.67807537 0.70295577 5.88243927 0.0625 9.6875 C-0.13214844 10.86699219 -0.32679687 12.04648438 -0.52734375 13.26171875 C-0.68332031 14.16535156 -0.83929688 15.06898437 -1 16 C-1.99 16.33 -2.98 16.66 -4 17 C-4.02712153 15.083412 -4.04645097 13.1667127 -4.0625 11.25 C-4.07410156 10.18265625 -4.08570313 9.1153125 -4.09765625 8.015625 C-3.94533762 3.31202572 -3.94533762 3.31202572 -3 1 C-2.01 0.67 -1.02 0.34 0 0 Z " fill="#FDFCF7" transform="translate(47,63)"/>
<path d="M0 0 C12.82368467 -0.56853774 12.82368467 -0.56853774 19 3 C19.33 3.66 19.66 4.32 20 5 C18.88625 4.67 17.7725 4.34 16.625 4 C9.16054969 2.15040169 2.23378536 2.48390075 -5 5 C-4.67 4.01 -4.34 3.02 -4 2 C-2.68 2 -1.36 2 0 2 C0 1.34 0 0.68 0 0 Z " fill="#22B8CF" transform="translate(128,111)"/>
<path d="M0 0 C4.97631579 4.81578947 4.97631579 4.81578947 5.0625 9.125 C5.041875 10.07375 5.02125 11.0225 5 12 C4.484375 11.731875 3.96875 11.46375 3.4375 11.1875 C-2.61596163 8.23837767 -7.28991609 6.58860385 -14 6 C-14 5.67 -14 5.34 -14 5 C-8.26157749 4.79586639 -3.39460953 4.72858546 2 7 C1.34 4.69 0.68 2.38 0 0 Z " fill="#D69453" transform="translate(70,48)"/>
<path d="M0 0 C4.55484458 4.55484458 5.91700651 6.46869864 6.125 12.8125 C6.08375 13.864375 6.0425 14.91625 6 16 C5.34 15.67 4.68 15.34 4 15 C4 14.34 4 13.68 4 13 C3.01 13 2.02 13 1 13 C0.67 8.71 0.34 4.42 0 0 Z " fill="#0FB8D9" transform="translate(89,112)"/>
<path d="M0 0 C0.66 0 1.32 0 2 0 C2.49361702 7.40425532 2.49361702 7.40425532 0.1875 10.1875 C-0.534375 10.785625 -1.25625 11.38375 -2 12 C-2.495 12.886875 -2.99 13.77375 -3.5 14.6875 C-5 17 -5 17 -7.09375 17.64453125 C-7.7228125 17.76183594 -8.351875 17.87914063 -9 18 C-8.43410156 17.03578125 -7.86820312 16.0715625 -7.28515625 15.078125 C-6.54401311 13.80223301 -5.80314193 12.52618301 -5.0625 11.25 C-4.50272461 10.29867187 -4.50272461 10.29867187 -3.93164062 9.328125 C-2.14463236 6.23708368 -0.75114727 3.48532332 0 0 Z " fill="#FCECD2" transform="translate(95,68)"/>
<path d="M0 0 C0.99 0.495 0.99 0.495 2 1 C2.48283757 2.64871367 2.88621608 4.32099728 3.25 6 C4.7358788 11.88962322 7.34198963 16.20552039 11 21 C9.02 20.67 7.04 20.34 5 20 C4.71125 18.88625 4.4225 17.7725 4.125 16.625 C3.30758671 12.99708908 3.30758671 12.99708908 1 11 C0.5859375 8.3984375 0.5859375 8.3984375 0.375 5.375 C0.30023438 4.37210937 0.22546875 3.36921875 0.1484375 2.3359375 C0.09945312 1.56507812 0.05046875 0.79421875 0 0 Z " fill="#C4F8F7" transform="translate(96,64)"/>
<path d="M0 0 C0.96099609 0.2165625 0.96099609 0.2165625 1.94140625 0.4375 C9.89765637 2.14495159 16.22724576 2.5380422 24 0 C21.12624795 3.32750238 18.29401654 4.7110919 13.921875 5.26171875 C8.08471662 5.54960581 4.8062493 4.27233995 0 1 C0 0.67 0 0.34 0 0 Z " fill="#C5F9FC" transform="translate(48,163)"/>
<path d="M0 0 C2.64 0.33 5.28 0.66 8 1 C8 1.66 8 2.32 8 3 C10.64 3 13.28 3 16 3 C16 3.99 16 4.98 16 6 C14.56344146 6.08131463 13.1255517 6.13933559 11.6875 6.1875 C10.48673828 6.23970703 10.48673828 6.23970703 9.26171875 6.29296875 C6.47940234 5.93256507 5.86786105 4.99343154 4 3 C3.01 3 2.02 3 1 3 C0.67 2.01 0.34 1.02 0 0 Z " fill="#EFFEFE" transform="translate(123,152)"/>
<path d="M0 0 C0.66 0 1.32 0 2 0 C2 0.66 2 1.32 2 2 C2.99 2 3.98 2 5 2 C5 13.22 5 24.44 5 36 C4.67 36 4.34 36 4 36 C3.98541748 35.22922119 3.97083496 34.45844238 3.95581055 33.66430664 C3.88076834 30.12989827 3.78429353 26.59637693 3.6875 23.0625 C3.65366211 21.24395508 3.65366211 21.24395508 3.61914062 19.38867188 C3.40844706 12.32086046 2.64409385 6.57124664 0 0 Z " fill="#DE8A3D" transform="translate(78,46)"/>
<path d="M0 0 C0 0.66 0 1.32 0 2 C-0.99 2 -1.98 2 -3 2 C-3 2.99 -3 3.98 -3 5 C-2.01 5.66 -1.02 6.32 0 7 C-1.65 9.31 -3.3 11.62 -5 14 C-6 10 -6 10 -6 8 C-6.99 8 -7.98 8 -9 8 C-7.47364599 4.11473526 -4.49771687 0 0 0 Z " fill="#FCEFD5" transform="translate(53,56)"/>
<path d="M0 0 C0.33 0 0.66 0 1 0 C1 2.31 1 4.62 1 7 C-2.37097383 8.49821059 -4.20442119 9 -8 9 C-8 8.34 -8 7.68 -8 7 C-8.66 6.67 -9.32 6.34 -10 6 C-9.44570312 5.73445312 -8.89140625 5.46890625 -8.3203125 5.1953125 C-7.59585938 4.84210938 -6.87140625 4.48890625 -6.125 4.125 C-5.40570313 3.77695313 -4.68640625 3.42890625 -3.9453125 3.0703125 C-1.84864981 2.03442457 -1.84864981 2.03442457 0 0 Z " fill="#41B7C7" transform="translate(74,161)"/>
<path d="M0 0 C0.33 0 0.66 0 1 0 C2.0343254 4.30968915 2.42262942 6.25675517 0.1875 10.1875 C-0.8953125 11.5796875 -0.8953125 11.5796875 -2 13 C-2.33 13.721875 -2.66 14.44375 -3 15.1875 C-4.26283598 17.47639021 -5.84693131 18.56462087 -8 20 C-8.66 19.67 -9.32 19.34 -10 19 C-9.61328125 18.55011719 -9.2265625 18.10023438 -8.828125 17.63671875 C-4.4034344 12.17156872 -2.08827138 6.68246843 0 0 Z " fill="#D2FAFD" transform="translate(170,141)"/>
<path d="M0 0 C2.05127844 3.07691766 2.27260872 3.93644999 2.4140625 7.44921875 C2.45273438 8.29677734 2.49140625 9.14433594 2.53125 10.01757812 C2.5621875 10.89865234 2.593125 11.77972656 2.625 12.6875 C2.66367188 13.58017578 2.70234375 14.47285156 2.7421875 15.39257812 C2.83640218 17.5948462 2.92201588 19.79710722 3 22 C-1.24652835 15.63020748 -1.52496934 9.47165669 -1 2 C-0.67 1.34 -0.34 0.68 0 0 Z " fill="#53B5B1" transform="translate(97,51)"/>
<path d="M0 0 C0.99 1.32 1.98 2.64 3 4 C3.70769531 3.83886719 4.41539063 3.67773438 5.14453125 3.51171875 C8.04579581 2.99179309 10.74234913 2.83258971 13.6875 2.8125 C15.11642578 2.79123047 15.11642578 2.79123047 16.57421875 2.76953125 C19 3 19 3 21 5 C10.605 5.495 10.605 5.495 0 6 C-1 2 -1 2 0 0 Z " fill="#E0924A" transform="translate(47,42)"/>
<path d="M0 0 C1.54204102 0.00966797 1.54204102 0.00966797 3.11523438 0.01953125 C4.18708984 0.03628906 5.25894531 0.05304687 6.36328125 0.0703125 C7.44673828 0.07933594 8.53019531 0.08835937 9.64648438 0.09765625 C12.32313835 0.1212391 14.99934922 0.15415124 17.67578125 0.1953125 C17.67578125 0.8553125 17.67578125 1.5153125 17.67578125 2.1953125 C18.99578125 2.1953125 20.31578125 2.1953125 21.67578125 2.1953125 C21.67578125 2.8553125 21.67578125 3.5153125 21.67578125 4.1953125 C20.47953125 3.8653125 19.28328125 3.5353125 18.05078125 3.1953125 C9.43876464 1.2875873 -0.00939413 1.02776026 -8.32421875 4.1953125 C-8.32421875 3.5353125 -8.32421875 2.8753125 -8.32421875 2.1953125 C-4.97302356 -0.03881763 -3.90644325 -0.04316512 0 0 Z " fill="#FDF1D4" transform="translate(53.32421875,20.8046875)"/>
<path d="M0 0 C2 0.6875 2 0.6875 4 2.6875 C4.125 5.8125 4.125 5.8125 4 8.6875 C0.67689517 7.51992263 -1.83361132 6.53801143 -4 3.6875 C-4 2.6975 -4 1.7075 -4 0.6875 C-2 -0.3125 -2 -0.3125 0 0 Z " fill="#E2FCFE" transform="translate(117,80.3125)"/>
<path d="M0 0 C-1.485 1.485 -1.485 1.485 -3 3 C2.61 3 8.22 3 14 3 C14 3.66 14 4.32 14 5 C13.11957031 4.98839844 12.23914063 4.97679687 11.33203125 4.96484375 C10.17058594 4.95582031 9.00914063 4.94679688 7.8125 4.9375 C6.66394531 4.92589844 5.51539063 4.91429687 4.33203125 4.90234375 C1.40699414 4.98807168 -1.16316291 5.32150977 -4 6 C-6 3 -6 3 -6 0 C-3.50907189 -1.24546405 -2.58919267 -0.7767578 0 0 Z " fill="#FEE9C4" transform="translate(54,41)"/>
<path d="M0 0 C6.46895441 3.55623148 11.61928139 8.7207933 14.5 15.5625 C14.665 16.366875 14.83 17.17125 15 18 C14.01 17.34 13.02 16.68 12 16 C12 15.01 12 14.02 12 13 C11.34 13 10.68 13 10 13 C10 12.34 10 11.68 10 11 C9.01 10.67 8.02 10.34 7 10 C7 9.34 7 8.68 7 8 C6.34 8 5.68 8 5 8 C5 7.01 5 6.02 5 5 C4.34 5 3.68 5 3 5 C3 4.34 3 3.68 3 3 C2.01 2.67 1.02 2.34 0 2 C0 1.34 0 0.68 0 0 Z " fill="#DF8E46" transform="translate(79,28)"/>
<path d="M0 0 C0.639375 0.66 1.27875 1.32 1.9375 2 C5.97278721 4.63528961 9.2897723 4.5936444 14 4 C14.33 3.67 14.66 3.34 15 3 C16.66617115 2.95936168 18.33388095 2.957279 20 3 C18.23456987 5.56789838 16.81239021 6.84280806 13.71875 7.44140625 C9.21817647 7.65152339 5.96996361 7.50953033 2.375 4.625 C0 2 0 2 0 0 Z " fill="#DF8B42" transform="translate(49,79)"/>
<path d="M0 0 C5.91917378 5.76740009 5.91917378 5.76740009 6.25 10.8125 C6.2222274 14.62428913 5.32100312 16.90532917 3 20 C2.4375 18.0625 2.4375 18.0625 2 16 C2.33 15.67 2.66 15.34 3 15 C3.41545527 9.7029453 2.57006141 6.60469335 0 2 C0 1.34 0 0.68 0 0 Z " fill="#C9FBFD" transform="translate(144,68)"/>
<path d="M0 0 C3.875 2.625 3.875 2.625 5 6 C5.37290034 11.03415457 4.98878273 13.89042374 2 18 C1.34 17.01 0.68 16.02 0 15 C0.99 15 1.98 15 3 15 C2.52231159 10.86003381 1.90409217 7.68124487 0 4 C0 2.68 0 1.36 0 0 Z " fill="#DB8F44" transform="translate(68,64)"/>
<path d="M0 0 C0.99 0.33 1.98 0.66 3 1 C3.98248524 5.0527516 4.08159574 8.83861737 4 13 C3.01 12.67 2.02 12.34 1 12 C0.05078125 9.71484375 0.05078125 9.71484375 -0.6875 6.9375 C-0.93886719 6.01839844 -1.19023438 5.09929688 -1.44921875 4.15234375 C-1.63097656 3.44207031 -1.81273438 2.73179688 -2 2 C-1.34 1.34 -0.68 0.68 0 0 Z " fill="#FDFCF0" transform="translate(76,47)"/>
<path d="M0 0 C-1.75 5.75 -1.75 5.75 -4 8 C-4.61875 8.12375 -5.2375 8.2475 -5.875 8.375 C-8.7157757 9.21052226 -10.04507731 10.83562131 -12 13 C-10.24177682 7.87184906 -6.24541902 0 0 0 Z " fill="#E28F46" transform="translate(39,29)"/>
<path d="M0 0 C1.00836914 -0.05607422 1.00836914 -0.05607422 2.03710938 -0.11328125 C4.00390625 -0.1484375 4.00390625 -0.1484375 7.4375 0.375 C9.83786753 3.22871726 10.4375 4.64148559 10.4375 8.375 C7.4675 7.88 7.4675 7.88 4.4375 7.375 C5.4275 6.385 6.4175 5.395 7.4375 4.375 C7.1075 3.715 6.7775 3.055 6.4375 2.375 C4.31256859 2.34806425 2.18754088 2.32863372 0.0625 2.3125 C-1.71253906 2.29509766 -1.71253906 2.29509766 -3.5234375 2.27734375 C-6.48171521 2.16033407 -6.48171521 2.16033407 -8.5625 3.375 C-9.5525 2.715 -10.5425 2.055 -11.5625 1.375 C-7.73932711 0.18209184 -3.98579896 0.10130085 0 0 Z " fill="#E9832D" transform="translate(61.5625,46.625)"/>
<path d="M0 0 C6.27 0.33 12.54 0.66 19 1 C18.67 1.66 18.34 2.32 18 3 C15.56183415 3.0809723 13.12635616 3.14046972 10.6875 3.1875 C9.65206055 3.22520508 9.65206055 3.22520508 8.59570312 3.26367188 C6.57421875 3.29296875 6.57421875 3.29296875 3 3 C2.01 2.01 1.02 1.02 0 0 Z " fill="#D4FDFE" transform="translate(123,170)"/>
<path d="M0 0 C0 3 0 3 -1.875 5.625 C-4.42546068 9.67573167 -5.21224561 13.33566482 -6 18 C-6.99 18 -7.98 18 -9 18 C-8.46806801 11.08488415 -5.08698114 4.68537736 0 0 Z " fill="#33B7C2" transform="translate(107,108)"/>
<path d="M0 0 C5.48642085 1.33004142 9.09378953 5.34316424 12 10 C11.9375 13.5 11.9375 13.5 11 16 C10.67 16 10.34 16 10 16 C9.67 13.69 9.34 11.38 9 9 C8.34 9 7.68 9 7 9 C4 5.53846154 4 5.53846154 4 3 C2.68 2.67 1.36 2.34 0 2 C0 1.34 0 0.68 0 0 Z " fill="#3BBACB" transform="translate(131,67)"/>
<path d="M0 0 C1.7074998 1.28062485 3.37373596 2.61767557 5 4 C5 4.66 5 5.32 5 6 C2.83409519 7.31501363 1.49878708 8.03022952 -1.0625 7.875 C-3.55376366 6.74991319 -4.53725191 5.26725953 -6 3 C-5.01 2.67 -4.02 2.34 -3 2 C-3 2.66 -3 3.32 -3 4 C-2.01 4 -1.02 4 0 4 C0 2.68 0 1.36 0 0 Z " fill="#C3F9FC" transform="translate(144,42)"/>
<path d="M0 0 C0.99 0 1.98 0 3 0 C1.14086809 6.89835786 -1.79515783 12.24385683 -6 18 C-6.33 17.01 -6.66 16.02 -7 15 C-5.67744688 13.32476605 -4.34294481 11.65893182 -3 10 C-2.21053391 7.31492671 -2.21053391 7.31492671 -2 5 C-1.67 5 -1.34 5 -1 5 C-0.67 3.35 -0.34 1.7 0 0 Z " fill="#32BBCE" transform="translate(93,142)"/>
<path d="M0 0 C0.66 0.33 1.32 0.66 2 1 C1.34 2.32 0.68 3.64 0 5 C0.99 5.33 1.98 5.66 3 6 C0.69 7.98 -1.62 9.96 -4 12 C-4 8 -4 8 -2 6 C-2.66 5.34 -3.32 4.68 -4 4 C-2.68 2.68 -1.36 1.36 0 0 Z " fill="#CBFAFA" transform="translate(123,116)"/>
<path d="M0 0 C1.63940358 2.903522 2.24782959 5.12114171 2.4375 8.4375 C2.78040678 12.38416295 3.884335 14.63416933 6 18 C5.5859375 20.13671875 5.5859375 20.13671875 5 22 C4.3490741 20.75264433 3.70448331 19.50198168 3.0625 18.25 C2.70285156 17.55390625 2.34320312 16.8578125 1.97265625 16.140625 C0.21213531 12.26606486 -0.11831607 8.99202098 -0.0625 4.75 C-0.05347656 3.85796875 -0.04445313 2.9659375 -0.03515625 2.046875 C-0.02355469 1.37140625 -0.01195313 0.6959375 0 0 Z " fill="#DB8C45" transform="translate(23,58)"/>
<path d="M0 0 C0.66 0 1.32 0 2 0 C3.625 2 3.625 2 5 4 C5.66 3.34 6.32 2.68 7 2 C8.32 3.98 9.64 5.96 11 8 C10.01 8.66 9.02 9.32 8 10 C6.66070495 8.71451591 5.32871357 7.42141845 4 6.125 C2.88625 5.04605469 2.88625 5.04605469 1.75 3.9453125 C0 2 0 2 0 0 Z " fill="#2FB4C8" transform="translate(104,80)"/>
<path d="M0 0 C4.29 0.33 8.58 0.66 13 1 C13 1.66 13 2.32 13 3 C8.05632546 4.20577428 4.79137588 3.6290678 0 2 C0 1.34 0 0.68 0 0 Z " fill="#FAFDFD" transform="translate(51,162)"/>
<path d="M0 0 C1.32 1.65 2.64 3.3 4 5 C2.02 7.97 2.02 7.97 0 11 C-1 8 -1 8 -0.0625 5.8125 C0.288125 5.214375 0.63875 4.61625 1 4 C-2.12197478 5.3089572 -2.12197478 5.3089572 -4 8 C-4.66 7.67 -5.32 7.34 -6 7 C-2.25 1.125 -2.25 1.125 0 0 Z " fill="#C5F8FC" transform="translate(49,132)"/>
<path d="M0 0 C1.43861294 0.08746284 2.87597508 0.19565348 4.3125 0.3125 C5.11300781 0.37050781 5.91351563 0.42851563 6.73828125 0.48828125 C9.36272334 1.08206694 10.30820672 1.95780294 12 4 C9.4137465 5.29312675 8.23583025 4.84290464 5.4375 4.25 C4.63183594 4.09015625 3.82617188 3.9303125 2.99609375 3.765625 C2.00802734 3.38664062 2.00802734 3.38664062 1 3 C0.67 2.01 0.34 1.02 0 0 Z " fill="#1AB9CE" transform="translate(137,97)"/>
<path d="M0 0 C2.375 0.1875 2.375 0.1875 5 1 C6.1875 3.5 6.1875 3.5 7 6 C7.66 6.33 8.32 6.66 9 7 C9.6328125 9.06640625 9.6328125 9.06640625 10.125 11.5625 C10.29257813 12.38878906 10.46015625 13.21507812 10.6328125 14.06640625 C10.75398437 14.70449219 10.87515625 15.34257813 11 16 C8.87101449 13.2100757 6.87375559 10.36416766 4.9375 7.4375 C4.43089844 6.67308594 3.92429688 5.90867187 3.40234375 5.12109375 C2.70818359 4.07115234 2.70818359 4.07115234 2 3 C1.34 2.01 0.68 1.02 0 0 Z " fill="#CAFBFD" transform="translate(159,31)"/>
<path d="M0 0 C0.33 0.66 0.66 1.32 1 2 C-2.67192138 6.2282731 -5.46798751 7.99417955 -11 9 C-13.21484375 8.5390625 -13.21484375 8.5390625 -15 8 C-14.33613281 7.75765625 -13.67226562 7.5153125 -12.98828125 7.265625 C-8.04268244 5.38846341 -3.92869187 3.66677907 0 0 Z " fill="#C4F6FA" transform="translate(159,161)"/>
<path d="M0 0 C0.89203125 0.00902344 1.7840625 0.01804688 2.703125 0.02734375 C3.37859375 0.03894531 4.0540625 0.05054688 4.75 0.0625 C5.08 1.3825 5.41 2.7025 5.75 4.0625 C4.76 3.7325 3.77 3.4025 2.75 3.0625 C0.68854893 2.993509 -1.37501401 2.97782273 -3.4375 3 C-4.52417969 3.00902344 -5.61085937 3.01804688 -6.73046875 3.02734375 C-7.56191406 3.03894531 -8.39335938 3.05054688 -9.25 3.0625 C-9.25 2.4025 -9.25 1.7425 -9.25 1.0625 C-6.09493858 0.12630187 -3.28413498 -0.0432123 0 0 Z " fill="#CBF8F8" transform="translate(62.25,133.9375)"/>
<path d="M0 0 C-6.61654135 4.66165414 -6.61654135 4.66165414 -10 5 C-12.25 4.5625 -12.25 4.5625 -14 4 C-4.07079646 -2.03539823 -4.07079646 -2.03539823 0 0 Z " fill="#33BCCC" transform="translate(128,98)"/>
<path d="M0 0 C2.4330166 0.36724779 3.65900647 0.5756525 5.23046875 2.53125 C7.73337543 7.6800866 8.73550284 12.28686138 9 18 C6 12 3 6 0 0 Z " fill="#FDEED2" transform="translate(88,35)"/>
<path d="M0 0 C1.2065625 0.0309375 1.2065625 0.0309375 2.4375 0.0625 C2.4375 2.72916667 2.4375 5.39583333 2.4375 8.0625 C1.7775 8.0625 1.1175 8.0625 0.4375 8.0625 C0.4375 7.4025 0.4375 6.7425 0.4375 6.0625 C-0.2225 6.0625 -0.8825 6.0625 -1.5625 6.0625 C-1.8925 6.7225 -2.2225 7.3825 -2.5625 8.0625 C-2.94313221 5.7364143 -3.27519945 3.40194736 -3.5625 1.0625 C-2.5625 0.0625 -2.5625 0.0625 0 0 Z " fill="#A3A3A3" transform="translate(178.5625,23.9375)"/>
<path d="M0 0 C1.89492188 0.01353516 1.89492188 0.01353516 3.828125 0.02734375 C4.79234375 0.03894531 5.7565625 0.05054687 6.75 0.0625 C6.75 0.3925 6.75 0.7225 6.75 1.0625 C6.03972656 1.12308594 5.32945313 1.18367188 4.59765625 1.24609375 C3.67855469 1.32988281 2.75945313 1.41367187 1.8125 1.5 C0.89597656 1.58121094 -0.02054688 1.66242187 -0.96484375 1.74609375 C-3.21159732 1.82294976 -3.21159732 1.82294976 -4.25 3.0625 C-5.76928038 3.13429964 -7.29167482 3.14642007 -8.8125 3.125 C-9.63878906 3.11597656 -10.46507812 3.10695313 -11.31640625 3.09765625 C-11.95449219 3.08605469 -12.59257813 3.07445312 -13.25 3.0625 C-9.46545136 -0.72204864 -5.14534429 -0.04764208 0 0 Z " fill="#DF9854" transform="translate(59.25,21.9375)"/>
<path d="M0 0 C3.2788016 0.29045602 4.62326801 0.55870873 6.80078125 3.109375 C7.29964844 3.98078125 7.79851562 4.8521875 8.3125 5.75 C8.82425781 6.61109375 9.33601562 7.4721875 9.86328125 8.359375 C11.06403008 11.14874343 11.23205096 12.99952713 11 16 C10.7525 15.484375 10.505 14.96875 10.25 14.4375 C7.31980001 8.72361002 4.72702197 4.33310348 0 0 Z " fill="#3CBBD2" transform="translate(148,116)"/>
<path d="M0 0 C5.67177385 -0.45374191 8.5975268 0.34916857 13 4 C13 4.66 13 5.32 13 6 C13.66 6 14.32 6 15 6 C14.67 6.66 14.34 7.32 14 8 C13.32453125 7.59007812 12.6490625 7.18015625 11.953125 6.7578125 C11.06109375 6.21898437 10.1690625 5.68015625 9.25 5.125 C8.36828125 4.59132813 7.4865625 4.05765625 6.578125 3.5078125 C4.41725907 2.24403334 2.25429605 1.08501165 0 0 Z " fill="#C9F8FB" transform="translate(144,23)"/>
<path d="M0 0 C-1.15173355 2.46800047 -2.04783565 4.04783565 -4 6 C-6.6015625 6.1953125 -6.6015625 6.1953125 -9.625 6.125 C-11.12933594 6.09792969 -11.12933594 6.09792969 -12.6640625 6.0703125 C-13.43492188 6.04710937 -14.20578125 6.02390625 -15 6 C-15 5.67 -15 5.34 -15 5 C-12.36 5 -9.72 5 -7 5 C-7 4.34 -7 3.68 -7 3 C-2.61538462 0 -2.61538462 0 0 0 Z " fill="#23B7C8" transform="translate(71,154)"/>
<path d="M0 0 C0.4125 0.515625 0.825 1.03125 1.25 1.5625 C2.11625 2.2740625 2.11625 2.2740625 3 3 C4.33751432 2.68386025 5.66994398 2.34617896 7 2 C9.08234592 1.93256652 11.16668557 1.91485528 13.25 1.9375 C14.32765625 1.94652344 15.4053125 1.95554687 16.515625 1.96484375 C17.33546875 1.97644531 18.1553125 1.98804687 19 2 C19 2.33 19 2.66 19 3 C15.37 3 11.74 3 8 3 C7.67 3.66 7.34 4.32 7 5 C4.4375 5.625 4.4375 5.625 2 6 C1.34 4.02 0.68 2.04 0 0 Z " fill="#2CB7CA" transform="translate(47,118)"/>
<path d="M0 0 C2.31 0 4.62 0 7 0 C7 0.66 7 1.32 7 2 C5.35 2.33 3.7 2.66 2 3 C2 3.66 2 4.32 2 5 C0.68 5 -0.64 5 -2 5 C-1.34 3.35 -0.68 1.7 0 0 Z " fill="#EEFEF8" transform="translate(125,116)"/>
<path d="M0 0 C2.97 1.65 5.94 3.3 9 5 C9 5.33 9 5.66 9 6 C6.69 6.33 4.38 6.66 2 7 C2 6.34 2 5.68 2 5 C1.34 5 0.68 5 0 5 C0 3.35 0 1.7 0 0 Z " fill="#D3FBFB" transform="translate(110,88)"/>
<path d="M0 0 C1.98 0.99 1.98 0.99 4 2 C4 2.66 4 3.32 4 4 C5.32 4.33 6.64 4.66 8 5 C8 5.99 8 6.98 8 8 C9.32 8.66 10.64 9.32 12 10 C8.28053558 10 7.59485764 9.11128458 4.875 6.6875 C4.17117187 6.07261719 3.46734375 5.45773438 2.7421875 4.82421875 C1 3 1 3 0 0 Z " fill="#DC904E" transform="translate(29,80)"/>
<path d="M0 0 C1.65 1.65 3.3 3.3 5 5 C3.68 5 2.36 5 1 5 C0.67 3.35 0.34 1.7 0 0 Z M-6 3 C-3.69 3.66 -1.38 4.32 1 5 C1 6.98 1 8.96 1 11 C0.401875 10.236875 -0.19625 9.47375 -0.8125 8.6875 C-2.46959332 6.6516425 -4.10297674 4.8021721 -6 3 Z " fill="#FDE9CC" transform="translate(74,43)"/>
<path d="M0 0 C7.38461538 0.49230769 7.38461538 0.49230769 10.5 3.0625 C10.995 3.701875 11.49 4.34125 12 5 C11.67 5.99 11.34 6.98 11 8 C10.113125 7.21625 9.22625 6.4325 8.3125 5.625 C5.69279481 3.42843009 3.28284399 2.06209659 0 1 C0 0.67 0 0.34 0 0 Z " fill="#E3934A" transform="translate(66,38)"/>
<path d="M0 0 C3.465 1.98 3.465 1.98 7 4 C4 5 4 5 2 5 C1.67 8.63 1.34 12.26 1 16 C0.67 16 0.34 16 0 16 C0 10.72 0 5.44 0 0 Z " fill="#42B4C6" transform="translate(118,152)"/>
<path d="M0 0 C0.99 0.66 1.98 1.32 3 2 C2.34 2 1.68 2 1 2 C1 2.66 1 3.32 1 4 C0.34 4 -0.32 4 -1 4 C-1.33 8.95 -1.66 13.9 -2 19 C-2.33 19 -2.66 19 -3 19 C-3.08071788 16.20775927 -3.14035408 13.41783434 -3.1875 10.625 C-3.21263672 9.8309375 -3.23777344 9.036875 -3.26367188 8.21875 C-3.29004405 6.14413852 -3.15486462 4.06899135 -3 2 C-2.01 1.34 -1.02 0.68 0 0 Z " fill="#D8FDFE" transform="translate(120,149)"/>
<path d="M0 0 C1.18851563 0.00902344 2.37703125 0.01804687 3.6015625 0.02734375 C4.51679687 0.03894531 5.43203125 0.05054687 6.375 0.0625 C6.375 0.3925 6.375 0.7225 6.375 1.0625 C5.55515625 1.18367187 4.7353125 1.30484375 3.890625 1.4296875 C2.81296875 1.59726563 1.7353125 1.76484375 0.625 1.9375 C-0.97601563 2.18113281 -0.97601563 2.18113281 -2.609375 2.4296875 C-5.30208871 2.99473882 -7.26072439 3.69672914 -9.625 5.0625 C-10.285 4.4025 -10.945 3.7425 -11.625 3.0625 C-10.635 3.0625 -9.645 3.0625 -8.625 3.0625 C-8.625 2.4025 -8.625 1.7425 -8.625 1.0625 C-5.74084117 -0.37957941 -3.20778472 -0.03144887 0 0 Z " fill="#30B4CA" transform="translate(57.625,127.9375)"/>
<path d="M0 0 C2 1 2 1 2.66796875 2.92578125 C2.83941406 3.71339844 3.01085937 4.50101563 3.1875 5.3125 C3.36667969 6.09238281 3.54585938 6.87226563 3.73046875 7.67578125 C4.01067443 10.09204759 3.74132137 11.70242952 3 14 C-0.00559652 8.99067246 -0.29341888 5.67276511 0 0 Z " fill="#2EBBCF" transform="translate(98,138)"/>
<path d="M0 0 C0.33 0 0.66 0 1 0 C1 2.97 1 5.94 1 9 C-2.3 9 -5.6 9 -9 9 C-5.71299843 7.35649921 -3.52069985 6.58678331 0 6 C0 4.02 0 2.04 0 0 Z " fill="#CAF9FB" transform="translate(75,162)"/>
<path d="M0 0 C3.8665284 3.222107 4.88059018 6.14922412 6 11 C1.77202073 8.00518135 1.77202073 8.00518135 0 6 C-0.375 2.6875 -0.375 2.6875 0 0 Z " fill="#32BAC7" transform="translate(89,112)"/>
<path d="M0 0 C0.66 0 1.32 0 2 0 C2 1.65 2 3.3 2 5 C-1.78187881 6.83691257 -3.94568308 7.15837626 -8 6 C-8 5.67 -8 5.34 -8 5 C-5.03 4.34 -2.06 3.68 1 3 C0.67 2.01 0.34 1.02 0 0 Z " fill="#25B9CF" transform="translate(148,45)"/>
<path d="M0 0 C1.74216797 0.02707031 1.74216797 0.02707031 3.51953125 0.0546875 C4.39996094 0.07789063 5.28039062 0.10109375 6.1875 0.125 C6.1875 0.455 6.1875 0.785 6.1875 1.125 C5.5584375 1.17398438 4.929375 1.22296875 4.28125 1.2734375 C-1.28163314 1.75935199 -6.43243052 2.63053626 -11.8125 4.125 C-11.8125 3.465 -11.8125 2.805 -11.8125 2.125 C-7.73526266 0.17468308 -4.49557578 -0.09081971 0 0 Z " fill="#DE8E49" transform="translate(59.8125,36.875)"/>
<path d="M0 0 C6.15234375 0.5859375 6.15234375 0.5859375 8 1 C8.33 1.66 8.66 2.32 9 3 C5.37 3 1.74 3 -2 3 C-1.34 2.01 -0.68 1.02 0 0 Z " fill="#F4FDFA" transform="translate(58,131)"/>
<path d="M0 0 C2.375 0.25 2.375 0.25 5 1 C6.3125 3.0625 6.3125 3.0625 7 5 C5.02 5 3.04 5 1 5 C0.67 3.35 0.34 1.7 0 0 Z " fill="#FEFBF4" transform="translate(47,84)"/>
<path d="M0 0 C0.99 0.495 0.99 0.495 2 1 C4.38056989 8.64288227 4.38056989 8.64288227 3 13 C0.41073669 10.41073669 0.62601957 8.97294721 0.375 5.375 C0.30023438 4.37210937 0.22546875 3.36921875 0.1484375 2.3359375 C0.09945312 1.56507812 0.05046875 0.79421875 0 0 Z " fill="#C6F2EC" transform="translate(96,64)"/>
<path d="M0 0 C0.66 0 1.32 0 2 0 C2 2.31 2 4.62 2 7 C3.65 7 5.3 7 7 7 C7 7.33 7 7.66 7 8 C4.125 8.1875 4.125 8.1875 1 8 C-1 5 -1 5 -0.625 2.3125 C-0.41875 1.549375 -0.2125 0.78625 0 0 Z " fill="#C1C1C1" transform="translate(174,26)"/>
<path d="M0 0 C3 3 6 6 9 9 C7.02 9 5.04 9 3 9 C2.01 6.03 1.02 3.06 0 0 Z " fill="#CFFBFB" transform="translate(103,155)"/>
<path d="M0 0 C0.33 0 0.66 0 1 0 C1.46450943 6.50313209 0.32575612 10.4174808 -3 16 C-3.5859375 14.14453125 -3.5859375 14.14453125 -4 12 C-3.00664799 10.32936253 -2.00568242 8.66324401 -1 7 C-0.28076792 3.30476048 -0.28076792 3.30476048 0 0 Z " fill="#3CBCCB" transform="translate(151,132)"/>
<path d="M0 0 C-0.66 1.65 -1.32 3.3 -2 5 C-3.65 5 -5.3 5 -7 5 C-6.6875 3.0625 -6.6875 3.0625 -6 1 C-3 0 -3 0 0 0 Z " fill="#F9FDFA" transform="translate(56,57)"/>
<path d="M0 0 C-1.45449401 1.0055761 -2.91372443 2.00430435 -4.375 3 C-5.59316406 3.8353125 -5.59316406 3.8353125 -6.8359375 4.6875 C-9 6 -9 6 -11 6 C-11 5.01 -11 4.02 -11 3 C-10.01 3 -9.02 3 -8 3 C-8 2.34 -8 1.68 -8 1 C-4.85571151 -0.9090323 -3.47925125 -1.04523725 0 0 Z " fill="#FDEAC9" transform="translate(44,26)"/>
<path d="M0 0 C0.99 0 1.98 0 3 0 C2.42655063 2.86724686 2.1385485 3.8614515 0 6 C-3.125 6.125 -3.125 6.125 -6 6 C-4.04783565 4.04783565 -2.46800047 3.15173355 0 2 C0 1.34 0 0.68 0 0 Z " fill="#1CB8CD" transform="translate(144,145)"/>
<path d="M0 0 C0.33 0 0.66 0 1 0 C2.34516765 6.35897436 2.34516765 6.35897436 0.6875 9.4375 C-1 11 -1 11 -3 11 C-2.01 7.37 -1.02 3.74 0 0 Z " fill="#C2F4F8" transform="translate(170,141)"/>
<path d="M0 0 C2.12508244 3.18762365 2.5020163 5.26512223 3 9 C1.35 9.33 -0.3 9.66 -2 10 C-1.34 6.7 -0.68 3.4 0 0 Z " fill="#BEFCFE" transform="translate(96,139)"/>
<path d="M0 0 C4.95 0.99 4.95 0.99 10 2 C6.77208445 4.1519437 5.71599191 4.20086443 2 4 C2 3.01 2 2.02 2 1 C1.34 0.67 0.68 0.34 0 0 Z " fill="#B5FAFD" transform="translate(119,94)"/>
<path d="M0 0 C1 2 1 2 0.375 4.5625 C-1 7 -1 7 -3.625 7.8125 C-4.40875 7.874375 -5.1925 7.93625 -6 8 C-5.525625 7.5875 -5.05125 7.175 -4.5625 6.75 C-2.82060046 4.79907252 -2.58221635 3.49521294 -2 1 C-1.34 0.67 -0.68 0.34 0 0 Z " fill="#0BBCD4" transform="translate(150,85)"/>
<path d="M0 0 C2.475 0.495 2.475 0.495 5 1 C5.66 3.97 6.32 6.94 7 10 C4.3513141 6.80331012 2.06007659 3.60513403 0 0 Z " fill="#CCFAFD" transform="translate(162,109)"/>
<path d="M0 0 C2.875 0.25 2.875 0.25 6 1 C7.375 3.0625 7.375 3.0625 8 5 C6.68 5 5.36 5 4 5 C3.34 4.34 2.68 3.68 2 3 C1.34 2.67 0.68 2.34 0 2 C0 1.34 0 0.68 0 0 Z " fill="#1ABAD0" transform="translate(81,107)"/>
<path d="M0 0 C0 0.66 0 1.32 0 2 C-0.66 2 -1.32 2 -2 2 C-2 2.66 -2 3.32 -2 4 C-4.64 3.67 -7.28 3.34 -10 3 C-6.71687741 1.24118433 -3.76143005 0 0 0 Z " fill="#ACF5FA" transform="translate(148,94)"/>
<path d="M0 0 C1.32 0.33 2.64 0.66 4 1 C4.0825 1.61875 4.165 2.2375 4.25 2.875 C4.81258459 5.18437567 4.81258459 5.18437567 7.0625 6.25 C7.701875 6.4975 8.34125 6.745 9 7 C4.68381834 7 3.07210341 4.86729652 0 2 C0 1.34 0 0.68 0 0 Z " fill="#B9F8FC" transform="translate(111,82)"/>
<path d="M0 0 C-2.43902524 2.43902524 -4.86352319 3.59178592 -8 5 C-8.99 5 -9.98 5 -11 5 C-7.95765678 0.43648516 -5.38704732 -0.29928041 0 0 Z " fill="#E29552" transform="translate(56,54)"/>
<path d="M0 0 C0.99 0.66 1.98 1.32 3 2 C1.35 4.64 -0.3 7.28 -2 10 C-3.19156292 5.23374833 -2.3415946 4.12120649 0 0 Z " fill="#FDEFD3" transform="translate(28,34)"/>
<path d="M0 0 C0.66 0 1.32 0 2 0 C1.979375 1.2375 1.95875 2.475 1.9375 3.75 C1.93233319 6.6640825 2.06984442 9.20953327 3 12 C2.01 11.67 1.02 11.34 0 11 C0 7.37 0 3.74 0 0 Z " fill="#CBFAFC" transform="translate(46,144)"/>
<path d="M0 0 C2.25 0.25 2.25 0.25 4 1 C2.8125 2.5 2.8125 2.5 1 4 C-1.6875 4.1875 -1.6875 4.1875 -4 4 C-2.25 1.9375 -2.25 1.9375 0 0 Z " fill="#F1FEFB" transform="translate(145,152)"/>
<path d="M0 0 C1.9375 0.6875 1.9375 0.6875 4 2 C4.75 4.625 4.75 4.625 5 7 C3.02 5.35 1.04 3.7 -1 2 C-0.67 1.34 -0.34 0.68 0 0 Z " fill="#C4F6FB" transform="translate(157,102)"/>
<path d="M0 0 C2.475 0.495 2.475 0.495 5 1 C5 1.99 5 2.98 5 4 C3.35 4 1.7 4 0 4 C0 2.68 0 1.36 0 0 Z " fill="#F0FDFA" transform="translate(126,59)"/>
<path d="M0 0 C-0.33 0.99 -0.66 1.98 -1 3 C-4.0625 4.1875 -4.0625 4.1875 -7 5 C-7.33 3.68 -7.66 2.36 -8 1 C-2.25 0 -2.25 0 0 0 Z " fill="#E5FDFC" transform="translate(150,169)"/>
<path d="M0 0 C2.64 0.33 5.28 0.66 8 1 C8 1.99 8 2.98 8 4 C8.66 4.33 9.32 4.66 10 5 C6.05140217 4.4359146 3.29120954 3.2568294 0 1 C0 0.67 0 0.34 0 0 Z " fill="#BEF7FA" transform="translate(120,153)"/>
<path d="M0 0 C1.32 0 2.64 0 4 0 C4.66 1.98 5.32 3.96 6 6 C5.01 6 4.02 6 3 6 C2.01 4.02 1.02 2.04 0 0 Z " fill="#21BACA" transform="translate(102,152)"/>
<path d="M0 0 C0 1.98 0 3.96 0 6 C-3.465 4.02 -3.465 4.02 -7 2 C-6.38125 1.855625 -5.7625 1.71125 -5.125 1.5625 C-3.39532363 1.10464449 -1.74950101 0 0 0 Z " fill="#4CB7C2" transform="translate(75,129)"/>
<path d="M0 0 C1.33332095 2.6666419 0.67102033 4.16680303 0 7 C-0.99 7 -1.98 7 -3 7 C-2.625 4.0625 -2.625 4.0625 -2 1 C-1.34 0.67 -0.68 0.34 0 0 Z " fill="#29B9CF" transform="translate(101,119)"/>
<path d="M0 0 C2.64 0.33 5.28 0.66 8 1 C7.67 2.32 7.34 3.64 7 5 C3.535 3.02 3.535 3.02 0 1 C0 0.67 0 0.34 0 0 Z " fill="#CCF9F9" transform="translate(76,100)"/>
<path d="M0 0 C0.93065133 2.60582371 1.14917407 3.64198224 0.0625 6.25 C-0.4634375 7.11625 -0.4634375 7.11625 -1 8 C-2.32 7.67 -3.64 7.34 -5 7 C-4.0409375 6.1028125 -4.0409375 6.1028125 -3.0625 5.1875 C-0.79689611 3.09189663 -0.79689611 3.09189663 0 0 Z " fill="#FCE6CA" transform="translate(72,77)"/>
<path d="M0 0 C3.67230705 3.07999946 4.56802365 5.2482602 5 10 C1.55783328 7.3401439 1.00495326 4.09711714 0 0 Z " fill="#2FB9C5" transform="translate(24,144)"/>
<path d="M0 0 C0.33 0.66 0.66 1.32 1 2 C3.02463255 2.65213292 3.02463255 2.65213292 5 3 C3.35 4.32 1.7 5.64 0 7 C0 4.69 0 2.38 0 0 Z " fill="#4CB8C6" transform="translate(118,114)"/>
</svg>
