<?xml version="1.0" encoding="UTF-8"?>
<svg version="1.1" xmlns="http://www.w3.org/2000/svg" width="150" height="158">
<path d="M0 0 C49.5 0 99 0 150 0 C150 52.14 150 104.28 150 158 C100.5 158 51 158 0 158 C0 105.86 0 53.72 0 0 Z " fill="#FDFCFC" transform="translate(0,0)"/>
<path d="M0 0 C24.55955679 0 24.55955679 0 30 4 C36.21839228 10.39863553 37.32555952 16.18753036 37.39160156 24.87011719 C37.28054204 30.85378777 36.07291497 34.6698483 32 39 C31.37996094 39.6909375 30.75992188 40.381875 30.12109375 41.09375 C22.30748893 48.11592155 9.26299044 46 0 46 C0 30.82 0 15.64 0 0 Z " fill="#FDFBFB" transform="translate(28,51)"/>
<path d="M0 0 C34.38127671 0 34.38127671 0 44.33984375 9.265625 C50.70012978 15.91025323 50.35172856 23.40714524 50.21484375 32.07421875 C49.81121796 39.44956274 47.08155798 45.60249023 42 51 C29.79777958 60.89793845 15.46462015 58 0 58 C0 38.86 0 19.72 0 0 Z M6 6 C6 21.18 6 36.36 6 52 C21.89915257 53.07222853 21.89915257 53.07222853 36.15234375 47.16015625 C42.61965197 40.05802023 43.54150924 34.30434475 43.31640625 24.9375 C42.81648313 18.71623445 41.14666758 15.20629723 36.75 10.6875 C26.00736859 4.09543072 19.72964793 6 6 6 Z " fill="#BA2731" transform="translate(22,45)"/>
<path d="M0 0 C2.25137054 1.46462787 4.07282568 3.08118452 5.77734375 5.15625 C4.83668435 7.58628677 4.2834987 8.87699209 1.96484375 10.15625 C-1.34339207 10.15625 -2.79517114 8.27251907 -5.22265625 6.15625 C-11.15190362 4.17983421 -18.09350004 3.89558275 -23.9375 6.25 C-29.50143088 9.73092847 -32.8205093 13.67506414 -34.80078125 20.00390625 C-36.2245284 27.26765327 -36.01305737 34.71256809 -32.22265625 41.15625 C-28.94034242 45.79409167 -25.76279517 49.37922431 -20.22265625 51.15625 C-13.42056762 51.88798984 -8.27437434 51.3081865 -2.22265625 48.15625 C-1.23265625 47.82625 -0.24265625 47.49625 0.77734375 47.15625 C1.10734375 46.16625 1.43734375 45.17625 1.77734375 44.15625 C3.77734375 45.15625 5.77734375 46.15625 7.77734375 47.15625 C5.81411084 52.15357013 2.27992778 54.40679939 -2.41015625 56.74609375 C-9.33773409 59.62389823 -18.0826731 59.31458726 -25.23828125 57.3125 C-33.2367971 53.68127195 -39.28239785 47.0494012 -42.56640625 38.91015625 C-44.55902863 30.54825875 -44.77920482 19.67947229 -40.22265625 12.15625 C-39.78179687 11.40988281 -39.3409375 10.66351563 -38.88671875 9.89453125 C-30.20639435 -2.91424012 -13.84528731 -7.21914422 0 0 Z " fill="#C52831" transform="translate(124.22265625,45.84375)"/>
<path d="M0 0 C0.94875 0.350625 1.8975 0.70125 2.875 1.0625 C2.875 1.7225 2.875 2.3825 2.875 3.0625 C1.885 3.0625 0.895 3.0625 -0.125 3.0625 C-0.455 5.0425 -0.785 7.0225 -1.125 9.0625 C-0.135 9.0625 0.855 9.0625 1.875 9.0625 C1.875 8.4025 1.875 7.7425 1.875 7.0625 C2.535 7.0625 3.195 7.0625 3.875 7.0625 C4.535 5.0825 5.195 3.1025 5.875 1.0625 C14.22928766 -0.12296875 22.52260595 -0.05090622 30.9375 0 C32.38997241 0.00502586 33.84244651 0.00958684 35.29492188 0.01367188 C38.82165015 0.02458958 42.34831402 0.04179414 45.875 0.0625 C46.535 1.3825 47.195 2.7025 47.875 4.0625 C48.205 2.7425 48.535 1.4225 48.875 0.0625 C53.875 0.0625 58.875 0.0625 63.875 0.0625 C64.37 2.0425 64.37 2.0425 64.875 4.0625 C64.215 4.0625 63.555 4.0625 62.875 4.0625 C62.875 6.3725 62.875 8.6825 62.875 11.0625 C58.875 11.0625 54.875 11.0625 50.875 11.0625 C50.029375 11.2275 49.18375 11.3925 48.3125 11.5625 C43.6498698 12.24070076 38.57968347 12.78448943 33.97265625 11.5546875 C30.31127286 10.69559196 26.58810868 11.04933977 22.84765625 11.125 C20.05342919 11.06625147 17.58861188 10.70217278 14.875 10.0625 C14.875 7.7525 14.875 5.4425 14.875 3.0625 C14.215 3.0625 13.555 3.0625 12.875 3.0625 C12.875 5.7025 12.875 8.3425 12.875 11.0625 C10.33373828 11.25867816 7.79239541 11.44467248 5.25 11.625 C4.53714844 11.68107422 3.82429688 11.73714844 3.08984375 11.79492188 C-1.16168104 12.08745798 -4.91956347 11.95797939 -9.125 11.0625 C-9.125 7.7625 -9.125 4.4625 -9.125 1.0625 C-8.795 1.0625 -8.465 1.0625 -8.125 1.0625 C-8.00125 2.196875 -7.8775 3.33125 -7.75 4.5 C-7.54375 5.675625 -7.3375 6.85125 -7.125 8.0625 C-6.465 8.3925 -5.805 8.7225 -5.125 9.0625 C-5.125 6.0925 -5.125 3.1225 -5.125 0.0625 C-3.125 -0.9375 -3.125 -0.9375 0 0 Z " fill="#EABFC0" transform="translate(44.125,124.9375)"/>
<path d="M0 0 C25 0 25 0 34 3 C34 3.99 34 4.98 34 6 C32.02 5.67 30.04 5.34 28 5 C16.615 4.505 16.615 4.505 5 4 C5 19.84 5 35.68 5 52 C12.92 52 20.84 52 29 52 C29.99 51.01 30.98 50.02 32 49 C33.010625 48.71125 34.02125 48.4225 35.0625 48.125 C38.21795889 47.28776859 38.21795889 47.28776859 39.375 44.375 C39.58125 43.59125 39.7875 42.8075 40 42 C40.99 42.99 41.98 43.98 43 45 C39.62392874 48.6739599 36.60879214 51.05406554 32 53 C31.34 53 30.68 53 30 53 C29.67 53.99 29.34 54.98 29 56 C19.43 55.67 9.86 55.34 0 55 C0 36.85 0 18.7 0 0 Z " fill="#CB1E2B" transform="translate(23,46)"/>
<path d="M0 0 C0.99 0.33 1.98 0.66 3 1 C3 1.66 3 2.32 3 3 C3.66 3 4.32 3 5 3 C5.33 2.01 5.66 1.02 6 0 C6.99 0.33 7.98 0.66 9 1 C11.14255793 0.61067144 11.14255793 0.61067144 13 0 C13.33 0.99 13.66 1.98 14 3 C16.97 3.495 16.97 3.495 20 4 C21.04184255 7.38598829 21.23042499 10.46681687 21 14 C20.34 14.66 19.68 15.32 19 16 C16.66055264 15.71269945 14.3260857 15.38063221 12 15 C11.67 15.33 11.34 15.66 11 16 C8.66705225 16.04241723 6.33297433 16.04092937 4 16 C3.34 16 2.68 16 2 16 C1.01 16 0.02 16 -1 16 C-1.24915939 14.23186888 -1.47366632 12.46025018 -1.6875 10.6875 C-1.81511719 9.70136719 -1.94273438 8.71523437 -2.07421875 7.69921875 C-2 5 -2 5 -0.51953125 3.14453125 C-0.01808594 2.76683594 0.48335938 2.38914062 1 2 C0.67 1.34 0.34 0.68 0 0 Z " fill="#F8E9E9" transform="translate(113,120)"/>
<path d="M0 0 C0.94875 0.350625 1.8975 0.70125 2.875 1.0625 C2.875 1.7225 2.875 2.3825 2.875 3.0625 C1.885 3.0625 0.895 3.0625 -0.125 3.0625 C-0.455 5.0425 -0.785 7.0225 -1.125 9.0625 C-0.135 9.0625 0.855 9.0625 1.875 9.0625 C1.875 8.4025 1.875 7.7425 1.875 7.0625 C2.535 7.0625 3.195 7.0625 3.875 7.0625 C4.535 5.0825 5.195 3.1025 5.875 1.0625 C11.58485978 0.32233299 17.11686425 -0.04219338 22.875 0.0625 C24.48225635 3.27701269 23.93248185 6.49862536 23.875 10.0625 C20.54965243 11.17094919 18.25317425 10.90704356 14.875 10.0625 C14.875 7.7525 14.875 5.4425 14.875 3.0625 C14.215 3.0625 13.555 3.0625 12.875 3.0625 C12.875 5.7025 12.875 8.3425 12.875 11.0625 C10.33373828 11.25867816 7.79239541 11.44467248 5.25 11.625 C4.53714844 11.68107422 3.82429688 11.73714844 3.08984375 11.79492188 C-1.16168104 12.08745798 -4.91956347 11.95797939 -9.125 11.0625 C-9.125 7.7625 -9.125 4.4625 -9.125 1.0625 C-8.795 1.0625 -8.465 1.0625 -8.125 1.0625 C-8.00125 2.196875 -7.8775 3.33125 -7.75 4.5 C-7.54375 5.675625 -7.3375 6.85125 -7.125 8.0625 C-6.465 8.3925 -5.805 8.7225 -5.125 9.0625 C-5.125 6.0925 -5.125 3.1225 -5.125 0.0625 C-3.125 -0.9375 -3.125 -0.9375 0 0 Z " fill="#D89FA1" transform="translate(44.125,124.9375)"/>
<path d="M0 0 C17.72340426 -0.76595745 17.72340426 -0.76595745 24.9375 5.75 C25.288125 6.1625 25.63875 6.575 26 7 C25.0593406 9.43003677 24.50615495 10.72074209 22.1875 12 C18.88173554 12 17.46055805 10.10047639 15 8 C11.21476412 6.16611848 7.86646492 5.65053615 3.6875 5.375 C2.61886719 5.30023438 1.55023438 5.22546875 0.44921875 5.1484375 C-0.35902344 5.09945312 -1.16726562 5.05046875 -2 5 C-1.34 3.35 -0.68 1.7 0 0 Z " fill="#C41E28" transform="translate(104,44)"/>
<path d="M0 0 C13.86 0.495 13.86 0.495 28 1 C28 1.33 28 1.66 28 2 C19.42 2 10.84 2 2 2 C2 21.14 2 40.28 2 60 C1.34 60 0.68 60 0 60 C0 40.2 0 20.4 0 0 Z " fill="#EFB1B3" transform="translate(20,43)"/>
<path d="M0 0 C0.33 0 0.66 0 1 0 C1.93360596 9.78760065 2.12337253 19.49364527 2.0625 29.3125 C2.05746757 30.7467432 2.05290779 32.18098815 2.04882812 33.61523438 C2.03797759 37.07685998 2.0208124 40.53841822 2 44 C4.85440587 43.85803484 7.70846196 43.71154174 10.5625 43.5625 C11.36236328 43.52318359 12.16222656 43.48386719 12.98632812 43.44335938 C17.71371506 43.19251844 22.32476901 42.74678186 27 42 C27 41.34 27 40.68 27 40 C28.485 40.495 28.485 40.495 30 41 C26.32658165 44.67341835 22.08459796 44.91396937 17 46 C11.39 46 5.78 46 0 46 C0 30.82 0 15.64 0 0 Z " fill="#EFBBBD" transform="translate(28,51)"/>
<path d="M0 0 C1.67012983 0.06378968 3.33780985 0.20028115 5 0.375 C5.9075 0.46523437 6.815 0.55546875 7.75 0.6484375 C10 1 10 1 11 2 C11.1875 5.4375 11.1875 5.4375 11 9 C9 11 9 11 6.87109375 11.23046875 C6.06800781 11.21628906 5.26492187 11.20210937 4.4375 11.1875 C3.22900391 11.17783203 3.22900391 11.17783203 1.99609375 11.16796875 C0 11 0 11 -1 10 C-1.0979057 8.50261876 -1.12974864 7.00057108 -1.125 5.5 C-1.12757812 4.6853125 -1.13015625 3.870625 -1.1328125 3.03125 C-1 1 -1 1 0 0 Z " fill="#F4C5CA" transform="translate(23,125)"/>
<path d="M0 0 C3.20148213 2.13432142 3.52206739 2.68419896 4.6875 6.125 C4.93886719 6.84945312 5.19023438 7.57390625 5.44921875 8.3203125 C5.72185547 9.15175781 5.72185547 9.15175781 6 10 C6.66 10 7.32 10 8 10 C8.05420701 12.56278699 8.09377007 15.12441483 8.125 17.6875 C8.14175781 18.40873047 8.15851563 19.12996094 8.17578125 19.87304688 C8.21391569 24.04876781 7.8789919 27.2494138 6 31 C5.67 30.01 5.34 29.02 5 28 C4.34 27.67 3.68 27.34 3 27 C2.71013022 24.57644958 2.53203284 22.24499131 2.4375 19.8125 C2.25518396 16.0210706 2.06607681 12.3767691 1.41015625 8.63671875 C1 6 1 6 2 4 C1.01 4 0.02 4 -1 4 C-0.67 2.68 -0.34 1.36 0 0 Z " fill="#CA202A" transform="translate(64,55)"/>
<path d="M0 0 C2 1 4 2 6 3 C4.59553506 6.3941236 3.15290996 8.10371892 0 10 C-2.65722656 10.2487793 -2.65722656 10.2487793 -5.640625 10.07421875 C-6.71054688 10.01943359 -7.78046875 9.96464844 -8.8828125 9.90820312 C-10.54957031 9.79895508 -10.54957031 9.79895508 -12.25 9.6875 C-13.37664062 9.62626953 -14.50328125 9.56503906 -15.6640625 9.50195312 C-18.44383733 9.34882994 -21.22192387 9.18099971 -24 9 C-24 8.34 -24 7.68 -24 7 C-23.14277344 7.03480469 -22.28554687 7.06960937 -21.40234375 7.10546875 C-14.72956714 7.2634488 -9.88883879 7.20045586 -4 4 C-3.01 3.67 -2.02 3.34 -1 3 C-0.67 2.01 -0.34 1.02 0 0 Z " fill="#C02C37" transform="translate(126,90)"/>
<path d="M0 0 C4.26469804 1.51794337 5.49935788 2.24903681 8 6 C6.02 6 4.04 6 2 6 C1.67 4.68 1.34 3.36 1 2 C-3.62 2 -8.24 2 -13 2 C-13.33 2.99 -13.66 3.98 -14 5 C-15.99665598 6.67067133 -17.99651034 8.33752986 -20 10 C-20 10.66 -20 11.32 -20 12 C-20.99 12 -21.98 12 -23 12 C-23.33 12.66 -23.66 13.32 -24 14 C-24.66 14 -25.32 14 -26 14 C-24.59395878 9.52623248 -22.49197213 7.09515711 -19 4 C-18.175 3.236875 -17.35 2.47375 -16.5 1.6875 C-11.10431338 -0.91399177 -5.88416348 -0.62804286 0 0 Z " fill="#F9E3E4" transform="translate(116,50)"/>
<path d="M0 0 C1.47906892 -0.02689216 2.95827483 -0.04634621 4.4375 -0.0625 C5.26121094 -0.07410156 6.08492187 -0.08570312 6.93359375 -0.09765625 C9 0 9 0 10 1 C10.125 4.5 10.125 4.5 10 8 C9 9 9 9 6.93359375 9.09765625 C6.10988281 9.08605469 5.28617187 9.07445312 4.4375 9.0625 C3.61121094 9.05347656 2.78492187 9.04445312 1.93359375 9.03515625 C1.29550781 9.02355469 0.65742187 9.01195312 0 9 C0.52268466 6.23723823 1.10869587 3.6739124 2 1 C1.34 0.67 0.68 0.34 0 0 Z " fill="#CC878D" transform="translate(122,126)"/>
<path d="M0 0 C7.26 0 14.52 0 22 0 C19.19074795 2.80925205 18.00708175 3.8801473 14.09887695 4.11352539 C13.40238037 4.10828857 12.70588379 4.10305176 11.98828125 4.09765625 C10.85229492 4.09282227 10.85229492 4.09282227 9.69335938 4.08789062 C8.90767578 4.07951172 8.12199219 4.07113281 7.3125 4.0625 C6.51521484 4.05798828 5.71792969 4.05347656 4.89648438 4.04882812 C2.93095743 4.0370585 0.96546915 4.01912348 -1 4 C-0.67 2.68 -0.34 1.36 0 0 Z " fill="#C11A28" transform="translate(104,99)"/>
<path d="M0 0 C3.93673644 1.31224548 6.22719294 2.91910327 9 6 C8.0593406 8.43003677 7.50615495 9.72074209 5.1875 11 C1.85407861 11 0.41593587 9.16814758 -2 7 C-2.99 6.34 -3.98 5.68 -5 5 C-3.35 4.34 -1.7 3.68 0 3 C0 2.01 0 1.02 0 0 Z " fill="#C02C38" transform="translate(121,45)"/>
<path d="M0 0 C4.73208869 4.35850274 6.72650074 7.26788629 7.37109375 13.70703125 C7.57773949 20.76287311 7.71028688 26.83280546 3.2890625 32.71484375 C2 34 2 34 0 35 C0 33.35 0 31.7 0 30 C0.66 30 1.32 30 2 30 C2 29.34 2 28.68 2 28 C2.66 28 3.32 28 4 28 C5.64168731 22.48285411 5.66608262 16.6829602 5 11 C3.61334356 8.50789717 2.04564993 7.04564993 0 5 C-0.3125 2.125 -0.3125 2.125 0 0 Z " fill="#F9CBCD" transform="translate(58,56)"/>
<path d="M0 0 C0.5775 0.350625 1.155 0.70125 1.75 1.0625 C1.75 3.7025 1.75 6.3425 1.75 9.0625 C-1.61541838 10.14424162 -2.54847322 9.98788169 -6.25 9.0625 C-6.25 6.0925 -6.25 3.1225 -6.25 0.0625 C-2.25 -0.9375 -2.25 -0.9375 0 0 Z " fill="#D08991" transform="translate(119.25,125.9375)"/>
<path d="M0 0 C0 0.33 0 0.66 0 1 C-4.29 1 -8.58 1 -13 1 C-13.33 2.32 -13.66 3.64 -14 5 C-10.37 5.33 -6.74 5.66 -3 6 C-3 6.33 -3 6.66 -3 7 C-10.92 7.495 -10.92 7.495 -19 8 C-19.66 6.35 -20.32 4.7 -21 3 C-14.24708362 -0.85880936 -7.61241576 -0.28506966 0 0 Z " fill="#CA444B" transform="translate(117,43)"/>
<path d="M0 0 C1.98 0 3.96 0 6 0 C6.33 1.32 6.66 2.64 7 4 C6.34 4 5.68 4 5 4 C5 6.31 5 8.62 5 11 C3.35 11 1.7 11 0 11 C0 7.37 0 3.74 0 0 Z " fill="#EECBCC" transform="translate(102,125)"/>
<path d="M0 0 C0.66 0 1.32 0 2 0 C1.67 4.29 1.34 8.58 1 13 C0.67 13 0.34 13 0 13 C-0.33 10.36 -0.66 7.72 -1 5 C-2.28446919 7.56893838 -2.32977144 9.76576337 -2.5625 12.625 C-2.64628906 13.62789062 -2.73007813 14.63078125 -2.81640625 15.6640625 C-2.87699219 16.43492188 -2.93757813 17.20578125 -3 18 C-3.66 17.67 -4.32 17.34 -5 17 C-5 11.72 -5 6.44 -5 1 C-2.525 1.495 -2.525 1.495 0 2 C0 1.34 0 0.68 0 0 Z " fill="#B3232B" transform="translate(86,65)"/>
<path d="M0 0 C0.495 1.485 0.495 1.485 1 3 C-6.25376268 6.47926994 -12.36402802 7.63079138 -20.375 7.5 C-21.34566406 7.51546875 -22.31632812 7.5309375 -23.31640625 7.546875 C-30.33352882 7.50815984 -30.33352882 7.50815984 -33.6640625 4.96875 C-34.10492188 4.3190625 -34.54578125 3.669375 -35 3 C-34.67 2.34 -34.34 1.68 -34 1 C-32.515 1.99 -32.515 1.99 -31 3 C-24.43965672 6.25682522 -17.0976866 5.85031691 -10 5 C-6.35083636 3.73548167 -3.20011874 2.15392607 0 0 Z " fill="#F5BDBF" transform="translate(128,98)"/>
<path d="M0 0 C0.99 0.33 1.98 0.66 3 1 C3 4.96 3 8.92 3 13 C1.02 13.99 1.02 13.99 -1 15 C-2.72973114 13.27026886 -2.17208117 10.97483037 -2.1875 8.625 C-2.20167969 7.64789063 -2.21585937 6.67078125 -2.23046875 5.6640625 C-2 3 -2 3 0 0 Z " fill="#CE2330" transform="translate(85,69)"/>
<path d="M0 0 C1.65 0 3.3 0 5 0 C5.33 0.99 5.66 1.98 6 3 C6.66 2.01 7.32 1.02 8 0 C8 2.97 8 5.94 8 9 C7.34 9 6.68 9 6 9 C5.67 8.01 5.34 7.02 5 6 C4.67 6.99 4.34 7.98 4 9 C2.68 9 1.36 9 0 9 C0 6.03 0 3.06 0 0 Z " fill="#BD676B" transform="translate(86,126)"/>
<path d="M0 0 C1.65 0 3.3 0 5 0 C5 0.66 5 1.32 5 2 C4.01 2 3.02 2 2 2 C1.67 3.98 1.34 5.96 1 8 C1.99 8 2.98 8 4 8 C4 7.34 4 6.68 4 6 C4.66 6 5.32 6 6 6 C6.66 4.02 7.32 2.04 8 0 C8.66 0 9.32 0 10 0 C10.66 2.97 11.32 5.94 12 9 C11.34 8.34 10.68 7.68 10 7 C10 5.68 10 4.36 10 3 C9.34 3 8.68 3 8 3 C7.67 4.98 7.34 6.96 7 9 C5.0085944 9.38133299 3.00720923 9.71325582 1 10 C0 9 0 9 -0.09765625 6.93359375 C-0.08605469 6.10988281 -0.07445312 5.28617188 -0.0625 4.4375 C-0.05347656 3.61121094 -0.04445312 2.78492188 -0.03515625 1.93359375 C-0.02355469 1.29550781 -0.01195312 0.65742187 0 0 Z " fill="#C47379" transform="translate(42,126)"/>
<path d="M0 0 C1.66611905 -0.042721 3.33382885 -0.04063832 5 0 C6 1 6 1 6.125 4.5 C6 8 6 8 5 9 C3.33382885 9.04063832 1.66611905 9.042721 0 9 C0 6.03 0 3.06 0 0 Z " fill="#D68C8F" transform="translate(28,126)"/>
<path d="M0 0 C0.25 7.625 0.25 7.625 -2 11 C-0.02 11 1.96 11 4 11 C4 11.33 4 11.66 4 12 C-2.27 12 -8.54 12 -15 12 C-14.67 11.34 -14.34 10.68 -14 10 C-13.36191406 10.01160156 -12.72382813 10.02320313 -12.06640625 10.03515625 C-11.24011719 10.04417969 -10.41382813 10.05320313 -9.5625 10.0625 C-8.32693359 10.07990234 -8.32693359 10.07990234 -7.06640625 10.09765625 C-5.00836062 10.23267348 -5.00836062 10.23267348 -4 9 C-3.95907063 6.66702567 -3.95758277 4.33294775 -4 2 C-5.32 1.34 -6.64 0.68 -8 0 C-4.94736336 -0.98120464 -3.05263664 -0.98120464 0 0 Z " fill="#FDEBE8" transform="translate(37,125)"/>
<path d="M0 0 C0.33 0 0.66 0 1 0 C1.66 5.28 2.32 10.56 3 16 C3.99 16 4.98 16 6 16 C7.5625 18.8125 7.5625 18.8125 9 22 C8.67 22.99 8.34 23.98 8 25 C0.65999608 16.86648215 -0.48081919 10.84514392 0 0 Z " fill="#FAE0DE" transform="translate(88,68)"/>
<path d="M0 0 C0.763125 0.20625 1.52625 0.4125 2.3125 0.625 C0.44749844 2.04240118 -1.41029638 3.44362779 -3.37109375 4.7265625 C-7.62931577 7.56537718 -10.1120843 10.19528499 -12.6875 14.625 C-13.3475 13.635 -14.0075 12.645 -14.6875 11.625 C-14.0275 11.625 -13.3675 11.625 -12.6875 11.625 C-12.6875 10.635 -12.6875 9.645 -12.6875 8.625 C-12.0275 8.625 -11.3675 8.625 -10.6875 8.625 C-10.3575 7.635 -10.0275 6.645 -9.6875 5.625 C-9.0275 5.625 -8.3675 5.625 -7.6875 5.625 C-7.419375 5.00625 -7.15125 4.3875 -6.875 3.75 C-5.09239606 0.56007716 -3.66326416 -0.51115314 0 0 Z " fill="#FDE5E7" transform="translate(97.6875,43.375)"/>
<path d="M0 0 C4.96837798 0.07685889 8.61810871 0.29733609 12.75 3.3125 C13.74 4.7975 13.74 4.7975 14.75 6.3125 C12.77 6.3125 10.79 6.3125 8.75 6.3125 C8.42 4.9925 8.09 3.6725 7.75 2.3125 C2.47 2.3125 -2.81 2.3125 -8.25 2.3125 C-5.50090732 -0.43659268 -3.83354488 0.01312858 0 0 Z " fill="#FBDBDA" transform="translate(109.25,49.6875)"/>
<path d="M0 0 C1.79335604 3.58671207 1.0326421 8.00902377 0.9609375 11.97070312 C0.91854279 15.78975948 1.06677763 19.28898291 2 23 C1.34 22.67 0.68 22.34 0 22 C0 21.34 0 20.68 0 20 C-0.66 20 -1.32 20 -2 20 C-2.88853833 16.31891262 -3.03845203 13.20368676 -2.6875 9.4375 C-2.60886719 8.50808594 -2.53023438 7.57867187 -2.44921875 6.62109375 C-2.00827376 4.04827559 -1.29591294 2.24801223 0 0 Z " fill="#F8C8CB" transform="translate(81,64)"/>
<path d="M0 0 C2.31 0.33 4.62 0.66 7 1 C6.2884375 2.175625 6.2884375 2.175625 5.5625 3.375 C4.66101977 4.88948678 3.78820515 6.4235897 3 8 C2.34 8 1.68 8 1 8 C1 8.66 1 9.32 1 10 C0.01 10 -0.98 10 -2 10 C-2 8.02 -2 6.04 -2 4 C-1.34 3.67 -0.68 3.34 0 3 C0.66 3.33 1.32 3.66 2 4 C1.34 2.68 0.68 1.36 0 0 Z " fill="#FCE3E4" transform="translate(45,124)"/>
<path d="M0 0 C1.32 0.33 2.64 0.66 4 1 C4.36717663 8.4659249 4.36717663 8.4659249 2.625 11 C1 12 1 12 -1 12 C-1 11.01 -1 10.02 -1 9 C-1.66 8.67 -2.32 8.34 -3 8 C-2.34 8 -1.68 8 -1 8 C-1 7.01 -1 6.02 -1 5 C-0.34 5 0.32 5 1 5 C0.67 3.35 0.34 1.7 0 0 Z " fill="#FAF6F5" transform="translate(108,124)"/>
<path d="M0 0 C1.67542976 0.28604898 3.34385343 0.61781233 5 1 C4.01 1.495 4.01 1.495 3 2 C2.34 1.67 1.68 1.34 1 1 C1.680625 1.5775 2.36125 2.155 3.0625 2.75 C3.701875 3.4925 4.34125 4.235 5 5 C4.75 7.25 4.75 7.25 4 9 C2.35 8.67 0.7 8.34 -1 8 C-1.04241723 5.66705225 -1.04092937 3.33297433 -1 1 C-0.67 0.67 -0.34 0.34 0 0 Z " fill="#C58489" transform="translate(80,126)"/>
<path d="M0 0 C1.98 0 3.96 0 6 0 C5.67 2.97 5.34 5.94 5 9 C3.35 9 1.7 9 0 9 C0.52268466 6.23723823 1.10869587 3.6739124 2 1 C1.34 0.67 0.68 0.34 0 0 Z " fill="#D89298" transform="translate(122,126)"/>
<path d="M0 0 C0.33 0 0.66 0 1 0 C1.33 2.97 1.66 5.94 2 9 C1.34 9 0.68 9 0 9 C-0.33 9.66 -0.66 10.32 -1 11 C-2.23076923 4.6 -2.23076923 4.6 -1.0625 1.5625 C-0.711875 1.046875 -0.36125 0.53125 0 0 Z M4 2 C5.125 3.75 5.125 3.75 6 6 C5.125 8.25 5.125 8.25 4 10 C4 9.01 4 8.02 4 7 C3.34 6.67 2.68 6.34 2 6 C2.66 6 3.32 6 4 6 C4 4.68 4 3.36 4 2 Z " fill="#C42E39" transform="translate(84,58)"/>
<path d="M0 0 C3.73487777 0.4979837 5.81237635 0.87491756 9 3 C11.58885171 3.29991069 14.09149082 3.50865225 16.6875 3.625 C17.38939453 3.66367188 18.09128906 3.70234375 18.81445312 3.7421875 C20.54254655 3.8362334 22.27123675 3.9191968 24 4 C24 4.33 24 4.66 24 5 C7.1070615 5.738041 7.1070615 5.738041 0 1 C0 0.67 0 0.34 0 0 Z " fill="#BB333F" transform="translate(94,99)"/>
<path d="M0 0 C0.33 0 0.66 0 1 0 C1 2.64 1 5.28 1 8 C0.34 8 -0.32 8 -1 8 C-1.33 8.66 -1.66 9.32 -2 10 C-2.99 10.33 -3.98 10.66 -5 11 C-3.93051945 6.72207778 -3.02504439 3.28809173 0 0 Z " fill="#F7EEEB" transform="translate(133,92)"/>
<path d="M0 0 C0.66 0 1.32 0 2 0 C2 2.97 2 5.94 2 9 C1.34 8.67 0.68 8.34 0 8 C-0.99 8 -1.98 8 -3 8 C-3 5.69 -3 3.38 -3 1 C-2.01 1 -1.02 1 0 1 C0 0.67 0 0.34 0 0 Z " fill="#FAD5D9" transform="translate(100,126)"/>
<path d="M0 0 C0.99 0.99 1.98 1.98 3 3 C3.66 2.01 4.32 1.02 5 0 C5 2.97 5 5.94 5 9 C4.34 9 3.68 9 3 9 C2.67 8.34 2.34 7.68 2 7 C1.67 7.66 1.34 8.32 1 9 C0.34 9 -0.32 9 -1 9 C-0.67 6.03 -0.34 3.06 0 0 Z " fill="#BC6E73" transform="translate(70,126)"/>
<path d="M0 0 C0.556875 0.350625 1.11375 0.70125 1.6875 1.0625 C4.59366735 2.24067595 5.99261946 1.73350745 9 1 C10.6662553 0.9629721 12.33401319 0.95240038 14 1 C13.67 1.99 13.34 2.98 13 4 C11.41705218 4.05437607 9.83355744 4.09296271 8.25 4.125 C7.36828125 4.14820312 6.4865625 4.17140625 5.578125 4.1953125 C2.8864142 3.99139502 1.30095026 3.36551721 -1 2 C-0.67 1.34 -0.34 0.68 0 0 Z " fill="#FCF1F1" transform="translate(56,122)"/>
<path d="M0 0 C0.75 1.75 0.75 1.75 1 4 C-1.23423369 6.81347946 -3.58575173 8.82635216 -7 10 C-8.34364362 9.71101782 -9.67986936 9.38228783 -11 9 C-10.37351563 8.60167969 -9.74703125 8.20335938 -9.1015625 7.79296875 C-8.28429688 7.26316406 -7.46703125 6.73335938 -6.625 6.1875 C-5.81289063 5.66542969 -5.00078125 5.14335938 -4.1640625 4.60546875 C-1.76649759 3.01562803 -1.76649759 3.01562803 0 0 Z " fill="#F7D5D4" transform="translate(67,91)"/>
<path d="M0 0 C1.32 0 2.64 0 4 0 C4 0.66 4 1.32 4 2 C3.01 2 2.02 2 1 2 C1 2.99 1 3.98 1 5 C1.99 5.33 2.98 5.66 4 6 C3.01 6 2.02 6 1 6 C1 6.99 1 7.98 1 9 C1.99 9.33 2.98 9.66 4 10 C2.35 10 0.7 10 -1 10 C-1.02689216 8.52093108 -1.04634621 7.04172517 -1.0625 5.5625 C-1.07410156 4.73878906 -1.08570312 3.91507813 -1.09765625 3.06640625 C-1 1 -1 1 0 0 Z " fill="#C1777E" transform="translate(23,125)"/>
<path d="M0 0 C2.97 0 5.94 0 9 0 C7.68 0.33 6.36 0.66 5 1 C5 3.97 5 6.94 5 10 C4.34 9.67 3.68 9.34 3 9 C3 8.01 3 7.02 3 6 C2.01 5.34 1.02 4.68 0 4 C0 3.34 0 2.68 0 2 C0.99 2 1.98 2 3 2 C2.01 1.34 1.02 0.68 0 0 Z " fill="#F3C4C5" transform="translate(81,125)"/>
<path d="M0 0 C1.32 0.33 2.64 0.66 4 1 C4.33 3.31 4.66 5.62 5 8 C2 9 2 9 0 9 C0 6.03 0 3.06 0 0 Z " fill="#B9676D" transform="translate(113,126)"/>
<path d="M0 0 C0.66 0.66 1.32 1.32 2 2 C1.34 2 0.68 2 0 2 C0 1.34 0 0.68 0 0 Z M-1 0 C-0.67 1.32 -0.34 2.64 0 4 C-2.6739124 4.89130413 -5.23723823 5.47731534 -8 6 C-8 4.68 -8 3.36 -8 2 C-3.25 0 -3.25 0 -1 0 Z " fill="#F8F4F1" transform="translate(103,121)"/>
<path d="M0 0 C1.2065625 0.0309375 1.2065625 0.0309375 2.4375 0.0625 C1.7775 0.7225 1.1175 1.3825 0.4375 2.0625 C0.05531233 3.71864657 -0.27645102 5.38707024 -0.5625 7.0625 C-0.8925 8.0525 -1.2225 9.0425 -1.5625 10.0625 C-0.9025 10.3925 -0.2425 10.7225 0.4375 11.0625 C-0.8825 10.7325 -2.2025 10.4025 -3.5625 10.0625 C-3.58939216 8.58343108 -3.60884621 7.10422517 -3.625 5.625 C-3.63660156 4.80128906 -3.64820312 3.97757813 -3.66015625 3.12890625 C-3.51340586 0.02366796 -3.12550237 0.07623177 0 0 Z " fill="#F4CBCA" transform="translate(123.5625,124.9375)"/>
<path d="M0 0 C1.65 0 3.3 0 5 0 C3.68 0.33 2.36 0.66 1 1 C1.99 2.32 2.98 3.64 4 5 C3.34 5 2.68 5 2 5 C2 5.99 2 6.98 2 8 C2.99 8 3.98 8 5 8 C5 8.66 5 9.32 5 10 C3.35 10 1.7 10 0 10 C0 6.7 0 3.4 0 0 Z " fill="#C37279" transform="translate(102,126)"/>
<path d="M0 0 C0.66 0.33 1.32 0.66 2 1 C2 1.99 2 2.98 2 4 C2.99 4.33 3.98 4.66 5 5 C3.329375 5.2165625 3.329375 5.2165625 1.625 5.4375 C-1.82142047 5.78372035 -1.82142047 5.78372035 -4 7 C-4 5.68 -4 4.36 -4 3 C-2 1.25 -2 1.25 0 0 Z " fill="#C41F29" transform="translate(96,47)"/>
<path d="M0 0 C1.32 0.33 2.64 0.66 4 1 C3.67 1.66 3.34 2.32 3 3 C2.34 3 1.68 3 1 3 C-0.2065625 4.2375 -0.2065625 4.2375 -1.4375 5.5 C-4 8 -4 8 -7 8 C-7.33 7.01 -7.66 6.02 -8 5 C-6.68 5.33 -5.36 5.66 -4 6 C-3.34 4.68 -2.68 3.36 -2 2 C-1.34 2 -0.68 2 0 2 C0 1.34 0 0.68 0 0 Z " fill="#FAE2DF" transform="translate(125,88)"/>
<path d="M0 0 C0.99 0 1.98 0 3 0 C3 2.97 3 5.94 3 9 C2.01 9 1.02 9 0 9 C0 6.03 0 3.06 0 0 Z " fill="#DA7F85" transform="translate(86,126)"/>
<path d="M0 0 C0.99 0 1.98 0 3 0 C3 2.97 3 5.94 3 9 C2.01 9 1.02 9 0 9 C0 6.03 0 3.06 0 0 Z " fill="#DC8D90" transform="translate(60,126)"/>
<path d="M0 0 C2.23551759 3.35327639 2.17283528 3.90743657 1.625 7.6875 C1.51414062 8.49574219 1.40328125 9.30398437 1.2890625 10.13671875 C1.19367187 10.75160156 1.09828125 11.36648437 1 12 C0.34 11.67 -0.32 11.34 -1 11 C-1.484375 9.00390625 -1.484375 9.00390625 -1.75 6.5625 C-1.84796875 5.75941406 -1.9459375 4.95632812 -2.046875 4.12890625 C-2 2 -2 2 0 0 Z " fill="#F7EDEB" transform="translate(21,123)"/>
<path d="M0 0 C-3.21182149 1.90608098 -5.53882603 2.22266247 -9.25 2.125 C-10.14203125 2.10695313 -11.0340625 2.08890625 -11.953125 2.0703125 C-12.96632813 2.03550781 -12.96632813 2.03550781 -14 2 C-9.92616313 -2.07383687 -5.32200558 -0.93917746 0 0 Z " fill="#CF1F29" transform="translate(122,100)"/>
<path d="M0 0 C0.66 0 1.32 0 2 0 C1.67 4.29 1.34 8.58 1 13 C0.67 13 0.34 13 0 13 C-0.33 10.36 -0.66 7.72 -1 5 C-1.66 5.66 -2.32 6.32 -3 7 C-2.67 5.35 -2.34 3.7 -2 2 C-1.34 2 -0.68 2 0 2 C0 1.34 0 0.68 0 0 Z " fill="#C31925" transform="translate(86,65)"/>
<path d="M0 0 C1.04184255 3.38598829 1.23042499 6.46681687 1 10 C0.34 10.66 -0.32 11.32 -1 12 C-3.125 11.625 -3.125 11.625 -5 11 C-4.01 10.67 -3.02 10.34 -2 10 C-1.74984127 6.58357241 -1.74984127 6.58357241 -2 3 C-2.99 2.34 -3.98 1.68 -5 1 C-2 0 -2 0 0 0 Z " fill="#F3D6D6" transform="translate(133,124)"/>
<path d="M0 0 C0 2.64 0 5.28 0 8 C-0.99 8.33 -1.98 8.66 -3 9 C-3.12375 7.329375 -3.12375 7.329375 -3.25 5.625 C-3.57873787 1.94246056 -3.57873787 1.94246056 -6.0625 0.5625 C-6.701875 0.376875 -7.34125 0.19125 -8 0 C-4.94736336 -0.98120464 -3.05263664 -0.98120464 0 0 Z " fill="#ECBDBE" transform="translate(37,125)"/>
<path d="M0 0 C1.41719242 0.62380692 2.8337306 1.2491003 4.25 1.875 C5.03890625 2.22304687 5.8278125 2.57109375 6.640625 2.9296875 C8.78868608 3.90413905 10.89829202 4.92986429 13 6 C4.85614849 6.62645012 4.85614849 6.62645012 1.4375 4.125 C0 2 0 2 0 0 Z " fill="#FDDADA" transform="translate(93,99)"/>
<path d="M0 0 C0.59375 1.86328125 0.59375 1.86328125 1 4 C-1.29901861 7.35273547 -2.7287025 7.9457405 -6.75 8.75 C-8.35875 8.87375 -8.35875 8.87375 -10 9 C-9.40703125 8.74476562 -8.8140625 8.48953125 -8.203125 8.2265625 C-5.78775462 6.88183502 -4.48788294 5.50785633 -2.75 3.375 C-2.22921875 2.74335937 -1.7084375 2.11171875 -1.171875 1.4609375 C-0.78515625 0.97882813 -0.3984375 0.49671875 0 0 Z " fill="#C02F3B" transform="translate(62,86)"/>
<path d="M0 0 C4.77272727 4.77272727 4.77272727 4.77272727 5 10 C4.34 10.66 3.68 11.32 3 12 C2.01 8.04 1.02 4.08 0 0 Z " fill="#BE353D" transform="translate(66,55)"/>
<path d="M0 0 C0.66 0.33 1.32 0.66 2 1 C1.02471263 2.33617352 0.04466681 3.6688751 -0.9375 5 C-1.48277344 5.7425 -2.02804688 6.485 -2.58984375 7.25 C-3.28787109 8.11625 -3.28787109 8.11625 -4 9 C-4.33 9 -4.66 9 -5 9 C-5.3674833 4.46770601 -5.3674833 4.46770601 -3.625 2.25 C-2 1 -2 1 0 0 Z " fill="#B9232F" transform="translate(94,54)"/>
<path d="M0 0 C0 1.65 0 3.3 0 5 C-1.32 5 -2.64 5 -4 5 C-5.75 3 -5.75 3 -7 1 C-2.25 0 -2.25 0 0 0 Z " fill="#BC1E2C" transform="translate(127,50)"/>
<path d="M0 0 C0.99 0 1.98 0 3 0 C4.29243536 4.1196377 5.26252625 7.66831683 5 12 C3.20931427 9.3139714 2.33944209 7.3373411 1.375 4.3125 C1.11460938 3.50425781 0.85421875 2.69601563 0.5859375 1.86328125 C0.39257812 1.24839844 0.19921875 0.63351563 0 0 Z " fill="#FAE2DD" transform="translate(68,56)"/>
<path d="M0 0 C0.66 0 1.32 0 2 0 C2.66 2.97 3.32 5.94 4 9 C3.34 8.34 2.68 7.68 2 7 C2 5.68 2 4.36 2 3 C1.34 3 0.68 3 0 3 C-0.33 4.32 -0.66 5.64 -1 7 C-1.04254356 5.00045254 -1.04080783 2.99958364 -1 1 C-0.67 0.67 -0.34 0.34 0 0 Z " fill="#B96369" transform="translate(50,126)"/>
<path d="M0 0 C0.66 0 1.32 0 2 0 C0.68775452 3.93673644 -0.91910327 6.22719294 -4 9 C-4.33 8.01 -4.66 7.02 -5 6 C-4.34 6 -3.68 6 -3 6 C-3 5.01 -3 4.02 -3 3 C-2.34 3 -1.68 3 -1 3 C-0.67 2.01 -0.34 1.02 0 0 Z " fill="#FBDCDD" transform="translate(88,49)"/>
<path d="M0 0 C0.99 0.33 1.98 0.66 3 1 C3 2.65 3 4.3 3 6 C2.01 6.33 1.02 6.66 0 7 C0 4.69 0 2.38 0 0 Z " fill="#FDDADB" transform="translate(64,127)"/>
<path d="M0 0 C2.00720923 0.28674418 4.0085944 0.61866701 6 1 C5.67 1.66 5.34 2.32 5 3 C1.9375 3.625 1.9375 3.625 -1 4 C-1 1 -1 1 0 0 Z " fill="#F9F3F3" transform="translate(28,122)"/>
<path d="M0 0 C0.99 0.33 1.98 0.66 3 1 C4.35015859 5.05047576 3.62084998 7.7920168 3 12 C2.67 12 2.34 12 2 12 C1.855625 10.948125 1.71125 9.89625 1.5625 8.8125 C1.12473034 5.84539451 0.62195134 2.93205634 0 0 Z " fill="#F8EAEC" transform="translate(113,120)"/>
<path d="M0 0 C0.66 0 1.32 0 2 0 C1.6875 2.375 1.6875 2.375 1 5 C0.01 5.66 -0.98 6.32 -2 7 C-2 5.35 -2 3.7 -2 2 C-1.34 2 -0.68 2 0 2 C0 1.34 0 0.68 0 0 Z " fill="#FBE1E2" transform="translate(60,84)"/>
<path d="M0 0 C1.32 0 2.64 0 4 0 C4 0.66 4 1.32 4 2 C2.68 2 1.36 2 0 2 C0.66 3.65 1.32 5.3 2 7 C1.01 7 0.02 7 -1 7 C-1.04254356 5.00045254 -1.04080783 2.99958364 -1 1 C-0.67 0.67 -0.34 0.34 0 0 Z " fill="#F4C4C3" transform="translate(44,127)"/>
</svg>
