<?xml version="1.0" encoding="UTF-8"?>
<svg version="1.1" xmlns="http://www.w3.org/2000/svg" width="225" height="225">
<path d="M0 0 C74.25 0 148.5 0 225 0 C225 74.25 225 148.5 225 225 C150.75 225 76.5 225 0 225 C0 150.75 0 76.5 0 0 Z " fill="#FEFDFD" transform="translate(0,0)"/>
<path d="M0 0 C5.58669908 -0.09914961 11.17288186 -0.17160105 16.76025391 -0.21972656 C18.65943325 -0.23979629 20.55855115 -0.26705851 22.45751953 -0.30175781 C25.19318839 -0.35048109 27.92803771 -0.37301507 30.6640625 -0.390625 C31.50804596 -0.41127014 32.35202942 -0.43191528 33.22158813 -0.45318604 C39.86993145 -0.45569563 43.37319173 1.55824179 48.2734375 6.11328125 C48.96695313 6.83902344 49.66046875 7.56476562 50.375 8.3125 C53.07063599 11.12424016 55.83956329 13.75340238 58.7890625 16.29296875 C63.78568954 20.62318451 68.37297538 25.32166631 73 30.0390625 C76.21950866 33.29629978 79.46324901 36.45170806 82.9375 39.4375 C88.35165903 44.10086745 93.28263712 49.23626574 98.2890625 54.328125 C102.39511971 58.4765127 106.57810169 62.42299977 111.00390625 66.2265625 C115.42797108 70.15714065 119.49980444 74.463371 123.64453125 78.68359375 C127.58957551 82.67191089 131.61399059 86.46189671 135.87512207 90.10974121 C138.08232191 92.0732323 140.16801728 94.11944272 142.24804688 96.21679688 C143.30807922 97.2835968 143.30807922 97.2835968 144.38952637 98.37194824 C145.18671082 99.17783386 145.18671082 99.17783386 146 100 C146.06972303 90.6374562 146.12292398 81.27500273 146.15543652 71.91225529 C146.17104635 67.56404974 146.19219831 63.21602274 146.22631836 58.86791992 C146.25907983 54.66632283 146.27688818 50.46489673 146.28463173 46.26318169 C146.29014527 44.66571807 146.30091142 43.06826307 146.31719017 41.47087288 C146.41777103 31.18563691 146.32647365 21.29409423 139.87109375 12.70703125 C135.63182732 8.83947503 130.12954845 6.47089523 125 4 C125 2.68 125 1.36 125 0 C140.84 0 156.68 0 173 0 C173 1.32 173 2.64 173 4 C172.27554688 4.35191406 171.55109375 4.70382813 170.8046875 5.06640625 C161.73626357 9.69734807 156.4008056 14.33455249 153 24 C152.24515624 27.24261881 151.8696621 30.2617351 151.84178162 33.58747864 C151.8319928 34.47783813 151.82220398 35.36819763 151.81211853 36.28553772 C151.80636307 37.24938889 151.8006076 38.21324005 151.79467773 39.20629883 C151.78477814 40.23115387 151.77487854 41.25600891 151.76467896 42.31192017 C151.73313505 45.6936005 151.70833457 49.07529487 151.68359375 52.45703125 C151.66301809 54.80401471 151.64202146 57.1509945 151.62062073 59.49797058 C151.5654633 65.67106158 151.51602608 71.84418567 151.46777344 78.01733398 C151.41751222 84.31822653 151.36185027 90.61907109 151.30664062 96.91992188 C151.19913645 109.27990692 151.09767428 121.63993364 151 134 C147.09624504 133.3211971 145.13061071 132.6396192 142.2578125 129.8671875 C141.58363281 129.22523438 140.90945312 128.58328125 140.21484375 127.921875 C139.52519531 127.24640625 138.83554688 126.5709375 138.125 125.875 C137.44308594 125.22273438 136.76117188 124.57046875 136.05859375 123.8984375 C132.1831142 120.17797713 128.37582156 116.39270698 124.60571289 112.56567383 C122.90068511 110.90316157 121.12739898 109.35373567 119.3125 107.8125 C115.69860313 104.70384696 112.34712862 101.38885688 109 98 C105.12743816 94.07933927 101.19207738 90.34595793 96.9921875 86.7734375 C93.65405261 83.80184291 90.56962967 80.57655526 87.4296875 77.3984375 C85.38510583 75.3801527 83.31163982 73.48500482 81.125 71.625 C77.56713798 68.58569277 74.28558006 65.32636306 71 62 C67.14878387 58.10103905 63.23578266 54.39175698 59.05859375 50.83984375 C56.43501536 48.49505167 53.9700725 46.00371898 51.5 43.5 C47.68076716 39.63833124 43.79922534 35.94849605 39.65625 32.4375 C38.03703274 31.03214162 36.51606344 29.51606344 35 28 C34.67 37.24 34.34 46.48 34 56 C32.68 56 31.36 56 30 56 C30.02525757 54.57119507 30.02525757 54.57119507 30.05102539 53.11352539 C30.10210278 49.54013062 30.09315725 45.96885934 30.06713867 42.39526367 C30.06407816 40.85614914 30.07676314 39.3169122 30.10620117 37.77807617 C30.40488553 28.5038216 30.40488553 28.5038216 27.09887695 20.06152344 C24.84360566 17.77844967 22.59670311 15.87989118 20 14 C19.13882568 13.31953613 18.27765137 12.63907227 17.39038086 11.93798828 C11.98077204 7.72490437 6.66575776 5.48915865 0 4 C0 2.68 0 1.36 0 0 Z " fill="#D31C2E" transform="translate(26,45)"/>
<path d="M0 0 C1.32 0 2.64 0 4 0 C4.02578125 0.88300781 4.0515625 1.76601562 4.078125 2.67578125 C4.55972012 12.86589616 5.84203802 22.69293602 13.07421875 30.4296875 C16.97964128 33.61423082 21.48559391 35.80705897 26 38 C26 38.99 26 39.98 26 41 C10.16 41 -5.68 41 -22 41 C-21.67 39.68 -21.34 38.36 -21 37 C-18.9609375 35.796875 -18.9609375 35.796875 -16.375 34.75 C-10.11210344 31.80222751 -5.92096146 28.07584074 -2.94140625 21.75390625 C-0.53007166 14.72757724 -0.30789612 7.36827274 0 0 Z " fill="#D3192B" transform="translate(56,137)"/>
<path d="M0 0 C15.84 0 31.68 0 48 0 C48 1.32 48 2.64 48 4 C47.34 3.67 46.68 3.34 46 3 C44.62697532 2.90589665 43.24953594 2.8720646 41.87329102 2.87060547 C40.59670372 2.86587723 40.59670372 2.86587723 39.29432678 2.86105347 C38.37348801 2.8630777 37.45264923 2.86510193 36.50390625 2.8671875 C35.55942123 2.86623077 34.61493622 2.86527405 33.64183044 2.86428833 C31.64199761 2.86360707 29.64216258 2.86545758 27.64233398 2.86962891 C24.57856274 2.87497199 21.5149385 2.86968514 18.45117188 2.86328125 C16.51041634 2.86394216 14.5696609 2.86522358 12.62890625 2.8671875 C11.71009171 2.86516327 10.79127716 2.86313904 9.84461975 2.86105347 C8.99040939 2.86420563 8.13619904 2.86735779 7.25610352 2.87060547 C6.50490738 2.87140106 5.75371124 2.87219666 4.97975159 2.87301636 C2.78770401 2.92917957 2.78770401 2.92917957 0 4 C0 2.68 0 1.36 0 0 Z " fill="#D84150" transform="translate(151,45)"/>
<path d="M0 0 C2.86724686 0.57344937 3.8614515 0.8614515 6 3 C6.33 2.01 6.66 1.02 7 0 C7.66 0 8.32 0 9 0 C9.33 0.99 9.66 1.98 10 3 C11.32 3 12.64 3 14 3 C14.33 4.32 14.66 5.64 15 7 C12.10765685 7.82638376 10.11257569 8 7 8 C7 7.34 7 6.68 7 6 C6.01 5.67 5.02 5.34 4 5 C4 4.34 4 3.68 4 3 C3.34 3 2.68 3 2 3 C2.33 4.65 2.66 6.3 3 8 C2.34 8 1.68 8 1 8 C0.67 5.36 0.34 2.72 0 0 Z " fill="#959595" transform="translate(26,109)"/>
<path d="M0 0 C2.625 0.1875 2.625 0.1875 5.625 2.1875 C4.635 4.1675 3.645 6.1475 2.625 8.1875 C1.635 8.1875 0.645 8.1875 -0.375 8.1875 C-0.375 7.5275 -0.375 6.8675 -0.375 6.1875 C-1.035 6.1875 -1.695 6.1875 -2.375 6.1875 C-2.75718767 4.53135343 -3.08895102 2.86292976 -3.375 1.1875 C-2.375 0.1875 -2.375 0.1875 0 0 Z " fill="#8B8B8B" transform="translate(70.375,121.8125)"/>
<path d="M0 0 C2.31 0.33 4.62 0.66 7 1 C6.34 2.98 5.68 4.96 5 7 C4.67 6.34 4.34 5.68 4 5 C3.34 5 2.68 5 2 5 C2 5.66 2 6.32 2 7 C1.01 6.67 0.02 6.34 -1 6 C-0.67 4.02 -0.34 2.04 0 0 Z " fill="#8A8A8A" transform="translate(43,121)"/>
<path d="M0 0 C2.05078125 0.03255208 4.1015625 0.06510417 6.15234375 0.09765625 C5.16234375 0.59265625 5.16234375 0.59265625 4.15234375 1.09765625 C4.15234375 2.41765625 4.15234375 3.73765625 4.15234375 5.09765625 C2.17234375 5.09765625 0.19234375 5.09765625 -1.84765625 5.09765625 C-2.41015625 3.16015625 -2.41015625 3.16015625 -2.84765625 1.09765625 C-1.84765625 0.09765625 -1.84765625 0.09765625 0 0 Z " fill="#7B7B7B" transform="translate(52.84765625,122.90234375)"/>
<path d="M0 0 C1.32 0 2.64 0 4 0 C4.33 0.33 4.66 0.66 5 1 C6.32594105 1.36162029 7.65938457 1.69728039 9 2 C8.67 2.99 8.34 3.98 8 5 C5.36 5 2.72 5 0 5 C0 3.35 0 1.7 0 0 Z " fill="#696969" transform="translate(61,112)"/>
<path d="M0 0 C1.98 0 3.96 0 6 0 C6 1.65 6 3.3 6 5 C4.02 5 2.04 5 0 5 C0 3.35 0 1.7 0 0 Z " fill="#707070" transform="translate(60,123)"/>
<path d="M0 0 C0.33 1.32 0.66 2.64 1 4 C1.66 3.67 2.32 3.34 3 3 C2.67 2.01 2.34 1.02 2 0 C3.98 0 5.96 0 8 0 C7.01 0.495 7.01 0.495 6 1 C6 1.99 6 2.98 6 4 C4.02 4.33 2.04 4.66 0 5 C-0.5625 3.0625 -0.5625 3.0625 -1 1 C-0.67 0.67 -0.34 0.34 0 0 Z " fill="#636363" transform="translate(75,112)"/>
<path d="M0 0 C0.66 0 1.32 0 2 0 C2 0.99 2 1.98 2 3 C2.99 3 3.98 3 5 3 C5 4.65 5 6.3 5 8 C4.34 7.67 3.68 7.34 3 7 C3.33 6.01 3.66 5.02 4 4 C3.34 4 2.68 4 2 4 C2 5.32 2 6.64 2 8 C1.34 8 0.68 8 0 8 C0 5.36 0 2.72 0 0 Z " fill="#505050" transform="translate(50,109)"/>
<path d="M0 0 C1.875 0.25 1.875 0.25 4 1 C5.25 3.0625 5.25 3.0625 6 5 C6.66 5 7.32 5 8 5 C7.67 5.66 7.34 6.32 7 7 C6.01 6.34 5.02 5.68 4 5 C4 4.34 4 3.68 4 3 C3.34 3 2.68 3 2 3 C2.33 4.65 2.66 6.3 3 8 C2.34 8 1.68 8 1 8 C0.67 5.36 0.34 2.72 0 0 Z " fill="#505050" transform="translate(26,109)"/>
<path d="M0 0 C2 2 2 2 2 6 C1.34 6 0.68 6 0 6 C0 4.68 0 3.36 0 2 C-0.99 2 -1.98 2 -3 2 C-3 3.32 -3 4.64 -3 6 C-3.66 6 -4.32 6 -5 6 C-5 4.35 -5 2.7 -5 1 C-2.625 0.375 -2.625 0.375 0 0 Z " fill="#424242" transform="translate(47,111)"/>
</svg>
