<?xml version="1.0" encoding="UTF-8"?>
<svg version="1.1" xmlns="http://www.w3.org/2000/svg" width="500" height="501">
<path d="M0 0 C65.01 0 130.02 0 197 0 C197 65.01 197 130.02 197 197 C131.99 197 66.98 197 0 197 C0 131.99 0 66.98 0 0 Z " fill="#2B323C" transform="translate(35,263)"/>
<path d="M0 0 C19.8981592 17.3878163 33.81267474 40.77747541 36.57910156 67.37988281 C38.04627353 98.8088649 31.60673468 126.18767559 10.20117188 149.90673828 C-7.04064021 168.7257522 -31.0928036 182.27817632 -57.05737305 183.50439453 C-89.75577253 184.37476608 -116.17417177 176.58005352 -140.23632812 153.94848633 C-159.75005214 135.05411094 -170.01873817 109.85070469 -170.8894043 82.80322266 C-171.21934705 52.17737336 -160.30384411 26.63896616 -139.04589844 4.69238281 C-125.54301939 -8.46001167 -108.60096749 -17.01707843 -90.42089844 -21.62011719 C-89.47730469 -21.86503906 -88.53371094 -22.10996094 -87.56152344 -22.36230469 C-57.17163521 -28.77404411 -23.5221062 -19.98581913 0 0 Z " fill="#2B323C" transform="translate(428.4208984375,281.6201171875)"/>
<path d="M0 0 C0 65.01 0 130.02 0 197 C-65.01 197 -130.02 197 -197 197 C-197 188.19078345 -196.94169697 180.01434608 -195.8125 171.375 C-195.6786792 170.34648926 -195.5448584 169.31797852 -195.40698242 168.25830078 C-189.00749218 122.0464944 -164.90342351 75.33349048 -128 46 C-126.57300781 44.85144531 -126.57300781 44.85144531 -125.1171875 43.6796875 C-88.92985187 14.95021556 -46.08246155 0 0 0 Z " fill="#2B323C" transform="translate(460,35)"/>
<path d="M0 0 C17.63765412 0 17.63765412 0 26.1875 1.1875 C27.16452881 1.3213208 28.14155762 1.4551416 29.14819336 1.59301758 C62.40222824 6.42512254 93.32978614 19.60336486 120 40 C120.93070312 40.68835938 121.86140625 41.37671875 122.8203125 42.0859375 C164.18409028 74.08910502 189.41522891 122.63878549 196 174 C196.33 181.59 196.66 189.18 197 197 C131.99 197 66.98 197 0 197 C0 131.99 0 66.98 0 0 Z " fill="#2B323C" transform="translate(35,35)"/>
</svg>
