<?xml version="1.0" encoding="UTF-8"?>
<svg version="1.1" xmlns="http://www.w3.org/2000/svg" width="200" height="200">
<path d="M0 0 C66 0 132 0 200 0 C200 66 200 132 200 200 C134 200 68 200 0 200 C0 134 0 68 0 0 Z " fill="#00B464" transform="translate(0,0)"/>
<path d="M0 0 C0.51046875 0.15339844 1.0209375 0.30679688 1.546875 0.46484375 C4.7749338 1.16905403 7.95418001 1.34888204 11.25 1.5625 C12.51328125 1.64628906 13.7765625 1.73007812 15.078125 1.81640625 C16.04234375 1.87699219 17.0065625 1.93757813 18 2 C18 1.34 18 0.68 18 0 C19.8125 0.0625 19.8125 0.0625 22 1 C23.06652192 3.30368736 24.06421005 5.64018187 25 8 C25.99088004 9.00903753 26.99089192 10.00919181 28 11 C28.515625 12.093125 29.03125 13.18625 29.5625 14.3125 C31.96315714 19.38898843 35.30640813 23.7641796 38.64672852 28.2512207 C42 32.8001644 42 32.8001644 42 35 C42.66 35 43.32 35 44 35 C44.433125 35.9590625 44.433125 35.9590625 44.875 36.9375 C45.82823451 39.15206079 45.82823451 39.15206079 48 40 C48.2475 39.29875 48.495 38.5975 48.75 37.875 C50.17180238 34.60485452 51.87246288 31.858878 54 29 C54.66 29 55.32 29 56 29 C56.39445312 27.92685547 56.39445312 27.92685547 56.796875 26.83203125 C59.90613817 19.5131488 64.85875402 12.9154997 69.8359375 6.75390625 C71.10810944 4.83711028 71.49684368 3.22625108 72 1 C79 1 86 1 93 1 C94.81640625 3.37109375 94.81640625 3.37109375 96.5625 6.4375 C98.8248885 10.84170519 98.8248885 10.84170519 103 13 C103 17 103 17 101.18359375 18.9453125 C100.46300781 19.62335938 99.74242187 20.30140625 99 21 C97.96235147 22.58829402 96.98865848 24.21921534 96.0625 25.875 C95.47339844 26.91269531 94.88429688 27.95039062 94.27734375 29.01953125 C93.93300293 29.62619629 93.58866211 30.23286133 93.23388672 30.85791016 C91.74385821 33.44467513 90.21906087 36.00949604 88.69140625 38.57421875 C88.10544678 39.5585791 87.5194873 40.54293945 86.91577148 41.55712891 C85.73067069 43.54603017 84.5440073 45.53400125 83.35571289 47.52099609 C82.80778076 48.44348145 82.25984863 49.3659668 81.6953125 50.31640625 C81.20047363 51.14599854 80.70563477 51.97559082 80.19580078 52.83032227 C78.87617157 55.06987444 78.87617157 55.06987444 78 58 C77.34 58 76.68 58 76 58 C75.7215625 58.73734375 75.443125 59.4746875 75.15625 60.234375 C73.71276201 63.68704221 71.86798945 66.67892203 69.84375 69.8203125 C68.36461743 72.37118943 67.26133819 74.71855308 66.15625 77.4296875 C63.70490505 83.02339559 61.28801022 88.29095052 55.66748047 91.21240234 C49.90604386 93.11562818 44.55156769 93.24496278 38.73730469 91.49023438 C29.84589232 86.64960103 25.35687551 74.61226903 20.97607422 65.85302734 C18.02187105 59.99741052 14.55659066 54.46099559 11.125 48.875 C9.90127728 46.83996407 8.67986243 44.80353829 7.4609375 42.765625 C6.30739142 40.84369013 5.15374845 38.9218134 4 37 C3.17483887 35.62424805 3.17483887 35.62424805 2.33300781 34.22070312 C0.81008806 31.68589809 -0.71884951 29.15483938 -2.25 26.625 C-2.6919873 25.88749512 -3.13397461 25.14999023 -3.58935547 24.39013672 C-5.79390296 20.68571823 -5.79390296 20.68571823 -8.63574219 17.47802734 C-10 16 -10 16 -10 13 C-9.443125 12.79375 -8.88625 12.5875 -8.3125 12.375 C-4.23919685 9.95303596 -1.47862472 6.69359516 -0.1875 2.125 C-0.125625 1.42375 -0.06375 0.7225 0 0 Z " fill="#A0F1CD" transform="translate(54,56)"/>
<path d="M0 0 C4.24507802 0.4952591 6.76022815 3.13998382 9.75 5.9375 C10.25660156 6.39318359 10.76320313 6.84886719 11.28515625 7.31835938 C12.56785768 8.49906703 13.78935193 9.74551812 15 11 C15 11.66 15 12.32 15 13 C15.7425 13.144375 16.485 13.28875 17.25 13.4375 C21.48648936 15.84459623 22.41860548 19.51594034 24 24 C25.12957455 28.25870867 25.99098753 32.54752507 26.8125 36.875 C27.04130859 38.00164062 27.27011719 39.12828125 27.50585938 40.2890625 C29.13202919 48.60391243 29.13202919 48.60391243 28 52 C26.82244141 50.62328125 26.82244141 50.62328125 25.62109375 49.21875 C20.74762437 43.52474751 15.87379328 37.83309682 10.921875 32.20703125 C9.27606429 30.31702505 7.64334498 28.41728064 6.015625 26.51171875 C5.47873047 25.88330078 4.94183594 25.25488281 4.38867188 24.60742188 C3.31593418 23.3505671 2.24427665 22.09278939 1.17382812 20.83398438 C0.67818359 20.25326172 0.18253906 19.67253906 -0.328125 19.07421875 C-0.7705957 18.55432373 -1.21306641 18.03442871 -1.66894531 17.4987793 C-3.00238575 15.94979873 -3.00238575 15.94979873 -4.63183594 14.47973633 C-6 13 -6 13 -6.5625 10.25 C-5.76731186 5.65557964 -3.21784471 3.23699855 0 0 Z " fill="#09B467" transform="translate(55,61)"/>
<path d="M0 0 C1.640625 1.57421875 1.640625 1.57421875 3.25 3.6875 C3.79140625 4.37199219 4.3328125 5.05648437 4.890625 5.76171875 C6 8 6 8 5.921875 10.4765625 C4.79469474 13.56197965 3.25802148 15.31254527 1 17.6875 C-1.84009387 20.60666651 -1.84009387 20.60666651 -4 24 C-4.66 24 -5.32 24 -6 24 C-6.27239502 24.59006836 -6.54479004 25.18013672 -6.82543945 25.78808594 C-7.97228315 27.94780407 -9.18271696 29.56017917 -10.79296875 31.390625 C-11.33791992 32.01445068 -11.88287109 32.63827637 -12.44433594 33.28100586 C-13.01958008 33.93077393 -13.59482422 34.58054199 -14.1875 35.25 C-14.77176758 35.91588135 -15.35603516 36.5817627 -15.95800781 37.26782227 C-17.11350912 38.5843808 -18.27053152 39.89960616 -19.42919922 41.21337891 C-21.9202101 44.04664245 -24.37197081 46.91385706 -26.828125 49.77734375 C-27.21484375 50.18082031 -27.6015625 50.58429688 -28 51 C-28.33 51 -28.66 51 -29 51 C-29.1267568 46.89549397 -28.77075037 43.45525265 -27.6875 39.5 C-26.77786712 36.1297473 -25.9712494 32.83292105 -25.37890625 29.390625 C-23.97963053 21.29046992 -22.17975412 16.4671781 -16 11 C-15.32066406 10.37480469 -14.64132813 9.74960938 -13.94140625 9.10546875 C-11.99514691 7.35788239 -10.01098346 5.67229151 -8 4 C-7.071875 3.195625 -6.14375 2.39125 -5.1875 1.5625 C-3 0 -3 0 0 0 Z " fill="#04B465" transform="translate(147,61)"/>
<path d="M0 0 C4.29 0 8.58 0 13 0 C13 0.66 13 1.32 13 2 C13.66 2 14.32 2 15 2 C15.33 2.66 15.66 3.32 16 4 C16.66 3.34 17.32 2.68 18 2 C18.680625 3.2065625 18.680625 3.2065625 19.375 4.4375 C20.74725665 7.08856572 20.74725665 7.08856572 23 8 C23.495 9.051875 23.99 10.10375 24.5 11.1875 C26.92632166 16.3107715 30.27437785 20.72138025 33.64648438 25.25073242 C37 29.80041048 37 29.80041048 37 32 C37.66 32 38.32 32 39 32 C40.125 34.3125 40.125 34.3125 41 37 C40.34 37.99 39.68 38.98 39 40 C38.34 39.154375 37.68 38.30875 37 37.4375 C32.67642637 32.23935735 27.42526595 27.99947223 22 24 C22.50031427 30.87932125 23.9468234 37.32210075 25.71582031 43.97045898 C26.73298585 47.9845974 27.2428297 51.00406652 26 55 C24.10003488 51.65561398 23.34647957 48.45602127 22.59765625 44.6953125 C22.34693359 43.47199219 22.09621094 42.24867187 21.83789062 40.98828125 C21.32262192 38.42102306 20.80958617 35.85331564 20.29882812 33.28515625 C20.04681641 32.05925781 19.79480469 30.83335938 19.53515625 29.5703125 C19.312229 28.45414551 19.08930176 27.33797852 18.85961914 26.18798828 C17.95080287 22.81754724 16.73527444 20.02496405 15 17 C13.6846659 16.29848848 12.34882408 15.63474075 11 15 C9.79609226 13.56832593 8.59542308 12.13317741 7.4375 10.6640625 C4.93574455 7.76800864 1.96301735 5.40798528 -1 3 C-0.67 2.01 -0.34 1.02 0 0 Z " fill="#9AEEC8" transform="translate(59,59)"/>
<path d="M0 0 C3.82504319 2.4907258 7.56944283 4.97303779 11 8 C11 8.66 11 9.32 11 10 C11.5775 10.226875 12.155 10.45375 12.75 10.6875 C15.7527084 12.4390799 17.18551589 14.01906183 19 17 C19.40158624 23.14426941 18.43574291 28.54360711 17 34.5 C16.80921875 35.32242188 16.6184375 36.14484375 16.421875 36.9921875 C15.95572696 38.99662407 15.47897024 40.99858863 15 43 C9.13577425 38.86530169 6.79212384 35.39371488 5.25 28.4375 C5.05446533 27.64827148 4.85893066 26.85904297 4.6574707 26.04589844 C4.26671106 24.45316149 3.88734395 22.85758171 3.52001953 21.25927734 C3.04940378 19.21463969 2.5405713 17.17889105 2.02734375 15.14453125 C0.74239824 9.9509608 -0.15102555 5.37333 0 0 Z " fill="#09B467" transform="translate(80,82)"/>
<path d="M0 0 C-0.9866715 7.30136909 -2.21806257 14.35295461 -4.28125 21.4296875 C-4.97211622 23.90028519 -5.50188056 26.35949684 -6 28.875 C-7.36230287 35.09950581 -10.40032171 38.64895297 -15 43 C-17.56301107 37.17399583 -18.22411541 31.27295369 -19 25 C-19.15726562 24.09121094 -19.31453125 23.18242188 -19.4765625 22.24609375 C-19.77713481 19.50229792 -19.79950366 17.65028837 -19 15 C-16.06961044 11.45359534 -12.64259803 8.78364478 -9 6 C-7.65976181 4.82029851 -6.3253231 3.63393333 -5 2.4375 C-2 0 -2 0 0 0 Z " fill="#03B565" transform="translate(122,82)"/>
<path d="M0 0 C4.016309 1.29095647 5.21984594 3.70573831 7.0703125 7.24609375 C9.11480679 11.1426032 9.11480679 11.1426032 13 13 C13 17 13 17 11.18359375 18.9453125 C10.46300781 19.62335938 9.74242187 20.30140625 9 21 C7.96235147 22.58829402 6.98865848 24.21921534 6.0625 25.875 C5.47339844 26.91269531 4.88429687 27.95039062 4.27734375 29.01953125 C3.93300293 29.62619629 3.58866211 30.23286133 3.23388672 30.85791016 C1.74385821 33.44467513 0.21906087 36.00949604 -1.30859375 38.57421875 C-1.89455322 39.5585791 -2.4805127 40.54293945 -3.08422852 41.55712891 C-4.26932931 43.54603017 -5.4559927 45.53400125 -6.64428711 47.52099609 C-7.19221924 48.44348145 -7.74015137 49.3659668 -8.3046875 50.31640625 C-8.79952637 51.14599854 -9.29436523 51.97559082 -9.80419922 52.83032227 C-11.12382843 55.06987444 -11.12382843 55.06987444 -12 58 C-12.66 58 -13.32 58 -14 58 C-14.27457031 58.73089844 -14.54914063 59.46179688 -14.83203125 60.21484375 C-15.93690218 62.84953597 -17.18852176 65.13538728 -18.6875 67.5625 C-22.20876103 73.32693473 -25.60776626 79.15893481 -29 85 C-29.66 84.34 -30.32 83.68 -31 83 C-24.60298694 72.03765658 -18.08358087 61.15944386 -11.43945312 50.34521484 C-8.89057869 46.19248624 -6.35224708 42.03331455 -3.8125 37.875 C-2.88155447 36.35153558 -1.95056914 34.82809548 -1.01953125 33.3046875 C-0.35308594 32.21414062 0.31335938 31.12359375 1 30 C0.38125 30.66 -0.2375 31.32 -0.875 32 C-3 34 -3 34 -5 34 C-5.268125 34.5878125 -5.53625 35.175625 -5.8125 35.78125 C-7.01264238 38.02362128 -8.28999645 39.62557304 -10 41.5 C-13.22746055 45.10274666 -16.3487883 48.77860767 -19.4375 52.5 C-19.88673828 53.04076172 -20.33597656 53.58152344 -20.79882812 54.13867188 C-21.86671009 55.42509712 -22.93347738 56.71244755 -24 58 C-24.99 57.67 -25.98 57.34 -27 57 C-28.38699595 51.32592567 -27.50818835 47.40439067 -25.83203125 41.85546875 C-24.79688402 38.30292123 -24.1025 34.72929824 -23.4296875 31.09375 C-23 29 -23 29 -22 26 C-24.64 27.98 -27.28 29.96 -30 32 C-30 31.01 -30 30.02 -30 29 C-27.18465063 26.34105893 -24.87206399 24.57363911 -21 24 C-19.17607354 30.13502537 -21.2498868 35.10359057 -23 41 C-23.41445052 42.62035175 -23.81201511 44.24517789 -24.1875 45.875 C-24.34605469 46.55304688 -24.50460938 47.23109375 -24.66796875 47.9296875 C-25.05005276 50.31209365 -25.05455526 52.59117558 -25 55 C-14.13652402 43.2968911 -14.13652402 43.2968911 -4.37109375 30.68359375 C-3.91863281 30.12800781 -3.46617187 29.57242188 -3 29 C-2.34 29 -1.68 29 -1 29 C-0.731875 28.4225 -0.46375 27.845 -0.1875 27.25 C1.02929189 24.94449957 2.30333879 22.97943808 4 21 C4.66 21 5.32 21 6 21 C7.67059759 18.44496838 8.0040057 17.0961367 7.875 14 C6.88279022 10.59813789 5.5866469 9.33632623 3 7 C3 6.34 3 5.68 3 5 C1.68 5 0.36 5 -1 5 C-1 4.34 -1 3.68 -1 3 C-3.12577907 3.0868276 -5.25069581 3.1949951 -7.375 3.3125 C-8.55835938 3.37050781 -9.74171875 3.42851563 -10.9609375 3.48828125 C-11.96382812 3.65714844 -12.96671875 3.82601562 -14 4 C-14.99 5.485 -14.99 5.485 -16 7 C-16.66 7 -17.32 7 -18 7 C-18 5.02 -18 3.04 -18 1 C-16.78441406 1.01160156 -15.56882813 1.02320313 -14.31640625 1.03515625 C-12.73177236 1.04453278 -11.14713682 1.05363313 -9.5625 1.0625 C-8.76005859 1.07087891 -7.95761719 1.07925781 -7.13085938 1.08789062 C-5.08704779 1.0965143 -3.04316098 1.0522815 -1 1 C-0.67 0.67 -0.34 0.34 0 0 Z " fill="#94EEC6" transform="translate(144,56)"/>
<path d="M0 0 C3.0593145 3.0593145 3.02143904 6.64223658 3.6875 10.8125 C3.82994141 11.62009766 3.97238281 12.42769531 4.11914062 13.25976562 C5.10521948 19.24982673 5.24353434 23.00280849 1.9375 28.3125 C1.298125 29.199375 0.65875 30.08625 0 31 C0.66 31 1.32 31 2 31 C2.268125 30.360625 2.53625 29.72125 2.8125 29.0625 C4 27 4 27 7 26 C8.01691264 24.00854609 9.01642648 22.00812926 10 20 C10.99 19.34 11.98 18.68 13 18 C12.69075786 20.10464793 12.3774944 22.2087053 12.0625 24.3125 C11.80146484 26.07013672 11.80146484 26.07013672 11.53515625 27.86328125 C11 31 11 31 10 34 C9.34 34 8.68 34 8 34 C8 35.98 8 37.96 8 40 C3.38 40 -1.24 40 -6 40 C-5.67 38.68 -5.34 37.36 -5 36 C-5.495 34.515 -5.495 34.515 -6 33 C-5.72230092 30.6593935 -5.39460023 28.32375692 -5 26 C-4.34 26 -3.68 26 -3 26 C-3.20496094 25.22398437 -3.40992187 24.44796875 -3.62109375 23.6484375 C-4.13443153 18.70557684 -3.12485633 14.445141 -2.0625 9.625 C-1.86720703 8.69816406 -1.67191406 7.77132812 -1.47070312 6.81640625 C-0.9900388 4.54204336 -0.49958628 2.27026779 0 0 Z " fill="#93EBC4" transform="translate(100,104)"/>
<path d="M0 0 C6.82050633 6.60049 13.02027734 13.81820077 19.23046875 20.98828125 C20.52616397 22.46131224 21.84463735 23.91439196 23.17578125 25.35546875 C23.90152344 26.14566406 24.62726563 26.93585938 25.375 27.75 C26.37660156 28.82507813 26.37660156 28.82507813 27.3984375 29.921875 C29.03285957 32.04263729 29.43220071 33.43933651 30 36 C30.66 36.33 31.32 36.66 32 37 C32.80981891 39.75456651 33.50092879 42.45323645 34.125 45.25 C34.30675781 46.01441406 34.48851562 46.77882812 34.67578125 47.56640625 C35.56636684 51.44346684 36.24037185 54.99380254 36 59 C33.27967803 56.54879395 31.6059142 53.87076728 29.76953125 50.71484375 C29.13861572 49.63847656 28.5077002 48.56210938 27.85766602 47.453125 C27.52437286 46.88013672 27.19107971 46.30714844 26.84768677 45.71679688 C25.08032395 42.67902317 23.2986755 39.64967912 21.515625 36.62109375 C20.96401451 35.68364822 20.96401451 35.68364822 20.40126038 34.7272644 C15.71516958 26.78812412 10.84632648 18.96118973 5.96606445 11.14038086 C5.32886475 10.11436768 4.69166504 9.08835449 4.03515625 8.03125 C3.4719165 7.12955078 2.90867676 6.22785156 2.32836914 5.29882812 C1 3 1 3 0 0 Z " fill="#16B26D" transform="translate(54,82)"/>
<path d="M0 0 C0.495 0.99 0.495 0.99 1 2 C0.24658203 3.64135742 0.24658203 3.64135742 -0.9921875 5.60546875 C-1.44505127 6.33338623 -1.89791504 7.06130371 -2.36450195 7.8112793 C-2.86296631 8.59543213 -3.36143066 9.37958496 -3.875 10.1875 C-4.90811464 11.84339915 -5.94065972 13.49965378 -6.97265625 15.15625 C-7.74826904 16.39375 -7.74826904 16.39375 -8.53955078 17.65625 C-10.5044692 20.80957946 -12.41290497 23.99455406 -14.3125 27.1875 C-20.47340116 37.499527 -26.74604606 47.74426403 -33 58 C-34.08622755 54.74131735 -33.91122669 53.60795726 -33.22265625 50.33203125 C-33.03896484 49.43935547 -32.85527344 48.54667969 -32.66601562 47.62695312 C-32.46685547 46.69818359 -32.26769531 45.76941406 -32.0625 44.8125 C-31.86720703 43.87212891 -31.67191406 42.93175781 -31.47070312 41.96289062 C-30.98734119 39.64039546 -30.4968617 37.31963794 -30 35 C-28.515 34.505 -28.515 34.505 -27 34 C-26.32440057 32.33520514 -25.65159332 30.66920167 -24.99560547 28.99658203 C-23.10851756 25.21222575 -20.0142372 22.41360655 -17.0625 19.4375 C-12.87389333 15.16190254 -9.23211691 11.0748623 -6 6 C-4.37163262 4.2958946 -2.71230248 2.61974559 -1 1 C-0.67 0.67 -0.34 0.34 0 0 Z " fill="#0EB268" transform="translate(145,84)"/>
<path d="M0 0 C4.14028346 3.61668789 6.57478639 7.99709837 9.3125 12.6875 C10.37076784 14.4767553 11.42937861 16.26580781 12.48828125 18.0546875 C13.05111816 19.00956055 13.61395508 19.96443359 14.19384766 20.94824219 C17.43275285 26.42084491 20.7206662 31.86406323 24 37.3125 C27.72797096 43.50811607 31.44689126 49.70211475 35 56 C34.85636473 54.62476865 34.70996483 53.24982598 34.5625 51.875 C34.47484375 51.05386719 34.3871875 50.23273438 34.296875 49.38671875 C34.01186103 46.83295092 34.01186103 46.83295092 33.3125 43.6875 C32.96517943 40.7005431 33.37755411 39.48138783 35 37 C40.17846031 41.78011721 40.64441431 45.64077203 40.95703125 52.5859375 C40.97121094 53.38257813 40.98539063 54.17921875 41 55 C41.66 54.67 42.32 54.34 43 54 C42 56 41 58 40 60 C44.62 60 49.24 60 54 60 C54 60.33 54 60.66 54 61 C48.06 61.33 42.12 61.66 36 62 C33.47825974 57.85471583 30.9573049 53.70896035 28.4375 49.5625 C28.05784088 48.93784851 27.67818176 48.31319702 27.28701782 47.6696167 C21.09003569 37.47116025 14.93363161 27.24935576 8.82397461 16.99829102 C5.34142067 11.15634625 5.34142067 11.15634625 1.58203125 5.4921875 C0 3 0 3 0 0 Z " fill="#AAEDCE" transform="translate(54,84)"/>
<path d="M0 0 C-0.9866715 7.30136909 -2.21806257 14.35295461 -4.28125 21.4296875 C-4.97211622 23.90028519 -5.50188056 26.35949684 -6 28.875 C-7.36230287 35.09950581 -10.40032171 38.64895297 -15 43 C-16.64800856 39.33552568 -17.33580973 36.18796534 -17.625 32.1875 C-17.69976562 31.21167969 -17.77453125 30.23585938 -17.8515625 29.23046875 C-17.92503906 28.12638672 -17.92503906 28.12638672 -18 27 C-17.34 27 -16.68 27 -16 27 C-15.34 28.65 -14.68 30.3 -14 32 C-13.67 31.34 -13.34 30.68 -13 30 C-12.34 30 -11.68 30 -11 30 C-10.67 30.99 -10.34 31.98 -10 33 C-7.84794024 29.77191036 -7.80671178 29.10393587 -8 25.4375 C-8.125 23.05859375 -8.125 23.05859375 -8 21 C-7.34 20.34 -6.68 19.68 -6 19 C-5.75787127 17.01871492 -5.75787127 17.01871492 -5.875 14.875 C-5.91625 13.59625 -5.9575 12.3175 -6 11 C-7.32 10.34 -8.64 9.68 -10 9 C-9.67 9.99 -9.34 10.98 -9 12 C-9.99 12.495 -9.99 12.495 -11 13 C-11 12.34 -11 11.68 -11 11 C-11.66 10.67 -12.32 10.34 -13 10 C-11.21371169 8.32722165 -9.4214925 6.66175557 -7.625 5 C-6.86316406 4.28457031 -6.86316406 4.28457031 -6.0859375 3.5546875 C-2.2265625 0 -2.2265625 0 0 0 Z " fill="#10B26B" transform="translate(122,82)"/>
<path d="M0 0 C3.0593145 3.0593145 3.02143904 6.64223658 3.6875 10.8125 C3.82994141 11.62009766 3.97238281 12.42769531 4.11914062 13.25976562 C5.07528811 19.06800484 5.38227641 22.92658538 2 28 C-0.46800047 26.84826645 -2.04783565 25.95216435 -4 24 C-3.78871782 21.26225904 -3.46927389 18.69495618 -3 16 C-2.81606689 14.93458984 -2.81606689 14.93458984 -2.62841797 13.84765625 C-2.24781213 11.72831851 -1.84660003 9.61400972 -1.4375 7.5 C-1.22963867 6.40945312 -1.22963867 6.40945312 -1.01757812 5.296875 C-0.68063335 3.53081963 -0.34064317 1.76534574 0 0 Z " fill="#05B163" transform="translate(100,104)"/>
<path d="M0 0 C0.51046875 0.15339844 1.0209375 0.30679688 1.546875 0.46484375 C4.7749338 1.16905403 7.95418001 1.34888204 11.25 1.5625 C12.51328125 1.64628906 13.7765625 1.73007812 15.078125 1.81640625 C16.04234375 1.87699219 17.0065625 1.93757813 18 2 C18 1.34 18 0.68 18 0 C19.32 0.33 20.64 0.66 22 1 C22 2.98 22 4.96 22 7 C21.01 7.495 21.01 7.495 20 8 C20 7.01 20 6.02 20 5 C19.34 5 18.68 5 18 5 C18 4.34 18 3.68 18 3 C13.71 3 9.42 3 5 3 C5 3.66 5 4.32 5 5 C4.2575 5.226875 3.515 5.45375 2.75 5.6875 C-0.63546867 7.30329186 -2.04210415 8.80935492 -4 12 C-4.91828794 14.86871868 -4.91828794 14.86871868 -4 18 C-1.88985977 20.89555223 0.47535337 23.46247252 3 26 C2.67 26.66 2.34 27.32 2 28 C-0.82768423 27.65112987 -1.79600094 27.24938641 -3.6328125 25.00390625 C-4.12523437 24.19824219 -4.61765625 23.39257812 -5.125 22.5625 C-6.65797246 20.08829834 -7.93721412 18.06278588 -10 16 C-10 15.01 -10 14.02 -10 13 C-9.443125 12.79375 -8.88625 12.5875 -8.3125 12.375 C-4.23919685 9.95303596 -1.47862472 6.69359516 -0.1875 2.125 C-0.125625 1.42375 -0.06375 0.7225 0 0 Z " fill="#B2F1D6" transform="translate(54,56)"/>
<path d="M0 0 C0.33 0.99 0.66 1.98 1 3 C1.66 3 2.32 3 3 3 C3 4.65 3 6.3 3 8 C1.68 8.33 0.36 8.66 -1 9 C-1.04898438 9.58265625 -1.09796875 10.1653125 -1.1484375 10.765625 C-1.7693857 17.57464321 -2.80877099 24.26897784 -4 31 C-3.34 30.67 -2.68 30.34 -2 30 C-2.66 31.98 -3.32 33.96 -4 36 C-10.27 36 -16.54 36 -23 36 C-23 35.67 -23 35.34 -23 35 C-18.05 35 -13.1 35 -8 35 C-8.33 33.68 -8.66 32.36 -9 31 C-8.67 30.01 -8.34 29.02 -8 28 C-7.34 28 -6.68 28 -6 28 C-5.34 23.05 -4.68 18.1 -4 13 C-5.32 14.32 -6.64 15.64 -8 17 C-7.5873879 14.21486833 -6.95776097 12.94931316 -5.125 10.75 C-2.46206775 7.30385239 -1.39468426 4.11431858 0 0 Z " fill="#9AEFCA" transform="translate(116,110)"/>
<path d="M0 0 C4.14028346 3.61668789 6.57478639 7.99709837 9.3125 12.6875 C10.37076784 14.4767553 11.42937861 16.26580781 12.48828125 18.0546875 C13.05111816 19.00956055 13.61395508 19.96443359 14.19384766 20.94824219 C17.43275285 26.42084491 20.7206662 31.86406323 24 37.3125 C27.72797096 43.50811607 31.44689126 49.70211475 35 56 C35.66 56 36.32 56 37 56 C37 57.32 37 58.64 37 60 C33.25247769 58.7508259 32.91584274 57.66318324 30.953125 54.3125 C30.36249268 53.31516846 29.77186035 52.31783691 29.16333008 51.2902832 C28.53193115 50.20448975 27.90053223 49.11869629 27.25 48 C26.2491663 46.30511711 25.24831923 44.61024193 24.24665833 42.91584778 C23.20062667 41.14388523 22.15839199 39.36973101 21.11669922 37.59521484 C17.71792821 31.81281375 14.26310218 26.06407389 10.8125 20.3125 C9.87809082 18.74725586 9.87809082 18.74725586 8.92480469 17.15039062 C5.38864839 11.22601745 5.38864839 11.22601745 1.57421875 5.48046875 C0 3 0 3 0 0 Z " fill="#99F1CA" transform="translate(54,84)"/>
<path d="M0 0 C3.82504319 2.4907258 7.56944283 4.97303779 11 8 C11 8.66 11 9.32 11 10 C11.99 10.33 12.98 10.66 14 11 C13.34 11.66 12.68 12.32 12 13 C11.01 12.67 10.02 12.34 9 12 C9 11.01 9 10.02 9 9 C8.34 9 7.68 9 7 9 C7.350625 9.70125 7.70125 10.4025 8.0625 11.125 C9.1639193 14.50268586 8.79516141 16.58080593 8 20 C7.67 20 7.34 20 7 20 C7 18.02 7 16.04 7 14 C6.34 14 5.68 14 5 14 C5.350625 15.216875 5.70125 16.43375 6.0625 17.6875 C6.93456352 21.12086896 7.07703169 23.55349859 6 27 C5.67 27 5.34 27 5 27 C4.15535944 23.62772763 3.32633353 20.25180079 2.5 16.875 C2.14228516 15.44800781 2.14228516 15.44800781 1.77734375 13.9921875 C0.62214067 9.23935199 -0.33216612 4.93266691 0 0 Z " fill="#11B269" transform="translate(80,82)"/>
<path d="M0 0 C3.1323061 4.69845916 3.61146855 10.01254616 4.6875 15.5 C4.92533203 16.65371094 5.16316406 17.80742188 5.40820312 18.99609375 C5.62798828 20.10082031 5.84777344 21.20554687 6.07421875 22.34375 C6.27619873 23.35630859 6.47817871 24.36886719 6.6862793 25.41210938 C7 28 7 28 6 31 C3.99397361 28.71336873 1.99508435 26.42114438 0 24.125 C-0.57234375 23.47402344 -1.1446875 22.82304688 -1.734375 22.15234375 C-2.54648438 21.21455078 -2.54648438 21.21455078 -3.375 20.2578125 C-3.87773438 19.6817627 -4.38046875 19.10571289 -4.8984375 18.51220703 C-6 17 -6 17 -6 15 C-3.03 15.495 -3.03 15.495 0 16 C0 10.72 0 5.44 0 0 Z " fill="#1AB370" transform="translate(77,82)"/>
<path d="M0 0 C0.66 0.66 1.32 1.32 2 2 C1.71875 4.62890625 1.71875 4.62890625 1 8 C0.7628125 9.26714844 0.525625 10.53429687 0.28125 11.83984375 C-0.10875942 13.89034783 -0.50057373 15.94048511 -0.89453125 17.99023438 C-1.02214844 18.66248047 -1.14976563 19.33472656 -1.28125 20.02734375 C-1.39533203 20.62281006 -1.50941406 21.21827637 -1.62695312 21.83178711 C-2.15092345 24.87719314 -2.56298643 27.94090504 -3 31 C0.63 27.04 4.26 23.08 8 19 C8 23.20547571 5.63261876 25.16710361 3 28.1875 C2.52304688 28.74630859 2.04609375 29.30511719 1.5546875 29.88085938 C0.37633794 31.25952836 -0.81098952 32.63051472 -2 34 C-2.99 33.67 -3.98 33.34 -5 33 C-6.38699595 27.32592567 -5.50818835 23.40439067 -3.83203125 17.85546875 C-2.79688402 14.30292123 -2.1025 10.72929824 -1.4296875 7.09375 C-1 5 -1 5 0 2 C-2.64 3.98 -5.28 5.96 -8 8 C-8 7.01 -8 6.02 -8 5 C-5.36740403 2.58085776 -3.40571201 1.13523734 0 0 Z " fill="#9BF2CD" transform="translate(122,80)"/>
<path d="M0 0 C0.33 0.66 0.66 1.32 1 2 C0.18310547 3.75244141 0.18310547 3.75244141 -1.1328125 5.8515625 C-1.60976562 6.62113281 -2.08671875 7.39070313 -2.578125 8.18359375 C-3.08859375 8.98925781 -3.5990625 9.79492188 -4.125 10.625 C-4.61226562 11.40746094 -5.09953125 12.18992187 -5.6015625 12.99609375 C-7.0602821 15.33547652 -8.52956909 17.66796543 -10 20 C-10.95645709 21.52819049 -11.91223766 23.0568047 -12.8671875 24.5859375 C-13.2782373 25.24384277 -13.68928711 25.90174805 -14.11279297 26.57958984 C-14.55196045 27.28269287 -14.55196045 27.28269287 -15 28 C-15.33 27.34 -15.66 26.68 -16 26 C-15.67 25.34 -15.34 24.68 -15 24 C-16.32 23.34 -17.64 22.68 -19 22 C-18.34644531 21.27296875 -18.34644531 21.27296875 -17.6796875 20.53125 C-14.59172584 17.05562216 -11.62077749 13.56649266 -8.875 9.8125 C-6.48039924 6.55122068 -3.94189914 3.77379062 -1 1 C-0.67 0.67 -0.34 0.34 0 0 Z " fill="#19B06F" transform="translate(145,84)"/>
<path d="M0 0 C0.33 0 0.66 0 1 0 C1.02701408 2.10409639 1.04640223 4.20829178 1.0625 6.3125 C1.07410156 7.48425781 1.08570312 8.65601562 1.09765625 9.86328125 C1 13 1 13 0 16 C-0.66 16 -1.32 16 -2 16 C-2 18.31 -2 20.62 -2 23 C-1.01 23 -0.02 23 1 23 C0.87625 21.8553125 0.87625 21.8553125 0.75 20.6875 C1 18 1 18 2.8125 16.125 C3.534375 15.75375 4.25625 15.3825 5 15 C5.99 15.33 6.98 15.66 8 16 C4.40595137 21.93799339 -0.16358415 27.03605189 -5 32 C-5.33 32 -5.66 32 -6 32 C-6.1267568 27.89549397 -5.77075037 24.45525265 -4.6875 20.5 C-2.89672712 13.71211804 -1.43316828 6.8710763 0 0 Z " fill="#1EB270" transform="translate(124,80)"/>
<path d="M0 0 C1.12696222 3.38088665 0.88020555 4.12842914 -0.25 7.375 C-0.50265625 8.12523438 -0.7553125 8.87546875 -1.015625 9.6484375 C-3.14686743 14.73973886 -5.89795501 18.13164713 -10 21.8125 C-10.86625 22.60269531 -11.7325 23.39289063 -12.625 24.20703125 C-15 26 -15 26 -18 26 C-12.03619407 17.3077259 -6.07022413 8.61847522 0 0 Z " fill="#30B47C" transform="translate(125,64)"/>
<path d="M0 0 C4.016309 1.29095647 5.21984594 3.70573831 7.0703125 7.24609375 C9.11480679 11.1426032 9.11480679 11.1426032 13 13 C13 17 13 17 11.25 19 C10.5075 19.66 9.765 20.32 9 21 C8.2575 21.7425 7.515 22.485 6.75 23.25 C6.1725 23.8275 5.595 24.405 5 25 C4.67 24.34 4.34 23.68 4 23 C4.680625 22.13375 5.36125 21.2675 6.0625 20.375 C8.259306 17.19690527 8.259306 17.19690527 8 13.875 C6.87923284 10.65279441 5.49975925 9.25784707 3 7 C3 6.34 3 5.68 3 5 C1.68 5 0.36 5 -1 5 C-1 4.34 -1 3.68 -1 3 C-3.12577907 3.0868276 -5.25069581 3.1949951 -7.375 3.3125 C-8.55835938 3.37050781 -9.74171875 3.42851563 -10.9609375 3.48828125 C-11.96382812 3.65714844 -12.96671875 3.82601562 -14 4 C-14.99 5.485 -14.99 5.485 -16 7 C-16.66 7 -17.32 7 -18 7 C-18 5.02 -18 3.04 -18 1 C-16.17662109 1.01740234 -16.17662109 1.01740234 -14.31640625 1.03515625 C-12.73177236 1.04453278 -11.14713682 1.05363313 -9.5625 1.0625 C-8.76005859 1.07087891 -7.95761719 1.07925781 -7.13085938 1.08789062 C-5.08704779 1.0965143 -3.04316098 1.0522815 -1 1 C-0.67 0.67 -0.34 0.34 0 0 Z " fill="#C6F9E7" transform="translate(144,56)"/>
<path d="M0 0 C0.90105469 0.00902344 1.80210937 0.01804688 2.73046875 0.02734375 C3.41753906 0.03894531 4.10460937 0.05054688 4.8125 0.0625 C3.38640841 3.42452939 1.66901485 5.29925579 -1.125 7.625 C-4.07056043 10.09440133 -4.07056043 10.09440133 -6.81640625 12.77734375 C-8.1875 14.0625 -8.1875 14.0625 -10.1875 14.0625 C-9.5275 9.7725 -8.8675 5.4825 -8.1875 1.0625 C-5.17259443 0.05753148 -3.14568308 -0.04085303 0 0 Z " fill="#06B365" transform="translate(136.1875,59.9375)"/>
<path d="M0 0 C3.96 0 7.92 0 12 0 C14.45489316 5.12325529 15.50341703 9.33895411 16 15 C10.11928532 10.87098757 4.80838659 6.35828186 0 1 C0 0.67 0 0.34 0 0 Z " fill="#1AAE6D" transform="translate(60,60)"/>
<path d="M0 0 C3.35714437 3.12824816 5.94438002 6.58954242 8.5 10.375 C8.87769531 10.92671875 9.25539063 11.4784375 9.64453125 12.046875 C12.12535295 15.67859337 14.56549385 19.33717484 17 23 C16.67 23.66 16.34 24.32 16 25 C14.05191687 23.30260044 12.11711646 21.59318213 10.1875 19.875 C9.64029297 19.400625 9.09308594 18.92625 8.52929688 18.4375 C2.53252957 13.05858145 0.67988345 7.886648 0 0 Z " fill="#24B075" transform="translate(76,65)"/>
<path d="M0 0 C0.66 0 1.32 0 2 0 C2 1.98 2 3.96 2 6 C2.99 6 3.98 6 5 6 C5.66 4.68 6.32 3.36 7 2 C7 5.83897602 6.86685092 6.73986351 5.1015625 9.85546875 C4.70453125 10.55994141 4.3075 11.26441406 3.8984375 11.99023438 C3.47820312 12.71533203 3.05796875 13.44042969 2.625 14.1875 C2.00625 15.29254883 2.00625 15.29254883 1.375 16.41992188 C-1.7310469 21.86552345 -1.7310469 21.86552345 -4 23 C-2.86364454 15.28728953 -1.61840635 7.62717033 0 0 Z " fill="#24B274" transform="translate(115,119)"/>
<path d="M0 0 C6.78514552 6.56626986 13.03393109 13.68675424 19 21 C17.68 21.99 16.36 22.98 15 24 C11.51570519 19.85783134 8.65799739 15.46289447 5.8125 10.875 C5.13670898 9.80185547 5.13670898 9.80185547 4.44726562 8.70703125 C4.01736328 8.01738281 3.58746094 7.32773438 3.14453125 6.6171875 C2.75628174 5.99440918 2.36803223 5.37163086 1.96801758 4.72998047 C1 3 1 3 0 0 Z " fill="#17B171" transform="translate(54,82)"/>
<path d="M0 0 C0.33 0 0.66 0 1 0 C1.50643553 2.22771342 2.0048962 4.45724076 2.5 6.6875 C2.7784375 7.92886719 3.056875 9.17023438 3.34375 10.44921875 C3.89354126 13.42398218 4.13795705 15.99368602 4 19 C0.71165383 16.20957375 -1.12735689 12.52671824 -3.1875 8.8125 C-3.55552734 8.15830078 -3.92355469 7.50410156 -4.30273438 6.83007812 C-5.2062466 5.22253039 -6.1037241 3.61159349 -7 2 C-5.02 2.66 -3.04 3.32 -1 4 C-0.67 2.68 -0.34 1.36 0 0 Z " fill="#1AB371" transform="translate(86,122)"/>
<path d="M0 0 C10.25352173 8.00274866 17.93429429 18.8951091 26 29 C25.67 29.66 25.34 30.32 25 31 C0 3.63581489 0 3.63581489 0 0 Z " fill="#90EFC5" transform="translate(57,83)"/>
<path d="M0 0 C0.66 0 1.32 0 2 0 C1.48956966 4.69947931 -0.67691454 7.88524863 -3.375 11.625 C-3.77460937 12.19734375 -4.17421875 12.7696875 -4.5859375 13.359375 C-6.54048109 16.12402547 -8.49050447 18.71716858 -11 21 C-11 18.69 -11 16.38 -11 14 C-10.34 14 -9.68 14 -9 14 C-9.33 12.68 -9.66 11.36 -10 10 C-9.01 10.33 -8.02 10.66 -7 11 C-6.67 9.68 -6.34 8.36 -6 7 C-5.01 7 -4.02 7 -3 7 C-2.67 6.01 -2.34 5.02 -2 4 C-1.34 4 -0.68 4 0 4 C0 2.68 0 1.36 0 0 Z " fill="#0FB36A" transform="translate(124,57)"/>
<path d="M0 0 C4.20626034 1.50223584 5.73900021 4.28550034 8 8 C3.38 8 -1.24 8 -6 8 C-4.21844267 4.43688534 -2.83236991 2.64354525 0 0 Z " fill="#15B16C" transform="translate(100,136)"/>
<path d="M0 0 C0.66 0 1.32 0 2 0 C1.34 1.65 0.68 3.3 0 5 C1.32 4.01 2.64 3.02 4 2 C4.66 2.33 5.32 2.66 6 3 C4.91666667 4.08333333 3.83333333 5.16666667 2.75 6.25 C2.11320312 6.89066406 1.47640625 7.53132813 0.8203125 8.19140625 C-0.54972846 9.5526272 -1.95443888 10.87908844 -3.375 12.1875 C-5.127641 14.14236881 -5.63242682 15.42698777 -6 18 C-6.66 18 -7.32 18 -8 18 C-8.33 15.69 -8.66 13.38 -9 11 C-8.01 11 -7.02 11 -6 11 C-5.7525 10.29875 -5.505 9.5975 -5.25 8.875 C-3.82819762 5.60485452 -2.12753712 2.858878 0 0 Z " fill="#A3EFCE" transform="translate(108,85)"/>
<path d="M0 0 C1.32 0 2.64 0 4 0 C4.37125 1.051875 4.7425 2.10375 5.125 3.1875 C6.35517109 6.1268992 7.5839342 7.71309232 10.125 9.625 C13 12 13 12 13.875 14.8125 C13.936875 15.8953125 13.936875 15.8953125 14 17 C13.34 17 12.68 17 12 17 C11.67 17.99 11.34 18.98 11 20 C10.731875 18.9275 10.46375 17.855 10.1875 16.75 C9.13772173 13.43491072 8.25387672 11.56122354 6 9 C5.01 10.485 5.01 10.485 4 12 C3.67 10.02 3.34 8.04 3 6 C2.01 5.67 1.02 5.34 0 5 C0 3.35 0 1.7 0 0 Z " fill="#C0F4DE" transform="translate(83,113)"/>
<path d="M0 0 C3.0593145 3.0593145 3.02143904 6.64223658 3.6875 10.8125 C3.82994141 11.62009766 3.97238281 12.42769531 4.11914062 13.25976562 C4.80699342 17.43821471 5.25170302 20.85845915 4 25 C3.67 25 3.34 25 3 25 C2.67 21.37 2.34 17.74 2 14 C1.01 14.33 0.02 14.66 -1 15 C-1.97798721 11.20431539 -1.92653069 8.4994001 -1.0625 4.6875 C-0.86785156 3.80449219 -0.67320313 2.92148438 -0.47265625 2.01171875 C-0.31667969 1.34785156 -0.16070312 0.68398437 0 0 Z " fill="#1CB270" transform="translate(100,104)"/>
<path d="M0 0 C0.66 0.33 1.32 0.66 2 1 C-14.03225806 28.51612903 -14.03225806 28.51612903 -17 30 C-12.86214279 19.20307955 -6.31729968 9.61633396 0 0 Z " fill="#9DF3CC" transform="translate(147,83)"/>
<path d="M0 0 C1.32 0.33 2.64 0.66 4 1 C4 1.33 4 1.66 4 2 C4.99 2.33 5.98 2.66 7 3 C6.67 4.32 6.34 5.64 6 7 C5.01 7 4.02 7 3 7 C2.67 7.99 2.34 8.98 2 10 C0.35 9.67 -1.3 9.34 -3 9 C-2.42655063 6.13275314 -2.1385485 5.1385485 0 3 C0 2.01 0 1.02 0 0 Z " fill="#03B463" transform="translate(53,64)"/>
<path d="M0 0 C4.29 0 8.58 0 13 0 C13 0.33 13 0.66 13 1 C9.37 1.33 5.74 1.66 2 2 C6.17530822 6.25881438 10.35486324 10.26123139 15 14 C14.34 14.66 13.68 15.32 13 16 C12.360625 15.34 11.72125 14.68 11.0625 14 C7.2170765 10.14346256 3.09075581 6.59166578 -1 3 C-0.67 2.01 -0.34 1.02 0 0 Z " fill="#8EE8BF" transform="translate(59,59)"/>
<path d="M0 0 C1.32 0.33 2.64 0.66 4 1 C4 2.98 4 4.96 4 7 C3.01 7.495 3.01 7.495 2 8 C2 7.01 2 6.02 2 5 C1.34 5 0.68 5 0 5 C0 4.34 0 3.68 0 3 C-4.29 3 -8.58 3 -13 3 C-13 3.66 -13 4.32 -13 5 C-14.32 4.67 -15.64 4.34 -17 4 C-17 3.01 -17 2.02 -17 1 C-11.39 1.33 -5.78 1.66 0 2 C0 1.34 0 0.68 0 0 Z " fill="#C3F9E1" transform="translate(72,56)"/>
<path d="M0 0 C0.66 0.66 1.32 1.32 2 2 C2.66 1.34 3.32 0.68 4 0 C4.45375 0.804375 4.9075 1.60875 5.375 2.4375 C6.74725665 5.08856572 6.74725665 5.08856572 9 6 C9.625 8.0625 9.625 8.0625 10 10 C9.01 10 8.02 10 7 10 C5.3125 7.5 5.3125 7.5 4 5 C4.33 7.97 4.66 10.94 5 14 C1.77307451 11.84871634 1.58671036 11.63210677 0.8125 8.125 C0.65394531 7.44695312 0.49539062 6.76890625 0.33203125 6.0703125 C0 4 0 4 0 0 Z " fill="#91E9C2" transform="translate(73,61)"/>
<path d="M0 0 C0.99 0.33 1.98 0.66 3 1 C3 2.32 3 3.64 3 5 C1.68 5 0.36 5 -1 5 C-1 4.34 -1 3.68 -1 3 C-3.12577907 3.0868276 -5.25069581 3.1949951 -7.375 3.3125 C-8.55835938 3.37050781 -9.74171875 3.42851563 -10.9609375 3.48828125 C-11.96382812 3.65714844 -12.96671875 3.82601562 -14 4 C-14.99 5.485 -14.99 5.485 -16 7 C-16.66 7 -17.32 7 -18 7 C-18 5.02 -18 3.04 -18 1 C-16.17662109 1.01740234 -16.17662109 1.01740234 -14.31640625 1.03515625 C-12.73177236 1.04453278 -11.14713682 1.05363313 -9.5625 1.0625 C-8.76005859 1.07087891 -7.95761719 1.07925781 -7.13085938 1.08789062 C-5.08704779 1.0965143 -3.04316098 1.0522815 -1 1 C-0.67 0.67 -0.34 0.34 0 0 Z " fill="#C4FAE1" transform="translate(144,56)"/>
<path d="M0 0 C4.29 0 8.58 0 13 0 C13.33 0.99 13.66 1.98 14 3 C12.40423801 4.50893816 10.79810089 6.00691076 9.1875 7.5 C8.29417969 8.3353125 7.40085938 9.170625 6.48046875 10.03125 C4 12 4 12 1 12 C1.91447846 10.91481889 2.83170407 9.83195262 3.75 8.75 C4.26046875 8.14671875 4.7709375 7.5434375 5.296875 6.921875 C7.11447281 4.87082426 9.06215701 2.93784299 11 1 C5.06 1.495 5.06 1.495 -1 2 C-0.67 1.34 -0.34 0.68 0 0 Z " fill="#8BE4BA" transform="translate(130,59)"/>
<path d="M0 0 C0.66 0 1.32 0 2 0 C2 1.65 2 3.3 2 5 C3.32 5.66 4.64 6.32 6 7 C5.0479279 8.00596297 4.08812654 9.00461563 3.125 10 C2.59132812 10.556875 2.05765625 11.11375 1.5078125 11.6875 C0 13 0 13 -2 13 C-1.34 8.71 -0.68 4.42 0 0 Z " fill="#21B174" transform="translate(128,61)"/>
<path d="M0 0 C1.32 0 2.64 0 4 0 C4.33 0.66 4.66 1.32 5 2 C6.2684375 2.7115625 6.2684375 2.7115625 7.5625 3.4375 C8.366875 3.953125 9.17125 4.46875 10 5 C10 5.99 10 6.98 10 8 C9.401875 7.79375 8.80375 7.5875 8.1875 7.375 C5.71549154 6.69328085 5.71549154 6.69328085 3 9 C2.67 7.68 2.34 6.36 2 5 C1.34 5 0.68 5 0 5 C0.33 4.01 0.66 3.02 1 2 C0.67 1.34 0.34 0.68 0 0 Z " fill="#02B360" transform="translate(142,64)"/>
<path d="M0 0 C0.33 0 0.66 0 1 0 C1.13277344 0.63808594 1.26554687 1.27617188 1.40234375 1.93359375 C1.57894531 2.75988281 1.75554687 3.58617188 1.9375 4.4375 C2.11152344 5.26121094 2.28554687 6.08492188 2.46484375 6.93359375 C2.80752994 8.97661204 2.80752994 8.97661204 4 10 C4.04080783 11.99958364 4.04254356 14.00045254 4 16 C3.38125 16.103125 2.7625 16.20625 2.125 16.3125 C-0.36526484 16.87525373 -0.36526484 16.87525373 -2 20 C-2.66 20 -3.32 20 -4 20 C-2.79618552 17.50638429 -1.54571278 15.31856917 0 13 C0.24246783 9.79620876 0.24246783 9.79620876 0.125 6.3125 C0.10695313 5.13300781 0.08890625 3.95351562 0.0703125 2.73828125 C0.04710938 1.83464844 0.02390625 0.93101563 0 0 Z " fill="#ACF1CF" transform="translate(104,115)"/>
<path d="M0 0 C1.9249647 1.82193842 3.37535531 3.89235283 5 6 C4.67 6.66 4.34 7.32 4 8 C1.5 6.625 1.5 6.625 -1 5 C-1 4.34 -1 3.68 -1 3 C-1.99 3.33 -2.98 3.66 -4 4 C-4 4.99 -4 5.98 -4 7 C-4.99 7.33 -5.98 7.66 -7 8 C-7 7.34 -7 6.68 -7 6 C-7.66 5.67 -8.32 5.34 -9 5 C-3.375 0 -3.375 0 0 0 Z " fill="#23B475" transform="translate(147,61)"/>
<path d="M0 0 C4.73831776 4.25233645 4.73831776 4.25233645 5.875 7.5 C6.00910851 10.18217018 5.66717172 12.40544332 5 15 C4.34 15 3.68 15 3 15 C2.49564306 13.0636296 1.99666126 11.12585854 1.5 9.1875 C1.2215625 8.10855469 0.943125 7.02960938 0.65625 5.91796875 C0 3 0 3 0 0 Z " fill="#29AE76" transform="translate(88,121)"/>
<path d="M0 0 C0.66 0.66 1.32 1.32 2 2 C1.6875 4.75 1.6875 4.75 1 8 C0.814375 9.11375 0.62875 10.2275 0.4375 11.375 C0.293125 12.24125 0.14875 13.1075 0 14 C-2 11 -2 11 -1.7578125 8.73828125 C-0.87890625 5.36914062 -0.87890625 5.36914062 0 2 C-2.64 3.98 -5.28 5.96 -8 8 C-8 7.01 -8 6.02 -8 5 C-5.36740403 2.58085776 -3.40571201 1.13523734 0 0 Z " fill="#91E8C1" transform="translate(122,80)"/>
<path d="M0 0 C2.63884562 2.40111178 4.36413529 5.00555028 6.1875 8.0625 C6.71730469 8.94035156 7.24710937 9.81820312 7.79296875 10.72265625 C9 13 9 13 9 15 C8.21625 14.814375 7.4325 14.62875 6.625 14.4375 C4.02910225 13.74037734 4.02910225 13.74037734 2 15 C2.19464844 14.28457031 2.38929687 13.56914063 2.58984375 12.83203125 C3.05622495 9.6117801 2.58436947 7.75310842 1.5625 4.6875 C1.27503906 3.80449219 0.98757812 2.92148438 0.69140625 2.01171875 C0.46324219 1.34785156 0.23507813 0.68398437 0 0 Z " fill="#1DB573" transform="translate(65,105)"/>
<path d="M0 0 C1.25309758 3.75929275 0.53280163 6.54846785 -0.25 10.3125 C-0.50265625 11.60800781 -0.7553125 12.90351562 -1.015625 14.23828125 C-1.96265767 17.85729896 -3.10982194 20.77987707 -5 24 C-5.66 24.33 -6.32 24.66 -7 25 C-5.125 19.25 -5.125 19.25 -4 17 C-3.96984727 14.69116277 -4.06653176 12.40065744 -4.16015625 10.09375 C-4 8 -4 8 -2 6 C-1.28591666 4.01643517 -0.61382258 2.01684563 0 0 Z " fill="#27B075" transform="translate(118,95)"/>
<path d="M0 0 C2.97 0.495 2.97 0.495 6 1 C6.73080266 2.97746603 7.39421747 4.98072489 8 7 C7.67 7.66 7.34 8.32 7 9 C6.9603287 10.66619446 6.95615553 12.33391013 7 14 C5.10331936 11.15497903 3.76736522 8.42700115 2.375 5.3125 C1.92898437 4.31863281 1.48296875 3.32476562 1.0234375 2.30078125 C0.68570313 1.54152344 0.34796875 0.78226562 0 0 Z " fill="#BCF5DC" transform="translate(73,74)"/>
<path d="M0 0 C-1.32 0.33 -2.64 0.66 -4 1 C-2.5394074 3.50387303 -1.08462714 5.89029816 0.6875 8.1875 C2 10 2 10 2 12 C1.34 12 0.68 12 0 12 C0 11.34 0 10.68 0 10 C-0.804375 9.7525 -1.60875 9.505 -2.4375 9.25 C-5 8 -5 8 -5.75 6.125 C-5.8325 5.42375 -5.915 4.7225 -6 4 C-6.185625 3.2575 -6.37125 2.515 -6.5625 1.75 C-6.706875 1.1725 -6.85125 0.595 -7 0 C-3.86650268 -1.04449911 -3.01031744 -0.93423645 0 0 Z " fill="#26B376" transform="translate(48,68)"/>
<path d="M0 0 C1.26977059 3.80931176 0.52074507 5.81618993 -0.4375 9.6875 C-0.86869141 11.45673828 -0.86869141 11.45673828 -1.30859375 13.26171875 C-1.53675781 14.16535156 -1.76492187 15.06898438 -2 16 C-2.33 16 -2.66 16 -3 16 C-4.61050328 6.00437637 -4.61050328 6.00437637 -2.0625 1.8125 C-1.381875 1.214375 -0.70125 0.61625 0 0 Z " fill="#28AC74" transform="translate(112,122)"/>
<path d="M0 0 C0.66 0.99 1.32 1.98 2 3 C0.25 6.875 0.25 6.875 -2 8 C-3.12706706 10.11015954 -3.12706706 10.11015954 -4.125 12.5625 C-4.47820312 13.38878906 -4.83140625 14.21507812 -5.1953125 15.06640625 C-5.59363281 16.02353516 -5.59363281 16.02353516 -6 17 C-6.99 16.67 -7.98 16.34 -9 16 C-6.03706364 10.64485683 -3.04862331 5.3068628 0 0 Z " fill="#20B273" transform="translate(128,117)"/>
<path d="M0 0 C1.98 0.99 3.96 1.98 6 3 C5.67 4.65 5.34 6.3 5 8 C3.02 7.34 1.04 6.68 -1 6 C-0.67 4.02 -0.34 2.04 0 0 Z " fill="#04B065" transform="translate(80,118)"/>
<path d="M0 0 C0.7421875 1.703125 0.7421875 1.703125 1 4 C-0.6171875 6.359375 -0.6171875 6.359375 -2.875 8.75 C-3.61492187 9.54921875 -4.35484375 10.3484375 -5.1171875 11.171875 C-7 13 -7 13 -8 13 C-8 11.35 -8 9.7 -8 8 C-7.34 8 -6.68 8 -6 8 C-6 7.34 -6 6.68 -6 6 C-5.34 6 -4.68 6 -4 6 C-3.67 5.01 -3.34 4.02 -3 3 C-2.01 3 -1.02 3 0 3 C0 2.01 0 1.02 0 0 Z " fill="#21B071" transform="translate(152,69)"/>
<path d="M0 0 C0.33 0.99 0.66 1.98 1 3 C1.66 3 2.32 3 3 3 C3 4.65 3 6.3 3 8 C1.68 8.33 0.36 8.66 -1 9 C-1.33 10.32 -1.66 11.64 -2 13 C-2.16682272 8.07872966 -2.24828052 4.49656104 0 0 Z " fill="#C2F7DF" transform="translate(116,110)"/>
<path d="M0 0 C2.97 1.98 2.97 1.98 6 4 C5.34 4.66 4.68 5.32 4 6 C3.54188325 7.97235333 3.54188325 7.97235333 3.375 10.125 C3.25125 11.40375 3.1275 12.6825 3 14 C1.20724134 10.88089144 0.65709282 8.32317572 0.375 4.75 C0.30023438 3.85796875 0.22546875 2.9659375 0.1484375 2.046875 C0.09945312 1.37140625 0.05046875 0.6959375 0 0 Z " fill="#28B57A" transform="translate(80,82)"/>
<path d="M0 0 C1.32 0 2.64 0 4 0 C4.33 2.64 4.66 5.28 5 8 C3.35 7.67 1.7 7.34 0 7 C0 4.66666667 0 2.33333333 0 0 Z " fill="#0BB569" transform="translate(68,62)"/>
<path d="M0 0 C2 2 2 2 3 8 C-2.94 8 -8.88 8 -15 8 C-15 7.67 -15 7.34 -15 7 C-10.05 7 -5.1 7 0 7 C-0.33 5.68 -0.66 4.36 -1 3 C-0.67 2.01 -0.34 1.02 0 0 Z " fill="#CFFBEA" transform="translate(108,138)"/>
<path d="M0 0 C0.33 0 0.66 0 1 0 C1.33 2.31 1.66 4.62 2 7 C1.195625 7.45375 0.39125 7.9075 -0.4375 8.375 C-3.08856572 9.74725665 -3.08856572 9.74725665 -4 12 C-4.66 12 -5.32 12 -6 12 C-4.43358249 7.69235185 -2.31663844 3.93828536 0 0 Z " fill="#1FB26F" transform="translate(145,89)"/>
<path d="M0 0 C4.31385796 3.54352618 5.9721398 7.95192247 8 13 C7.01 13.495 7.01 13.495 6 14 C3.8614515 11.8614515 3.57344937 10.86724686 3 8 C1.68 7.67 0.36 7.34 -1 7 C-0.67 4.69 -0.34 2.38 0 0 Z " fill="#22B575" transform="translate(50,80)"/>
<path d="M0 0 C0.66 0.66 1.32 1.32 2 2 C1 5 1 5 -1 8 C-1.99 8 -2.98 8 -4 8 C-4 6.02 -4 4.04 -4 2 C-2.68 1.34 -1.36 0.68 0 0 Z " fill="#03B263" transform="translate(121,117)"/>
<path d="M0 0 C3.68000434 2.75839204 6.49505889 5.62075382 9.3125 9.25 C10.00988281 10.14203125 10.70726563 11.0340625 11.42578125 11.953125 C11.94527344 12.62859375 12.46476562 13.3040625 13 14 C12.67 14.66 12.34 15.32 12 16 C10.36603572 14.27860959 8.74308726 12.54871208 7.125 10.8125 C6.66480469 10.32974609 6.20460938 9.84699219 5.73046875 9.34960938 C3.00397016 6.40578119 1.21861865 3.83094484 0 0 Z " fill="#9FF6CF" transform="translate(70,98)"/>
<path d="M0 0 C0.61694336 1.81152344 0.61694336 1.81152344 1 4 C-0.40367622 6.26229236 -1.77300018 8.20063057 -3.4375 10.25 C-4.0881543 11.08144531 -4.0881543 11.08144531 -4.75195312 11.9296875 C-5.82333224 13.29540154 -6.91021796 14.64892519 -8 16 C-8.33 15.34 -8.66 14.68 -9 14 C-7.58902133 11.54330645 -6.13956406 9.22085376 -4.5625 6.875 C-4.12873047 6.21628906 -3.69496094 5.55757813 -3.24804688 4.87890625 C-2.17250886 3.24787057 -1.08715514 1.62331547 0 0 Z " fill="#93F0C4" transform="translate(119,69)"/>
<path d="M0 0 C0.99 0 1.98 0 3 0 C2.71125 0.53625 2.4225 1.0725 2.125 1.625 C0.83288192 4.35280484 -0.08558592 7.12612718 -1 10 C-1.66 10 -2.32 10 -3 10 C-3.33 7.69 -3.66 5.38 -4 3 C-3.01 3 -2.02 3 -1 3 C-0.67 2.01 -0.34 1.02 0 0 Z " fill="#D4FBEA" transform="translate(103,93)"/>
<path d="M0 0 C0.99 0.33 1.98 0.66 3 1 C2.34 1 1.68 1 1 1 C1 1.99 1 2.98 1 4 C1.66 4.33 2.32 4.66 3 5 C0.66666667 7.33333333 -1.66666667 9.66666667 -4 12 C-4.64767793 14.57061311 -4.64767793 14.57061311 -5 17 C-5.12375 16.360625 -5.2475 15.72125 -5.375 15.0625 C-5.58125 14.381875 -5.7875 13.70125 -6 13 C-6.66 12.67 -7.32 12.34 -8 12 C-5.66666667 9.66666667 -3.33333333 7.33333333 -1 5 C-0.35232207 2.42938689 -0.35232207 2.42938689 0 0 Z " fill="#9BEDC7" transform="translate(54,56)"/>
<path d="M0 0 C1.11841368 2.08770553 1.9708176 3.85408801 2.4375 6.1875 C2.623125 6.785625 2.80875 7.38375 3 8 C3.99 8.33 4.98 8.66 6 9 C5.67 9.99 5.34 10.98 5 12 C2.53199953 10.84826645 0.95216435 9.95216435 -1 8 C-0.96712417 5.27130593 -0.43602229 2.7033382 0 0 Z " fill="#2FB67A" transform="translate(97,120)"/>
<path d="M0 0 C7.68490153 5.0940919 7.68490153 5.0940919 9 8.875 C9 9.57625 9 10.2775 9 11 C8.34 11 7.68 11 7 11 C6.67 11.99 6.34 12.98 6 14 C5.62875 12.4221875 5.62875 12.4221875 5.25 10.8125 C4.23318938 7.17261272 2.46333254 4.87388796 0 2 C0 1.34 0 0.68 0 0 Z " fill="#B3F5D8" transform="translate(88,119)"/>
<path d="M0 0 C1.9375 0.125 1.9375 0.125 4 1 C5.75 3.0625 5.75 3.0625 7 5 C6.34 5.66 5.68 6.32 5 7 C1.34683329 5.75023244 0.21934164 5.32901247 -2 2 C-1.34 1.34 -0.68 0.68 0 0 Z " fill="#1DB271" transform="translate(55,61)"/>
<path d="M0 0 C1.32 0 2.64 0 4 0 C4.28875 0.804375 4.5775 1.60875 4.875 2.4375 C5.73262568 5.1326468 5.73262568 5.1326468 8 6 C8.625 8.5625 8.625 8.5625 9 11 C5.43279004 8.32459253 2.58873576 5.64340588 0 2 C0 1.34 0 0.68 0 0 Z " fill="#25B072" transform="translate(71,97)"/>
<path d="M0 0 C1.65 0 3.3 0 5 0 C4.608125 0.556875 4.21625 1.11375 3.8125 1.6875 C3.4103125 2.8321875 3.4103125 2.8321875 3 4 C3.95093297 5.69514137 4.95107762 7.36368108 6 9 C5.67 9.99 5.34 10.98 5 12 C1 6.375 1 6.375 1 3 C0.34 2.67 -0.32 2.34 -1 2 C-0.67 1.34 -0.34 0.68 0 0 Z " fill="#1DAF6E" transform="translate(81,64)"/>
<path d="M0 0 C2.2477975 2.05233685 3.0022242 3.00667261 4 6 C1 8 1 8 -2 8 C-2 6.02 -2 4.04 -2 2 C-1.34 2 -0.68 2 0 2 C0 1.34 0 0.68 0 0 Z " fill="#17B46D" transform="translate(59,95)"/>
<path d="M0 0 C3.59634744 3.49359465 6.83451967 7.11098131 10 11 C9.01 11.66 8.02 12.32 7 13 C6.01719585 11.39805929 5.03888283 9.79336258 4.0625 8.1875 C3.51722656 7.29417969 2.97195312 6.40085937 2.41015625 5.48046875 C1 3 1 3 0 0 Z " fill="#45B082" transform="translate(54,82)"/>
<path d="M0 0 C2.64 0 5.28 0 8 0 C7.67 2.31 7.34 4.62 7 7 C5.83040013 6.02433888 4.66438823 5.044375 3.5 4.0625 C2.8503125 3.51722656 2.200625 2.97195312 1.53125 2.41015625 C1.0259375 1.94480469 0.520625 1.47945313 0 1 C0 0.67 0 0.34 0 0 Z " fill="#2EB377" transform="translate(88,118)"/>
<path d="M0 0 C0.66 0 1.32 0 2 0 C2.66 1.65 3.32 3.3 4 5 C2.35 6.65 0.7 8.3 -1 10 C-0.67 6.7 -0.34 3.4 0 0 Z " fill="#3AB07F" transform="translate(95,130)"/>
<path d="M0 0 C0.99 0.33 1.98 0.66 3 1 C1.66511872 4.59391114 0.03977277 7.75490696 -2 11 C-3.13643966 7.59068103 -2.86747764 6.99664544 -1.5625 3.8125 C-1.13130859 2.73935547 -1.13130859 2.73935547 -0.69140625 1.64453125 C-0.46324219 1.10183594 -0.23507813 0.55914062 0 0 Z " fill="#1AB16E" transform="translate(126,111)"/>
<path d="M0 0 C0 4.13781054 -1.71509607 5.20919996 -4.5 8.1875 C-5.3353125 9.08855469 -6.170625 9.98960938 -7.03125 10.91796875 C-7.6809375 11.60503906 -8.330625 12.29210937 -9 13 C-9 8.86218946 -7.28490393 7.79080004 -4.5 4.8125 C-3.6646875 3.91144531 -2.829375 3.01039062 -1.96875 2.08203125 C-0.99421875 1.05142578 -0.99421875 1.05142578 0 0 Z " fill="#A4F4CE" transform="translate(130,99)"/>
<path d="M0 0 C1.32 0.33 2.64 0.66 4 1 C3.34 2.32 2.68 3.64 2 5 C1.34 5 0.68 5 0 5 C-0.66 6.32 -1.32 7.64 -2 9 C-2.33 9 -2.66 9 -3 9 C-3 7.35 -3 5.7 -3 4 C-2.34 3.67 -1.68 3.34 -1 3 C-0.67 2.01 -0.34 1.02 0 0 Z " fill="#1FB171" transform="translate(108,80)"/>
<path d="M0 0 C0 3.39593478 -0.52165948 4.06619881 -2.5 6.6875 C-2.9640625 7.31011719 -3.428125 7.93273437 -3.90625 8.57421875 C-4.2671875 9.04472656 -4.628125 9.51523438 -5 10 C-6.32 9.34 -7.64 8.68 -9 8 C-6.03 5.36 -3.06 2.72 0 0 Z " fill="#19B270" transform="translate(137,67)"/>
<path d="M0 0 C0.33 0 0.66 0 1 0 C1.33 3.3 1.66 6.6 2 10 C-0.92824652 7.07175348 -2.27239967 4.7020007 -4 1 C-2.68 1.33 -1.36 1.66 0 2 C0 1.34 0 0.68 0 0 Z " fill="#2FAF78" transform="translate(88,131)"/>
<path d="M0 0 C-0.33 0.66 -0.66 1.32 -1 2 C-1.66 2 -2.32 2 -3 2 C-3.28875 2.639375 -3.5775 3.27875 -3.875 3.9375 C-5 6 -5 6 -7 7 C-7 4.69 -7 2.38 -7 0 C-3.98968256 -0.93423645 -3.13349732 -1.04449911 0 0 Z " fill="#1BB36F" transform="translate(144,83)"/>
<path d="M0 0 C0.99 0 1.98 0 3 0 C2.34 2.97 1.68 5.94 1 9 C-0.32 8.34 -1.64 7.68 -3 7 C-1.125 2.25 -1.125 2.25 0 0 Z " fill="#11AF69" transform="translate(118,134)"/>
<path d="M0 0 C1.32 0 2.64 0 4 0 C6.125 4.625 6.125 4.625 5 8 C2.5 5.6875 2.5 5.6875 0 3 C0 2.01 0 1.02 0 0 Z " fill="#CAF8E5" transform="translate(44,69)"/>
<path d="M0 0 C2.61724095 2.36797991 4.32861729 4.89600354 6 8 C6 8.66 6 9.32 6 10 C5.34 10 4.68 10 4 10 C4 9.34 4 8.68 4 8 C3.34 8 2.68 8 2 8 C0.74335022 5.09399739 0 3.20395416 0 0 Z " fill="#22B574" transform="translate(74,120)"/>
<path d="M0 0 C0.66 0.33 1.32 0.66 2 1 C0.515 6.445 0.515 6.445 -1 12 C-1.33 12 -1.66 12 -2 12 C-2.05395478 10.37536158 -2.09277195 8.75021459 -2.125 7.125 C-2.14820312 6.22007813 -2.17140625 5.31515625 -2.1953125 4.3828125 C-2 2 -2 2 0 0 Z " fill="#25AE72" transform="translate(105,95)"/>
<path d="M0 0 C2.29013653 3.4352048 2.17842973 4.985331 2 9 C-1 7 -1 7 -1.8125 4.5 C-1.874375 3.675 -1.93625 2.85 -2 2 C-1.34 1.34 -0.68 0.68 0 0 Z " fill="#29AC75" transform="translate(105,130)"/>
<path d="M0 0 C0.99 0 1.98 0 3 0 C3.125 5.75 3.125 5.75 2 8 C0.68 7.34 -0.64 6.68 -2 6 C-1.01 5.67 -0.02 5.34 1 5 C0.67 3.35 0.34 1.7 0 0 Z " fill="#21AF70" transform="translate(100,88)"/>
<path d="M0 0 C5.875 2.75 5.875 2.75 7 5 C6.01 6.485 6.01 6.485 5 8 C0 2.25 0 2.25 0 0 Z " fill="#B2F0D5" transform="translate(93,91)"/>
<path d="M0 0 C0.66 1.32 1.32 2.64 2 4 C1.525625 4.4125 1.05125 4.825 0.5625 5.25 C-1.16266518 7.182185 -1.56584875 8.48192275 -2 11 C-3 10 -3 10 -3.25 7.1875 C-2.97826344 3.72285889 -2.31309135 2.50584896 0 0 Z " fill="#2DB578" transform="translate(52,64)"/>
<path d="M0 0 C0.66 0 1.32 0 2 0 C1.49701212 4.40114397 -0.08772731 6.71195019 -3 10 C-3 8.35 -3 6.7 -3 5 C-2.01 4.67 -1.02 4.34 0 4 C0 2.68 0 1.36 0 0 Z " fill="#25B578" transform="translate(124,57)"/>
<path d="M0 0 C4.20626034 1.50223584 5.73900021 4.28550034 8 8 C6.68 8 5.36 8 4 8 C3.731875 7.21625 3.46375 6.4325 3.1875 5.625 C2.15185568 2.71885077 2.15185568 2.71885077 -1 1 C-0.67 0.67 -0.34 0.34 0 0 Z " fill="#2BAD75" transform="translate(100,136)"/>
<path d="M0 0 C2.5 1.375 2.5 1.375 5 3 C5 3.66 5 4.32 5 5 C5.99 5.33 6.98 5.66 8 6 C7.34 6.66 6.68 7.32 6 8 C5.01 7.67 4.02 7.34 3 7 C3 5.68 3 4.36 3 3 C2.01 3 1.02 3 0 3 C0 2.01 0 1.02 0 0 Z " fill="#21B574" transform="translate(86,87)"/>
<path d="M0 0 C1.32 0 2.64 0 4 0 C3.42655063 2.86724686 3.1385485 3.8614515 1 6 C0.01 5.34 -0.98 4.68 -2 4 C-1.34 2.68 -0.68 1.36 0 0 Z " fill="#D6FAE8" transform="translate(122,76)"/>
<path d="M0 0 C3.3 0 6.6 0 10 0 C9.34 1.32 8.68 2.64 8 4 C7.01 4.33 6.02 4.66 5 5 C5.33 4.01 5.66 3.02 6 2 C3.03 1.505 3.03 1.505 0 1 C0 0.67 0 0.34 0 0 Z " fill="#22AB6E" transform="translate(131,60)"/>
<path d="M0 0 C2.76544722 3.45680903 4.84921278 7.14341602 7 11 C6.34 11 5.68 11 5 11 C0.10774607 5.99126383 0.10774607 5.99126383 -0.3125 2.125 C-0.209375 1.42375 -0.10625 0.7225 0 0 Z " fill="#A0F2CC" transform="translate(147,58)"/>
<path d="M0 0 C0.66 1.32 1.32 2.64 2 4 C2.66 3.67 3.32 3.34 4 3 C3.34 4.98 2.68 6.96 2 9 C-0.57781906 6.42218094 -0.62129616 4.5598161 -1 1 C-0.67 0.67 -0.34 0.34 0 0 Z " fill="#B1F0D5" transform="translate(110,137)"/>
<path d="M0 0 C0.66 0.66 1.32 1.32 2 2 C1.625 5.125 1.625 5.125 1 8 C0.01 8 -0.98 8 -2 8 C-2 7.01 -2 6.02 -2 5 C-1.34 5 -0.68 5 0 5 C0 3.35 0 1.7 0 0 Z " fill="#8FE4C0" transform="translate(93,131)"/>
<path d="M0 0 C0.66 0.66 1.32 1.32 2 2 C1.625 5.625 1.625 5.625 1 9 C0.34 9 -0.32 9 -1 9 C-0.67 6.03 -0.34 3.06 0 0 Z " fill="#35B17E" transform="translate(100,104)"/>
<path d="M0 0 C0.66 0.33 1.32 0.66 2 1 C2 1.66 2 2.32 2 3 C1.01 3.495 1.01 3.495 0 4 C-1.13350534 6.01669827 -1.13350534 6.01669827 -2 8 C-2.99 8 -3.98 8 -5 8 C-4.67 7.34 -4.34 6.68 -4 6 C-3.34 6 -2.68 6 -2 6 C-1.855625 5.195625 -1.71125 4.39125 -1.5625 3.5625 C-1 1 -1 1 0 0 Z " fill="#19AF6F" transform="translate(134,108)"/>
<path d="M0 0 C0.99 0.33 1.98 0.66 3 1 C2.34 2.65 1.68 4.3 1 6 C-0.66666667 6 -2.33333333 6 -4 6 C-4 5.34 -4 4.68 -4 4 C-3.34 4 -2.68 4 -2 4 C-1.34 2.68 -0.68 1.36 0 0 Z " fill="#06B967" transform="translate(127,93)"/>
<path d="M0 0 C0.33 0.66 0.66 1.32 1 2 C0.22265625 3.7265625 0.22265625 3.7265625 -0.9375 5.625 C-1.618125 6.73875 -2.29875 7.8525 -3 9 C-3.33 8.34 -3.66 7.68 -4 7 C-4.66 6.67 -5.32 6.34 -6 6 C-4 4 -2 2 0 0 Z " fill="#48B183" transform="translate(145,84)"/>
<path d="M0 0 C0.66 0 1.32 0 2 0 C1.67 1.98 1.34 3.96 1 6 C-0.65 5.67 -2.3 5.34 -4 5 C-2.71937515 3.2925002 -1.38232443 1.62626404 0 0 Z " fill="#25B076" transform="translate(120,82)"/>
<path d="M0 0 C1.32 0.33 2.64 0.66 4 1 C3.34 2.65 2.68 4.3 2 6 C1.34 6 0.68 6 0 6 C0 4.02 0 2.04 0 0 Z " fill="#DFFBEE" transform="translate(126,57)"/>
<path d="M0 0 C2 2 2 2 3 5 C3.66 5.66 4.32 6.32 5 7 C4.01 7.66 3.02 8.32 2 9 C0.50178941 5.62902617 0 3.79557881 0 0 Z " fill="#49BC89" transform="translate(105,116)"/>
<path d="M0 0 C0.33 0 0.66 0 1 0 C1.12375 0.94875 1.2475 1.8975 1.375 2.875 C1.71687177 6.08667191 1.71687177 6.08667191 4 8 C3.01 8.495 3.01 8.495 2 9 C1.34 8.67 0.68 8.34 0 8 C-0.6875 4.5 -0.6875 4.5 -1 1 C-0.67 0.67 -0.34 0.34 0 0 Z " fill="#93E6C1" transform="translate(117,105)"/>
<path d="M0 0 C0.33 0.66 0.66 1.32 1 2 C-0.98 4.97 -0.98 4.97 -3 8 C-4.125 4.25 -4.125 4.25 -3 2 C-2.01 1.34 -1.02 0.68 0 0 Z " fill="#2CB678" transform="translate(133,104)"/>
<path d="M0 0 C0.66 0 1.32 0 2 0 C3.625 2.5 3.625 2.5 5 5 C3.35 5 1.7 5 0 5 C-0.5625 3.0625 -0.5625 3.0625 -1 1 C-0.67 0.67 -0.34 0.34 0 0 Z " fill="#22AE72" transform="translate(63,93)"/>
<path d="M0 0 C2 3.75 2 3.75 2 6 C1.01 6 0.02 6 -1 6 C-1.33 6.66 -1.66 7.32 -2 8 C-2 4.79604584 -1.25664978 2.90600261 0 0 Z " fill="#96E1BF" transform="translate(148,77)"/>
<path d="M0 0 C0.33 0 0.66 0 1 0 C1.33 2.64 1.66 5.28 2 8 C0.35 6.35 -1.3 4.7 -3 3 C-2.34 3 -1.68 3 -1 3 C-0.67 2.01 -0.34 1.02 0 0 Z " fill="#31A977" transform="translate(74,67)"/>
</svg>
