<?xml version="1.0" encoding="UTF-8"?>
<svg version="1.1" xmlns="http://www.w3.org/2000/svg" width="200" height="200">
<path d="M0 0 C66 0 132 0 200 0 C200 66 200 132 200 200 C134 200 68 200 0 200 C0 134 0 68 0 0 Z " fill="#FEFEFE" transform="translate(0,0)"/>
<path d="M0 0 C0.598125 0.495 1.19625 0.99 1.8125 1.5 C3.97029994 3.28276418 3.97029994 3.28276418 7 3 C9.33564933 3.31669821 11.6693782 3.64820803 14 4 C14.495 7.96 14.495 7.96 15 12 C11.7 12.66 8.4 13.32 5 14 C4.505 13.01 4.505 13.01 4 12 C2.68 12 1.36 12 0 12 C0 12.66 0 13.32 0 14 C0.99 14 1.98 14 3 14 C3 14.66 3 15.32 3 16 C4.03060547 15.87431641 4.03060547 15.87431641 5.08203125 15.74609375 C5.98308594 15.64425781 6.88414063 15.54242188 7.8125 15.4375 C8.70582031 15.33308594 9.59914062 15.22867188 10.51953125 15.12109375 C13 15 13 15 16 16 C16 14.68 16 13.36 16 12 C16.66 12 17.32 12 18 12 C18.33 11.34 18.66 10.68 19 10 C19 10.66 19 11.32 19 12 C19.66 12.33 20.32 12.66 21 13 C20.67 13.66 20.34 14.32 20 15 C19.34 15 18.68 15 18 15 C18 15.66 18 16.32 18 17 C17.34 17 16.68 17 16 17 C16.99 18.32 17.98 19.64 19 21 C19.33 19.68 19.66 18.36 20 17 C22.64 17 25.28 17 28 17 C28 17.66 28 18.32 28 19 C27.01 19.33 26.02 19.66 25 20 C23.89485234 23.31544299 23.67892369 26.20410111 23.4375 29.6875 C23.35371094 30.86699219 23.26992187 32.04648438 23.18359375 33.26171875 C23.09271484 34.61716797 23.09271484 34.61716797 23 36 C22.01 36 21.02 36 20 36 C20 37.32 20 38.64 20 40 C21.98 40 23.96 40 26 40 C26.33 40.66 26.66 41.32 27 42 C27.66 41.34 28.32 40.68 29 40 C29.495 41.98 29.495 41.98 30 44 C23.07 44 16.14 44 9 44 C9 43.01 9 42.02 9 41 C8.34 41 7.68 41 7 41 C7 40.34 7 39.68 7 39 C6.01 39.66 5.02 40.32 4 41 C4.33 41.99 4.66 42.98 5 44 C5 44.99 5 45.98 5 47 C3 48.6875 3 48.6875 1 50 C0.67 49.01 0.34 48.02 0 47 C-0.66 47 -1.32 47 -2 47 C-2 45.68 -2 44.36 -2 43 C-1.34 43 -0.68 43 0 43 C-0.495 41.02 -0.495 41.02 -1 39 C-1.66 39 -2.32 39 -3 39 C-3.33 39.66 -3.66 40.32 -4 41 C-5.66666667 39.33333333 -7.33333333 37.66666667 -9 36 C-9 37.32 -9 38.64 -9 40 C-8.34 40.33 -7.68 40.66 -7 41 C-7.66 41.99 -8.32 42.98 -9 44 C-9.66 43.67 -10.32 43.34 -11 43 C-11 41.35 -11 39.7 -11 38 C-11.66 37.67 -12.32 37.34 -13 37 C-12.34 37 -11.68 37 -11 37 C-11.33 36.34 -11.66 35.68 -12 35 C-12.039992 33.00039988 -12.04346799 30.99952758 -12 29 C-12.66 29 -13.32 29 -14 29 C-14 30.65 -14 32.3 -14 34 C-14.66 34 -15.32 34 -16 34 C-16.33 34.66 -16.66 35.32 -17 36 C-26.65776361 36.85889202 -26.65776361 36.85889202 -30.5625 33.9375 C-33.57004637 30.31302104 -34.23561767 28.71235344 -34 24 C-32.89922135 20.4752269 -31.56618057 17.6809985 -29 15 C-25.95337426 13.96750413 -23.19730559 13.82585482 -20 14 C-20.33 12.68 -20.66 11.36 -21 10 C-20.01 10 -19.02 10 -18 10 C-17.9175 9.38125 -17.835 8.7625 -17.75 8.125 C-17 6 -17 6 -15.1875 4.8125 C-13.11161826 4.04145821 -11.18537779 3.36422963 -9 3 C-8.34 3.33 -7.68 3.66 -7 4 C-7 4.66 -7 5.32 -7 6 C-5.68 6 -4.36 6 -3 6 C-2.01 4.02 -1.02 2.04 0 0 Z " fill="#9EBF66" transform="translate(80,77)"/>
<path d="M0 0 C0.66 0 1.32 0 2 0 C2 2.31 2 4.62 2 7 C4.64 6.67 7.28 6.34 10 6 C9.34 7.65 8.68 9.3 8 11 C6.68 11 5.36 11 4 11 C4.33 11.99 4.66 12.98 5 14 C5.66 14 6.32 14 7 14 C8.625 15.5 8.625 15.5 10 17 C10.33 16.01 10.66 15.02 11 14 C12.62418745 13.91909029 14.24951745 13.86085005 15.875 13.8125 C16.77992188 13.77769531 17.68484375 13.74289063 18.6171875 13.70703125 C19.79667969 13.85205078 19.79667969 13.85205078 21 14 C21.99 15.485 21.99 15.485 23 17 C23.66 12.38 24.32 7.76 25 3 C30.94 3 36.88 3 43 3 C43 3.66 43 4.32 43 5 C41.02 5 39.04 5 37 5 C37 11.6 37 18.2 37 25 C33.535 26.98 33.535 26.98 30 29 C29.67 29.66 29.34 30.32 29 31 C29.66 31.33 30.32 31.66 31 32 C31.33 31.34 31.66 30.68 32 30 C32.495 30.99 32.495 30.99 33 32 C33.33 31.34 33.66 30.68 34 30 C35.32 30 36.64 30 38 30 C38.495 30.99 38.495 30.99 39 32 C39.66 31.34 40.32 30.68 41 30 C41.495 31.98 41.495 31.98 42 34 C40.83428467 33.98428955 40.83428467 33.98428955 39.64501953 33.96826172 C36.138379 33.92679718 32.63178994 33.90070422 29.125 33.875 C27.29001953 33.84986328 27.29001953 33.84986328 25.41796875 33.82421875 C24.25136719 33.81777344 23.08476562 33.81132813 21.8828125 33.8046875 C20.80402832 33.79421387 19.72524414 33.78374023 18.61376953 33.77294922 C15.83955978 33.73160023 15.83955978 33.73160023 14 36 C13.01 36 12.02 36 11 36 C10.67 35.34 10.34 34.68 10 34 C7.36 34 4.72 34 2 34 C2 32.68 2 31.36 2 30 C4.31 30 6.62 30 9 30 C9.66 28.35 10.32 26.7 11 25 C9.741875 25.226875 8.48375 25.45375 7.1875 25.6875 C5.04296875 26.07421875 5.04296875 26.07421875 3 26 C1.390625 24.828125 1.390625 24.828125 0 23 C-0.34057617 20.5480957 -0.34057617 20.5480957 -0.29296875 17.67578125 C-0.2784668 16.13374023 -0.2784668 16.13374023 -0.26367188 14.56054688 C-0.23853516 13.48869141 -0.21339844 12.41683594 -0.1875 11.3125 C-0.16719727 9.68731445 -0.16719727 9.68731445 -0.14648438 8.02929688 C-0.11110643 5.35236595 -0.06174189 2.67643162 0 0 Z M12 17 C11.67 17.99 11.34 18.98 11 20 C14.91606575 19.46599103 17.39338934 18.80330533 21 17 C18.03 17 15.06 17 12 17 Z " fill="#DEDFDE" transform="translate(139,87)"/>
<path d="M0 0 C0.598125 0.495 1.19625 0.99 1.8125 1.5 C3.97029994 3.28276418 3.97029994 3.28276418 7 3 C9.33564933 3.31669821 11.6693782 3.64820803 14 4 C14.495 7.96 14.495 7.96 15 12 C11.7 12.66 8.4 13.32 5 14 C4.505 13.01 4.505 13.01 4 12 C2.68 12 1.36 12 0 12 C0 12.66 0 13.32 0 14 C0.99 14 1.98 14 3 14 C3 14.66 3 15.32 3 16 C4.32 16.33 5.64 16.66 7 17 C3.25 18.125 3.25 18.125 1 17 C-3.32816129 16.71772861 -4.98936074 16.99468037 -9 19 C-9.33 16.03 -9.66 13.06 -10 10 C-10.66 10 -11.32 10 -12 10 C-12 16.27 -12 22.54 -12 29 C-12.66 29 -13.32 29 -14 29 C-14 30.65 -14 32.3 -14 34 C-14.66 34 -15.32 34 -16 34 C-16.33 34.66 -16.66 35.32 -17 36 C-26.65776361 36.85889202 -26.65776361 36.85889202 -30.5625 33.9375 C-33.57004637 30.31302104 -34.23561767 28.71235344 -34 24 C-32.89922135 20.4752269 -31.56618057 17.6809985 -29 15 C-25.95337426 13.96750413 -23.19730559 13.82585482 -20 14 C-20.33 12.68 -20.66 11.36 -21 10 C-20.01 10 -19.02 10 -18 10 C-17.9175 9.38125 -17.835 8.7625 -17.75 8.125 C-17 6 -17 6 -15.1875 4.8125 C-13.11161826 4.04145821 -11.18537779 3.36422963 -9 3 C-8.34 3.33 -7.68 3.66 -7 4 C-7 4.66 -7 5.32 -7 6 C-5.68 6 -4.36 6 -3 6 C-2.01 4.02 -1.02 2.04 0 0 Z " fill="#EDEEED" transform="translate(80,77)"/>
<path d="M0 0 C-0.33 0.99 -0.66 1.98 -1 3 C-1.99 3.33 -2.98 3.66 -4 4 C-4.33 4.99 -4.66 5.98 -5 7 C-3.35 7 -1.7 7 0 7 C0 8.32 0 9.64 0 11 C-0.99 11 -1.98 11 -3 11 C-2.98839844 12.04800781 -2.97679687 13.09601563 -2.96484375 14.17578125 C-2.95546345 15.55468572 -2.9463635 16.93359211 -2.9375 18.3125 C-2.92912109 19.00279297 -2.92074219 19.69308594 -2.91210938 20.40429688 C-2.89692094 23.5483025 -2.99806673 25.99420019 -4 29 C-3.01 29.66 -2.02 30.32 -1 31 C-1.33 31.99 -1.66 32.98 -2 34 C-7.28 34 -12.56 34 -18 34 C-17.67 33.01 -17.34 32.02 -17 31 C-17.99 31 -18.98 31 -20 31 C-20.495 32.485 -20.495 32.485 -21 34 C-21.33 32.68 -21.66 31.36 -22 30 C-17.38 30 -12.76 30 -8 30 C-8.33 29.01 -8.66 28.02 -9 27 C-10.32303717 26.6278958 -11.65737935 26.29369827 -13 26 C-13.33 25.34 -13.66 24.68 -14 24 C-14.99 24.66 -15.98 25.32 -17 26 C-20.375 26.4375 -20.375 26.4375 -24 26 C-27.57513152 23.04663048 -29.74364334 20.87994881 -30.375 16.25 C-29.97691156 12.79990019 -29.12702011 10.72203926 -26.765625 8.13671875 C-23.75741066 6.20001439 -20.7917904 6.41660052 -17.3046875 6.49609375 C-14.59553864 7.08843308 -13.82467098 7.98461482 -12 10 C-11.01 10.33 -10.02 10.66 -9 11 C-8.855625 10.071875 -8.71125 9.14375 -8.5625 8.1875 C-8 5 -8 5 -7 2 C-4 0 -4 0 0 0 Z " fill="#E7FDFD" transform="translate(137,87)"/>
<path d="M0 0 C0.33 0.66 0.66 1.32 1 2 C1.66 2.33 2.32 2.66 3 3 C2.67 3.66 2.34 4.32 2 5 C1.34 5 0.68 5 0 5 C0 5.66 0 6.32 0 7 C-0.66 7 -1.32 7 -2 7 C-1.01 8.32 -0.02 9.64 1 11 C1.33 9.68 1.66 8.36 2 7 C4.64 7 7.28 7 10 7 C10 7.66 10 8.32 10 9 C9.01 9.33 8.02 9.66 7 10 C5.89485234 13.31544299 5.67892369 16.20410111 5.4375 19.6875 C5.35371094 20.86699219 5.26992187 22.04648438 5.18359375 23.26171875 C5.09271484 24.61716797 5.09271484 24.61716797 5 26 C1.66666667 26 -1.66666667 26 -5 26 C-6.155 26.04125 -7.31 26.0825 -8.5 26.125 C-11.79650574 26.00726765 -13.39008869 25.93326764 -16 24 C-18.30533344 21.00306652 -18.47382703 17.6881348 -18.390625 13.96484375 C-17.72156148 10.59945427 -15.60017609 9.05595319 -13 7 C-8.8204355 4.21362367 -6.85331323 5.20437488 -2 6 C-2 4.68 -2 3.36 -2 2 C-1.34 2 -0.68 2 0 2 C0 1.34 0 0.68 0 0 Z " fill="#3B759C" transform="translate(98,87)"/>
<path d="M0 0 C0.33 0.66 0.66 1.32 1 2 C2.98 2 4.96 2 7 2 C7.33 4.31 7.66 6.62 8 9 C8.66 9 9.32 9 10 9 C10 9.66 10 10.32 10 11 C10.66 11 11.32 11 12 11 C12.33 9.68 12.66 8.36 13 7 C14.65 7 16.3 7 18 7 C18.50833591 8.24663331 19.00631145 9.49749387 19.5 10.75 C19.7784375 11.44609375 20.056875 12.1421875 20.34375 12.859375 C21 15 21 15 21 19 C21.66 19 22.32 19 23 19 C23.12117188 18.40832031 23.24234375 17.81664063 23.3671875 17.20703125 C24.26744643 12.96196415 25.20456621 8.97560339 27 5 C27.99 5 28.98 5 30 5 C29.28739906 9.28379643 27.93078264 13.25093853 26.4375 17.3125 C26.20353516 17.95767578 25.96957031 18.60285156 25.72851562 19.26757812 C25.15552993 20.84621219 24.57820536 22.42327026 24 24 C22.02 24 20.04 24 18 24 C18 23.01 18 22.02 18 21 C17.46375 21.495 16.9275 21.99 16.375 22.5 C13.40641555 24.37489544 11.44687573 24.23501425 8 24 C7.5875 23.071875 7.175 22.14375 6.75 21.1875 C5.06558214 18.11945319 3.91545917 16.80959535 1 15 C1.33 12.36 1.66 9.72 2 7 C1.34 7 0.68 7 0 7 C0 4.69 0 2.38 0 0 Z " fill="#F3FAE2" transform="translate(16,89)"/>
<path d="M0 0 C0 2.64 0 5.28 0 8 C1.32 8.33 2.64 8.66 4 9 C2.35 9 0.7 9 -1 9 C-1 6.69 -1 4.38 -1 2 C-1.66 2 -2.32 2 -3 2 C-2.67 10.25 -2.34 18.5 -2 27 C-0.02 27.33 1.96 27.66 4 28 C4.33 27.34 4.66 26.68 5 26 C6.9375 26.375 6.9375 26.375 9 27 C9.495 27.99 9.495 27.99 10 29 C9.34 29 8.68 29 8 29 C7.34 30.65 6.68 32.3 6 34 C5.67 33.34 5.34 32.68 5 32 C3.02 32 1.04 32 -1 32 C-1 33.32 -1 34.64 -1 36 C-1.66 36 -2.32 36 -3 36 C-3.33 37.32 -3.66 38.64 -4 40 C-5.65 39.01 -7.3 38.02 -9 37 C-9.33 37.66 -9.66 38.32 -10 39 C-10.33 38.01 -10.66 37.02 -11 36 C-10.34 35.01 -9.68 34.02 -9 33 C-9 33.99 -9 34.98 -9 36 C-8.34 36 -7.68 36 -7 36 C-7 35.01 -7 34.02 -7 33 C-7.99 32.34 -8.98 31.68 -10 31 C-9.67 30.01 -9.34 29.02 -9 28 C-8.77281504 25.43365139 -8.58391816 22.88321893 -8.4375 20.3125 C-8.39431641 19.61060547 -8.35113281 18.90871094 -8.30664062 18.18554688 C-8.2008264 16.45724794 -8.09993419 14.7286489 -8 13 C-7.01 13 -6.02 13 -5 13 C-5 11.68 -5 10.36 -5 9 C-6.65 9 -8.3 9 -10 9 C-9.6875 7.0625 -9.6875 7.0625 -9 5 C-8.01 4.67 -7.02 4.34 -6 4 C-5.67 3.34 -5.34 2.68 -5 2 C-7.31 2.66 -9.62 3.32 -12 4 C-12.66 6.97 -13.32 9.94 -14 13 C-18 12 -18 12 -20 10 C-22.65537372 9.43479997 -25.29144713 9.26211802 -28 9 C-28 8.67 -28 8.34 -28 8 C-23.71 8 -19.42 8 -15 8 C-14.773125 6.88625 -14.54625 5.7725 -14.3125 4.625 C-13 1 -13 1 -10.875 -0.5 C-6.99561728 -1.17467526 -3.88058277 -0.65772589 0 0 Z " fill="#F7FAFA" transform="translate(142,85)"/>
<path d="M0 0 C0.99 0.66 1.98 1.32 3 2 C2.67 2.66 2.34 3.32 2 4 C2.66 4.33 3.32 4.66 4 5 C3.34 5 2.68 5 2 5 C2.33 6.0725 2.66 7.145 3 8.25 C4 12 4 12 4 16 C-1.61 16 -7.22 16 -13 16 C-10.7592547 21.02822886 -10.7592547 21.02822886 -8.02734375 21.55859375 C-3.54248573 21.46098764 -3.54248573 21.46098764 0 19 C0.99 19.33 1.98 19.66 3 20 C2.67 21.65 2.34 23.3 2 25 C-8.72950161 25.85912379 -8.72950161 25.85912379 -12.625 22.9375 C-15.56131709 19.30573939 -16.23381052 17.67621037 -16 13 C-14.89922135 9.4752269 -13.56618057 6.6809985 -11 4 C-7.95337426 2.96750413 -5.19730559 2.82585482 -2 3 C-2 2.34 -2 1.68 -2 1 C-1.34 0.67 -0.68 0.34 0 0 Z " fill="#A1BB73" transform="translate(62,88)"/>
<path d="M0 0 C0.8971875 0.5259375 0.8971875 0.5259375 1.8125 1.0625 C1.8125 2.3825 1.8125 3.7025 1.8125 5.0625 C3.7925 5.0625 5.7725 5.0625 7.8125 5.0625 C8.3075 6.0525 8.3075 6.0525 8.8125 7.0625 C9.4725 6.4025 10.1325 5.7425 10.8125 5.0625 C11.3075 7.0425 11.3075 7.0425 11.8125 9.0625 C4.8825 9.0625 -2.0475 9.0625 -9.1875 9.0625 C-9.1875 8.0725 -9.1875 7.0825 -9.1875 6.0625 C-9.8475 6.0625 -10.5075 6.0625 -11.1875 6.0625 C-11.1875 5.4025 -11.1875 4.7425 -11.1875 4.0625 C-12.1775 4.7225 -13.1675 5.3825 -14.1875 6.0625 C-13.8575 7.0525 -13.5275 8.0425 -13.1875 9.0625 C-13.1875 10.0525 -13.1875 11.0425 -13.1875 12.0625 C-15.1875 13.75 -15.1875 13.75 -17.1875 15.0625 C-17.5175 14.0725 -17.8475 13.0825 -18.1875 12.0625 C-18.8475 12.0625 -19.5075 12.0625 -20.1875 12.0625 C-20.1875 10.7425 -20.1875 9.4225 -20.1875 8.0625 C-19.5275 8.0625 -18.8675 8.0625 -18.1875 8.0625 C-18.5175 6.7425 -18.8475 5.4225 -19.1875 4.0625 C-19.8475 4.0625 -20.5075 4.0625 -21.1875 4.0625 C-21.5175 4.7225 -21.8475 5.3825 -22.1875 6.0625 C-23.5075 4.7425 -24.8275 3.4225 -26.1875 2.0625 C-24.1875 0.0625 -24.1875 0.0625 -22.26391602 -0.14868164 C-21.49748779 -0.13184326 -20.73105957 -0.11500488 -19.94140625 -0.09765625 C-18.68553711 -0.0812207 -18.68553711 -0.0812207 -17.40429688 -0.06445312 C-16.52837891 -0.04318359 -15.65246094 -0.02191406 -14.75 0 C-13.02221989 0.03447898 -11.29434609 0.06460866 -9.56640625 0.08984375 C-8.7988501 0.10781006 -8.03129395 0.12577637 -7.24047852 0.14428711 C-0.30776694 -0.13190012 -0.30776694 -0.13190012 0 0 Z " fill="#DAE4E5" transform="translate(98.1875,111.9375)"/>
<path d="M0 0 C1.93166016 0.01740234 1.93166016 0.01740234 3.90234375 0.03515625 C5.19269531 0.04417969 6.48304688 0.05320312 7.8125 0.0625 C8.81152344 0.07410156 9.81054688 0.08570312 10.83984375 0.09765625 C10.83984375 0.75765625 10.83984375 1.41765625 10.83984375 2.09765625 C8.85984375 2.09765625 6.87984375 2.09765625 4.83984375 2.09765625 C4.83984375 8.69765625 4.83984375 15.29765625 4.83984375 22.09765625 C-2.16015625 26.09765625 -2.16015625 26.09765625 -4.16015625 26.09765625 C-4.18902376 21.95183738 -4.20690952 17.80604409 -4.22265625 13.66015625 C-4.23103516 12.47615234 -4.23941406 11.29214844 -4.24804688 10.07226562 C-4.25126953 8.94755859 -4.25449219 7.82285156 -4.2578125 6.6640625 C-4.26304932 5.62193604 -4.26828613 4.57980957 -4.27368164 3.50610352 C-4.10064161 -0.16495009 -3.76018113 0.11619843 0 0 Z " fill="#FBFBFB" transform="translate(171.16015625,89.90234375)"/>
<path d="M0 0 C1.32 0.33 2.64 0.66 4 1 C3.34 1.70125 2.68 2.4025 2 3.125 C-0.35832281 6.51508904 -0.50539266 7.95685869 0 12 C0.69485264 14.78223378 0.69485264 14.78223378 2 17 C6.25800538 18.41933513 10.22911538 18.72651677 14.4375 17 C14.953125 16.67 15.46875 16.34 16 16 C16 16.99 16 17.98 16 19 C12.1496895 21.56687367 10.41430237 20.83288724 6 20 C5.67 22.97 5.34 25.94 5 29 C3.02 29.66 1.04 30.32 -1 31 C-0.34 29.35 0.32 27.7 1 26 C0.01 26 -0.98 26 -2 26 C-2 25.01 -2 24.02 -2 23 C-3.98 23 -5.96 23 -8 23 C-8 21.68 -8 20.36 -8 19 C-7.01 19 -6.02 19 -5 19 C-5.02320312 18.10796875 -5.04640625 17.2159375 -5.0703125 16.296875 C-5.08835937 15.12640625 -5.10640625 13.9559375 -5.125 12.75 C-5.14820312 11.58984375 -5.17140625 10.4296875 -5.1953125 9.234375 C-5.0103949 6.17213954 -4.60823023 4.55797249 -3 2 C-2.01 2 -1.02 2 0 2 C0 1.34 0 0.68 0 0 Z " fill="#F5F8F8" transform="translate(108,94)"/>
<path d="M0 0 C0.99 0.66 1.98 1.32 3 2 C3 2.66 3 3.32 3 4 C4.32 4 5.64 4 7 4 C7 6.97 7 9.94 7 13 C6.67 12.34 6.34 11.68 6 11 C5.360625 11.495 4.72125 11.99 4.0625 12.5 C-0.01761472 14.49842353 -3.52928909 14.7666537 -8 14 C-10.76095629 11.82470111 -10.93373213 10.45440825 -11.4375 7 C-11 4 -11 4 -9.4375 1.625 C-6.12030578 -0.58646281 -3.91054241 -0.42660463 0 0 Z " fill="#E9F6FB" transform="translate(93,96)"/>
<path d="M0 0 C2.375 1.1875 2.375 1.1875 3.375 3.1875 C2.385 4.6725 2.385 4.6725 1.375 6.1875 C1.375 5.5275 1.375 4.8675 1.375 4.1875 C0.715 4.1875 0.055 4.1875 -0.625 4.1875 C-0.625 10.4575 -0.625 16.7275 -0.625 23.1875 C-1.285 23.1875 -1.945 23.1875 -2.625 23.1875 C-2.625 24.8375 -2.625 26.4875 -2.625 28.1875 C-3.285 27.1975 -3.945 26.2075 -4.625 25.1875 C-5.12 25.5175 -5.615 25.8475 -6.125 26.1875 C-9.84169939 27.67417975 -12.6191956 27.50542098 -16.625 27.1875 C-18.625 25.875 -18.625 25.875 -19.625 24.1875 C-19.625 23.1975 -19.625 22.2075 -19.625 21.1875 C-14.015 21.1875 -8.405 21.1875 -2.625 21.1875 C-3.285 19.2075 -3.945 17.2275 -4.625 15.1875 C-4.85163986 12.47688725 -4.7190868 9.91601708 -4.625 7.1875 C-7.1 6.1975 -7.1 6.1975 -9.625 5.1875 C-8.635 4.8575 -7.645 4.5275 -6.625 4.1875 C-6.46 3.5275 -6.295 2.8675 -6.125 2.1875 C-5.96 1.5275 -5.795 0.8675 -5.625 0.1875 C-2.625 -0.8125 -2.625 -0.8125 0 0 Z " fill="#EBF9D6" transform="translate(68.625,82.8125)"/>
<path d="M0 0 C3.05623277 2.09110663 3.86463014 3.29306849 4.5625 6.9375 C3.7998726 11.08958249 2.40406682 12.55795207 -1 15 C-4.55953149 15.07119063 -6.22119455 14.7009249 -8.875 12.3125 C-10.35810604 9.26389315 -10.48891657 7.35257076 -10 4 C-7.21921757 -0.06422047 -4.81255755 -0.80209293 0 0 Z " fill="#FAFAF5" transform="translate(120,96)"/>
<path d="M0 0 C0.99 0 1.98 0 3 0 C3.67031719 1.9570868 4.33614683 3.91571113 5 5.875 C5.556875 7.51082031 5.556875 7.51082031 6.125 9.1796875 C7 12 7 12 7 14 C7.66 14 8.32 14 9 14 C9.99 10.04 10.98 6.08 12 2 C12.99 2 13.98 2 15 2 C15.50833591 3.24663331 16.00631145 4.49749387 16.5 5.75 C16.7784375 6.44609375 17.056875 7.1421875 17.34375 7.859375 C18 10 18 10 18 14 C18.66 14 19.32 14 20 14 C20.12117188 13.40832031 20.24234375 12.81664063 20.3671875 12.20703125 C21.26744643 7.96196415 22.20456621 3.97560339 24 0 C24.99 0 25.98 0 27 0 C26.31583566 4.17576168 24.98634991 7.88080407 23.4375 11.8125 C22.98246094 12.97394531 22.52742188 14.13539062 22.05859375 15.33203125 C21.70925781 16.21246094 21.35992187 17.09289062 21 18 C19.68 18 18.36 18 17 18 C15.515 13.05 15.515 13.05 14 8 C12.68 11.3 11.36 14.6 10 18 C8.68 18 7.36 18 6 18 C5.18243762 15.93950145 4.37115266 13.87651147 3.5625 11.8125 C2.88380859 10.08966797 2.88380859 10.08966797 2.19140625 8.33203125 C1.18906699 5.52876767 0.47987205 2.92887424 0 0 Z " fill="#A1BE76" transform="translate(19,94)"/>
<path d="M0 0 C2.95129596 0.69186118 4.87712327 1.8321476 6.62109375 4.359375 C8.30480718 9.22055787 7.72077968 14.49659639 7.3828125 19.55859375 C6.3928125 19.55859375 5.4028125 19.55859375 4.3828125 19.55859375 C4.0528125 18.89859375 3.7228125 18.23859375 3.3828125 17.55859375 C2.3928125 18.21859375 1.4028125 18.87859375 0.3828125 19.55859375 C-2.9921875 19.99609375 -2.9921875 19.99609375 -6.6171875 19.55859375 C-10.19231902 16.60522423 -12.36083084 14.43854256 -12.9921875 9.80859375 C-12.59424072 6.35972169 -11.75514327 4.27758598 -9.375 1.70703125 C-6.35336445 -0.26710398 -3.52740848 -0.25797465 0 0 Z M-7.9921875 4.18359375 C-10.13042181 7.30870544 -10.3001544 8.8402184 -9.6171875 12.55859375 C-7.63752487 15.62167006 -7.63752487 15.62167006 -4.6171875 17.55859375 C-1.05765601 17.62978438 0.60400705 17.25951865 3.2578125 14.87109375 C4.74091854 11.8224869 4.87172907 9.91116451 4.3828125 6.55859375 C2.8828125 4.05859375 2.8828125 4.05859375 0.3828125 2.55859375 C-3.2888962 1.9466423 -4.90532318 2.07152869 -7.9921875 4.18359375 Z " fill="#387092" transform="translate(119.6171875,93.44140625)"/>
<path d="M0 0 C0 2.64 0 5.28 0 8 C1.32 8.33 2.64 8.66 4 9 C2.35 9 0.7 9 -1 9 C-1 6.69 -1 4.38 -1 2 C-1.66 2 -2.32 2 -3 2 C-2.67 9.92 -2.34 17.84 -2 26 C-2.66 26 -3.32 26 -4 26 C-4.33 20.39 -4.66 14.78 -5 9 C-6.65 9 -8.3 9 -10 9 C-9.6875 7.0625 -9.6875 7.0625 -9 5 C-8.01 4.67 -7.02 4.34 -6 4 C-5.67 3.34 -5.34 2.68 -5 2 C-7.31 2.66 -9.62 3.32 -12 4 C-12.66 6.97 -13.32 9.94 -14 13 C-18 12 -18 12 -20 10 C-22.65537372 9.43479997 -25.29144713 9.26211802 -28 9 C-28 8.67 -28 8.34 -28 8 C-23.71 8 -19.42 8 -15 8 C-14.773125 6.88625 -14.54625 5.7725 -14.3125 4.625 C-13 1 -13 1 -10.875 -0.5 C-6.99561728 -1.17467526 -3.88058277 -0.65772589 0 0 Z " fill="#D3ECF5" transform="translate(142,85)"/>
<path d="M0 0 C0 4.62 0 9.24 0 14 C-7 14 -7 14 -8.9375 12.9375 C-10.61903731 9.87116726 -10.36051184 7.42486249 -10 4 C-7.71487588 -1.24234357 -6.32647886 0 0 0 Z " fill="#F8FCF8" transform="translate(81,96)"/>
<path d="M0 0 C0.66 0.33 1.32 0.66 2 1 C2 1.99 2 2.98 2 4 C3.32 3.67 4.64 3.34 6 3 C6 3.99 6 4.98 6 6 C0.72 6 -4.56 6 -10 6 C-7.7592547 11.02822886 -7.7592547 11.02822886 -5.02734375 11.55859375 C-0.54248573 11.46098764 -0.54248573 11.46098764 3 9 C3.99 9.33 4.98 9.66 6 10 C5.67 11.65 5.34 13.3 5 15 C-5.72950161 15.85912379 -5.72950161 15.85912379 -9.625 12.9375 C-12.38777751 9.52038044 -12.82977281 7.34079341 -13 3 C-12.34 2.67 -11.68 2.34 -11 2 C-11 2.66 -11 3.32 -11 4 C-7.7 4 -4.4 4 -1 4 C-1.33 3.01 -1.66 2.02 -2 1 C-1.34 0.67 -0.68 0.34 0 0 Z " fill="#98AD71" transform="translate(59,98)"/>
<path d="M0 0 C0.66 0 1.32 0 2 0 C2 0.99 2 1.98 2 3 C2.99 3 3.98 3 5 3 C4.690625 3.680625 4.38125 4.36125 4.0625 5.0625 C2.82052601 8.49619279 2.13071542 11.33996826 2 15 C3.5592661 18.05073802 4.79636715 19.55981427 8.05078125 20.75 C10.01395678 21.2521266 12.0068458 21.6345884 14 22 C13.34 22.99 12.68 23.98 12 25 C11.443125 24.855625 10.88625 24.71125 10.3125 24.5625 C7.88615805 23.97230872 5.45093655 23.476571 3 23 C3 21.68 3 20.36 3 19 C2.34 19 1.68 19 1 19 C0.67 18.34 0.34 17.68 0 17 C-0.66 17 -1.32 17 -2 17 C-2.33 18.32 -2.66 19.64 -3 21 C-3.66 21 -4.32 21 -5 21 C-3.41039668 14.76559832 -1.72399099 8.83712355 1 3 C0.34 2.67 -0.32 2.34 -1 2 C-0.67 1.34 -0.34 0.68 0 0 Z " fill="#EFFADC" transform="translate(45,91)"/>
<path d="M0 0 C-0.33 0.99 -0.66 1.98 -1 3 C-1.99 3.33 -2.98 3.66 -4 4 C-4.33 4.99 -4.66 5.98 -5 7 C-3.35 7 -1.7 7 0 7 C0 7.66 0 8.32 0 9 C-1.65 9 -3.3 9 -5 9 C-5 14.61 -5 20.22 -5 26 C-5.99 26 -6.98 26 -8 26 C-8.02901394 22.5625177 -8.04680335 19.12506688 -8.0625 15.6875 C-8.07087891 14.71103516 -8.07925781 13.73457031 -8.08789062 12.72851562 C-8.09111328 11.79072266 -8.09433594 10.85292969 -8.09765625 9.88671875 C-8.10551147 8.59060669 -8.10551147 8.59060669 -8.11352539 7.26831055 C-8 5 -8 5 -7 2 C-4 0 -4 0 0 0 Z " fill="#4081A6" transform="translate(137,87)"/>
<path d="M0 0 C2.64 0 5.28 0 8 0 C8 2.97 8 5.94 8 9 C7.67 8.34 7.34 7.68 7 7 C6.34 7.495 5.68 7.99 5 8.5 C1.03366759 10.48316621 -1.60303262 10.22357461 -6 10 C-6 9.34 -6 8.68 -6 8 C-4.68 8 -3.36 8 -2 8 C-2.33 6.68 -2.66 5.36 -3 4 C-2.34 3.67 -1.68 3.34 -1 3 C-0.67 2.01 -0.34 1.02 0 0 Z " fill="#EAF8F9" transform="translate(92,100)"/>
<path d="M0 0 C4.62 0 9.24 0 14 0 C14 0.66 14 1.32 14 2 C12.02 2 10.04 2 8 2 C8 8.27 8 14.54 8 21 C7.01 21 6.02 21 5 21 C5 14.73 5 8.46 5 2 C3.35 2 1.7 2 0 2 C0 1.34 0 0.68 0 0 Z " fill="#6D6D6D" transform="translate(168,90)"/>
<path d="M0 0 C2.97 0.33 5.94 0.66 9 1 C12 7.5 12 7.5 12 12 C10 13.75 10 13.75 8 15 C7.67 14.01 7.34 13.02 7 12 C6.34 12 5.68 12 5 12 C5 10.68 5 9.36 5 8 C5.66 8 6.32 8 7 8 C6.67 6.68 6.34 5.36 6 4 C5.34 4 4.68 4 4 4 C3.67 4.66 3.34 5.32 3 6 C1.68 4.68 0.36 3.36 -1 2 C-0.67 1.34 -0.34 0.68 0 0 Z " fill="#F6F5E9" transform="translate(73,112)"/>
<path d="M0 0 C0.33 0.99 0.66 1.98 1 3 C1.99 3 2.98 3 4 3 C4 3.66 4 4.32 4 5 C7.3 5 10.6 5 14 5 C14 5.66 14 6.32 14 7 C14.66 7.33 15.32 7.66 16 8 C12.98509443 9.00496852 10.95818308 9.10335303 7.8125 9.0625 C6.91144531 9.05347656 6.01039062 9.04445313 5.08203125 9.03515625 C4.39496094 9.02355469 3.70789063 9.01195313 3 9 C3 10.32 3 11.64 3 13 C3.66 13.33 4.32 13.66 5 14 C4.01 15.485 4.01 15.485 3 17 C2.34 16.67 1.68 16.34 1 16 C1 14.35 1 12.7 1 11 C0.34 10.67 -0.32 10.34 -1 10 C-0.34 10 0.32 10 1 10 C0.67 9.34 0.34 8.68 0 8 C-0.13415472 5.3276379 -0.04318541 2.67749512 0 0 Z " fill="#A7C38C" transform="translate(68,104)"/>
<path d="M0 0 C2.64 0 5.28 0 8 0 C7.01 0.495 7.01 0.495 6 1 C6 1.66 6 2.32 6 3 C6.99 3 7.98 3 9 3 C9.33 2.01 9.66 1.02 10 0 C11.32 0.66 12.64 1.32 14 2 C14.33 1.34 14.66 0.68 15 0 C15.33 0.66 15.66 1.32 16 2 C16.33 1.34 16.66 0.68 17 0 C18.32 0 19.64 0 21 0 C21.33 0.66 21.66 1.32 22 2 C22.66 1.34 23.32 0.68 24 0 C24.33 1.32 24.66 2.64 25 4 C16.75 4 8.5 4 0 4 C0 2.68 0 1.36 0 0 Z " fill="#ADADAD" transform="translate(156,117)"/>
<path d="M0 0 C0.66 0 1.32 0 2 0 C2 2.31 2 4.62 2 7 C3.65 7 5.3 7 7 7 C7 7.66 7 8.32 7 9 C5.35 9 3.7 9 2 9 C2.05988141 11.12579013 2.14862744 13.25078413 2.25 15.375 C2.29640625 16.55835937 2.3428125 17.74171875 2.390625 18.9609375 C2.65648799 22.11291753 2.65648799 22.11291753 5.046875 23.4140625 C5.69140625 23.60742188 6.3359375 23.80078125 7 24 C7 24.66 7 25.32 7 26 C4.0625 25.625 4.0625 25.625 1 25 C-0.27861615 22.44276771 -0.11336609 20.63262898 -0.09765625 17.7734375 C-0.09443359 16.7421875 -0.09121094 15.7109375 -0.08789062 14.6484375 C-0.07951172 13.56820312 -0.07113281 12.48796875 -0.0625 11.375 C-0.05798828 10.28703125 -0.05347656 9.1990625 -0.04882812 8.078125 C-0.03701776 5.38536211 -0.02054778 2.69270812 0 0 Z " fill="#2A6B92" transform="translate(139,87)"/>
<path d="M0 0 C0.66 0.33 1.32 0.66 2 1 C2.6328125 3.28515625 2.6328125 3.28515625 3.125 6.0625 C3.29257812 6.98160156 3.46015625 7.90070313 3.6328125 8.84765625 C3.75398438 9.55792969 3.87515625 10.26820312 4 11 C5.32 11.33 6.64 11.66 8 12 C6.02 12 4.04 12 2 12 C2 11.01 2 10.02 2 9 C1.46375 9.495 0.9275 9.99 0.375 10.5 C-2.59358445 12.37489544 -4.55312427 12.23501425 -8 12 C-10.09230769 7.56923077 -10.09230769 7.56923077 -9.625 4.6875 C-9.41875 4.130625 -9.2125 3.57375 -9 3 C-7.74335022 5.90600261 -7 7.79604584 -7 11 C-5.68 11 -4.36 11 -3 11 C-2.86722656 10.37351562 -2.73445313 9.74703125 -2.59765625 9.1015625 C-2.42105469 8.28429687 -2.24445312 7.46703125 -2.0625 6.625 C-1.88847656 5.81289062 -1.71445312 5.00078125 -1.53515625 4.1640625 C-1 2 -1 2 0 0 Z " fill="#E4F3CD" transform="translate(32,101)"/>
<path d="M0 0 C0.66 0.33 1.32 0.66 2 1 C2.08886184 4.19902639 1.91058531 6.92677456 1 10 C2.670625 9.7215625 2.670625 9.7215625 4.375 9.4375 C8 9 8 9 10 10 C10.33 7.69 10.66 5.38 11 3 C11.33 3 11.66 3 12 3 C12.46927699 7.03578215 12.29858931 8.58724419 9.875 11.9375 C7 14 7 14 3.875 14.0625 C0.56757835 12.840192 -0.46459766 12.15610481 -2 9 C-2.41865457 4.89718519 -2.32579101 3.48868651 0 0 Z " fill="#D4F0F9" transform="translate(112,97)"/>
<path d="M0 0 C6.93 0 13.86 0 21 0 C20.67 1.32 20.34 2.64 20 4 C14.72 4 9.44 4 4 4 C4.33 3.01 4.66 2.02 5 1 C4.01 1 3.02 1 2 1 C1.67 1.99 1.34 2.98 1 4 C0.67 2.68 0.34 1.36 0 0 Z " fill="#AFAEAD" transform="translate(115,117)"/>
<path d="M0 0 C0.33 0.66 0.66 1.32 1 2 C1.66 2.33 2.32 2.66 3 3 C2.67 3.66 2.34 4.32 2 5 C1.34 5 0.68 5 0 5 C0 5.66 0 6.32 0 7 C-0.66 7 -1.32 7 -2 7 C-0.02 9.97 -0.02 9.97 2 13 C0.68 13 -0.64 13 -2 13 C-2.45375 12.525625 -2.9075 12.05125 -3.375 11.5625 C-5.68141236 9.34479581 -7.89458559 9.34504605 -11 9 C-10.67 7.68 -10.34 6.36 -10 5 C-7.36 5.33 -4.72 5.66 -2 6 C-2 4.68 -2 3.36 -2 2 C-1.34 2 -0.68 2 0 2 C0 1.34 0 0.68 0 0 Z " fill="#437FA1" transform="translate(98,87)"/>
<path d="M0 0 C1.32 0.33 2.64 0.66 4 1 C3.34 1.66 2.68 2.32 2 3 C-0.67905902 7.01858853 -0.32182663 9.25305716 0 14 C-0.99 13.67 -1.98 13.34 -3 13 C-3.33 14.65 -3.66 16.3 -4 18 C-4.33 18 -4.66 18 -5 18 C-5.05423638 16.08364783 -5.09289963 14.16685075 -5.125 12.25 C-5.14820312 11.18265625 -5.17140625 10.1153125 -5.1953125 9.015625 C-5.00487687 6.07529894 -4.52670104 4.47638122 -3 2 C-2.01 2 -1.02 2 0 2 C0 1.34 0 0.68 0 0 Z " fill="#DDFBFD" transform="translate(108,94)"/>
<path d="M0 0 C0.99 0.99 1.98 1.98 3 3 C2.67 3.66 2.34 4.32 2 5 C1.01 5 0.02 5 -1 5 C-0.67 6.65 -0.34 8.3 0 10 C-2.64 10 -5.28 10 -8 10 C-8.33 10.66 -8.66 11.32 -9 12 C-9 10.68 -9 9.36 -9 8 C-10.91666921 5.74934898 -10.91666921 5.74934898 -13 4 C-9.25 2.875 -9.25 2.875 -7 4 C-7 4.66 -7 5.32 -7 6 C-5.68 6 -4.36 6 -3 6 C-2.01 4.02 -1.02 2.04 0 0 Z " fill="#BABBB5" transform="translate(80,77)"/>
<path d="M0 0 C0.66 0 1.32 0 2 0 C2.33 7.92 2.66 15.84 3 24 C2.34 24 1.68 24 1 24 C0.67 18.39 0.34 12.78 0 7 C-1.65 7 -3.3 7 -5 7 C-4.6875 5.0625 -4.6875 5.0625 -4 3 C-3.01 2.67 -2.02 2.34 -1 2 C-0.67 1.34 -0.34 0.68 0 0 Z " fill="#C3EBFB" transform="translate(137,87)"/>
<path d="M0 0 C5.625 -0.25 5.625 -0.25 9 2 C9.1875 5.125 9.1875 5.125 9 8 C8.01 7.01 7.02 6.02 6 5 C5.34 6.65 4.68 8.3 4 10 C3.34 10 2.68 10 2 10 C1.875 4.25 1.875 4.25 3 2 C1.02 2.99 1.02 2.99 -1 4 C-0.67 2.68 -0.34 1.36 0 0 Z " fill="#EAF8FC" transform="translate(114,96)"/>
<path d="M0 0 C2.375 1.1875 2.375 1.1875 3.375 3.1875 C2.385 4.6725 2.385 4.6725 1.375 6.1875 C1.375 5.5275 1.375 4.8675 1.375 4.1875 C0.385 4.1875 -0.605 4.1875 -1.625 4.1875 C-1.625 4.8475 -1.625 5.5075 -1.625 6.1875 C-3.935 6.1875 -6.245 6.1875 -8.625 6.1875 C-8.955 5.5275 -9.285 4.8675 -9.625 4.1875 C-8.635 4.1875 -7.645 4.1875 -6.625 4.1875 C-6.521875 3.548125 -6.41875 2.90875 -6.3125 2.25 C-6.085625 1.569375 -5.85875 0.88875 -5.625 0.1875 C-2.625 -0.8125 -2.625 -0.8125 0 0 Z " fill="#F0F1E9" transform="translate(68.625,82.8125)"/>
<path d="M0 0 C0.66 0 1.32 0 2 0 C3.17673198 2.35346396 3.16623866 3.8806033 3.1875 6.5 C3.20167969 7.2940625 3.21585937 8.088125 3.23046875 8.90625 C3 11 3 11 1 13 C-1.24510613 10.56780169 -1.97120564 9.28218472 -2.3125 5.9375 C-2 3 -2 3 0 0 Z " fill="#84B587" transform="translate(84,97)"/>
<path d="M0 0 C0.99 0.495 0.99 0.495 2 1 C2 1.66 2 2.32 2 3 C6.25800538 4.41933513 10.22911538 4.72651677 14.4375 3 C14.953125 2.67 15.46875 2.34 16 2 C16 2.99 16 3.98 16 5 C12.1496895 7.56687367 10.41430237 6.83288724 6 6 C5.67 8.64 5.34 11.28 5 14 C4.67 14 4.34 14 4 14 C3.896875 13.0925 3.79375 12.185 3.6875 11.25 C2.97982855 7.90464404 2.02287287 6.63852983 0 4 C0 2.68 0 1.36 0 0 Z " fill="#D4ECF2" transform="translate(108,108)"/>
<path d="M0 0 C0.66 0.33 1.32 0.66 2 1 C2 1.99 2 2.98 2 4 C3.32 3.67 4.64 3.34 6 3 C6 3.99 6 4.98 6 6 C0.06 6 -5.88 6 -12 6 C-11.67 4.68 -11.34 3.36 -11 2 C-11 2.66 -11 3.32 -11 4 C-7.7 4 -4.4 4 -1 4 C-1.33 3.01 -1.66 2.02 -2 1 C-1.34 0.67 -0.68 0.34 0 0 Z " fill="#8BA958" transform="translate(59,98)"/>
<path d="M0 0 C7.29927007 -0.486618 7.29927007 -0.486618 10.25 1.5625 C12.64897651 4.90393157 12.40063108 7.18296087 12.25 11.25 C12.21390625 12.51328125 12.1778125 13.7765625 12.140625 15.078125 C12.07101563 16.52445313 12.07101563 16.52445313 12 18 C11.67 18 11.34 18 11 18 C10.89042969 17.16855469 10.78085938 16.33710937 10.66796875 15.48046875 C10.50941406 14.39378906 10.35085937 13.30710937 10.1875 12.1875 C10.03667969 11.10855469 9.88585937 10.02960938 9.73046875 8.91796875 C8.97436429 5.89759425 8.50257041 4.7806751 6 3 C2.89160979 2.2730774 2.89160979 2.2730774 0 2 C0 1.34 0 0.68 0 0 Z " fill="#2D6E97" transform="translate(114,94)"/>
<path d="M0 0 C3.3 0 6.6 0 10 0 C10.33 0.66 10.66 1.32 11 2 C11.66 1.34 12.32 0.68 13 0 C13.33 1.32 13.66 2.64 14 4 C9.38 4 4.76 4 0 4 C0 2.68 0 1.36 0 0 Z " fill="#ADADAD" transform="translate(96,117)"/>
<path d="M0 0 C0 2 0 4 0 6 C-2.97 6 -5.94 6 -9 6 C-7.57649362 0.30597447 -5.47459746 -0.29592419 0 0 Z " fill="#E8F8D2" transform="translate(58,96)"/>
<path d="M0 0 C0.66 0.33 1.32 0.66 2 1 C1.34 2.32 0.68 3.64 0 5 C-1.32 5 -2.64 5 -4 5 C-3.85769192 6.41702513 -3.71099254 7.8336096 -3.5625 9.25 C-3.44068359 10.43335937 -3.44068359 10.43335937 -3.31640625 11.640625 C-3.02365007 13.82364639 -2.57935581 15.8773182 -2 18 C-3.32 17.34 -4.64 16.68 -6 16 C-6 11.71 -6 7.42 -6 3 C-4.35 3 -2.7 3 -1 3 C-0.67 2.01 -0.34 1.02 0 0 Z " fill="#C8ECF8" transform="translate(147,93)"/>
<path d="M0 0 C-1 3 -1 3 -2.5625 4.3125 C-4.27262998 5.99961282 -4.27262998 5.99961282 -4.3125 8.875 C-4.00399692 11.96003079 -3.31340664 14.2090109 -2 17 C-2.99 17 -3.98 17 -5 17 C-7.11045489 13.83431767 -7.47214345 10.74743167 -7.39453125 6.97265625 C-6.65955624 3.29778119 -3.87467087 0 0 0 Z " fill="#2D7089" transform="translate(87,94)"/>
<path d="M0 0 C0.99 0.66 1.98 1.32 3 2 C2.67 2.66 2.34 3.32 2 4 C2.66 4.33 3.32 4.66 4 5 C3.34 5 2.68 5 2 5 C1.67 6.32 1.34 7.64 1 9 C0.505 8.505 0.01 8.01 -0.5 7.5 C-4.11630158 5.33021905 -6.82231616 5.79111581 -11 6 C-11 5.34 -11 4.68 -11 4 C-6.545 3.505 -6.545 3.505 -2 3 C-2 2.34 -2 1.68 -2 1 C-1.34 0.67 -0.68 0.34 0 0 Z " fill="#C2CAB8" transform="translate(62,88)"/>
<path d="M0 0 C0.33 0.99 0.66 1.98 1 3 C1.99 3 2.98 3 4 3 C4 2.34 4 1.68 4 1 C5.32 1 6.64 1 8 1 C8 1.99 8 2.98 8 4 C4.71303767 4.79953138 3.28976808 5.09658936 0 4 C0 5.65 0 7.3 0 9 C-2 7.625 -2 7.625 -4 6 C-4 5.34 -4 4.68 -4 4 C-3.34 4 -2.68 4 -2 4 C-2 3.34 -2 2.68 -2 2 C-1.34 2 -0.68 2 0 2 C0 1.34 0 0.68 0 0 Z " fill="#D5F0F7" transform="translate(100,90)"/>
<path d="M0 0 C0.33 0.66 0.66 1.32 1 2 C4.63 2 8.26 2 12 2 C12 2.66 12 3.32 12 4 C13.32 4.33 14.64 4.66 16 5 C12.25 6.125 12.25 6.125 10 5 C6.04437178 4.74202425 3.40340307 4.90559811 0 7 C0 4.69 0 2.38 0 0 Z " fill="#EAF9DC" transform="translate(71,89)"/>
<path d="M0 0 C0.33 1.32 0.66 2.64 1 4 C-2.63465602 6.32617985 -5.76036719 6.31404687 -10 6 C-10.66 5.34 -11.32 4.68 -12 4 C-10.09576534 2.09576534 -6.71526887 2.5740251 -4.12890625 2.37890625 C-1.79072597 2.17223364 -1.79072597 2.17223364 0 0 Z " fill="#447CA1" transform="translate(96,107)"/>
<path d="M0 0 C0.33 0 0.66 0 1 0 C1 5.94 1 11.88 1 18 C0.34 18.33 -0.32 18.66 -1 19 C-1.33 14.05 -1.66 9.1 -2 4 C-1.34 4 -0.68 4 0 4 C0 2.68 0 1.36 0 0 Z " fill="#D7FDFE" transform="translate(128,94)"/>
<path d="M0 0 C1.04976964 3.14930893 1.10131595 5.38814456 1.0625 8.6875 C1.05347656 9.68136719 1.04445313 10.67523438 1.03515625 11.69921875 C1.02355469 12.45847656 1.01195313 13.21773437 1 14 C-0.32 13.67 -1.64 13.34 -3 13 C-3 10.69 -3 8.38 -3 6 C-2.34 6 -1.68 6 -1 6 C-1.0309375 4.7934375 -1.0309375 4.7934375 -1.0625 3.5625 C-1 1 -1 1 0 0 Z " fill="#D1EFF1" transform="translate(80,96)"/>
<path d="M0 0 C2.64 0 5.28 0 8 0 C8.33 1.32 8.66 2.64 9 4 C6.03 4 3.06 4 0 4 C0 2.68 0 1.36 0 0 Z " fill="#B2B3B2" transform="translate(141,117)"/>
<path d="M0 0 C0 2.31 0 4.62 0 7 C-0.99 7.495 -0.99 7.495 -2 8 C-2.33 7.34 -2.66 6.68 -3 6 C-3.99 5.67 -4.98 5.34 -6 5 C-6.33 5.66 -6.66 6.32 -7 7 C-7.33 6.01 -7.66 5.02 -8 4 C-7.34 3.01 -6.68 2.02 -6 1 C-6 1.99 -6 2.98 -6 4 C-5.34 4 -4.68 4 -4 4 C-4 3.01 -4 2.02 -4 1 C-2 0 -2 0 0 0 Z " fill="#EEEEEA" transform="translate(139,117)"/>
<path d="M0 0 C1.65 1.32 3.3 2.64 5 4 C4.01 4.495 4.01 4.495 3 5 C3 6.32 3 7.64 3 9 C3.66 9.33 4.32 9.66 5 10 C4.01 11.485 4.01 11.485 3 13 C2.34 12.67 1.68 12.34 1 12 C1 10.35 1 8.7 1 7 C0.34 6.67 -0.32 6.34 -1 6 C-0.34 6 0.32 6 1 6 C0.67 4.02 0.34 2.04 0 0 Z " fill="#BEC5B8" transform="translate(68,108)"/>
<path d="M0 0 C0.66 0 1.32 0 2 0 C1.01 3.96 0.02 7.92 -1 12 C-1.66 12 -2.32 12 -3 12 C-3.33 10.02 -3.66 8.04 -4 6 C-3.34 5.67 -2.68 5.34 -2 5 C-1.27840576 3.35636866 -0.60648579 1.68949614 0 0 Z " fill="#E9FACB" transform="translate(29,96)"/>
<path d="M0 0 C2.0625 0.6875 2.0625 0.6875 4 2 C4.75 4.125 4.75 4.125 5 6 C3.02 6.99 3.02 6.99 1 8 C0.67 7.01 0.34 6.02 0 5 C-0.66 5 -1.32 5 -2 5 C-2 3.68 -2 2.36 -2 1 C-1.34 0.67 -0.68 0.34 0 0 Z " fill="#B7BBBC" transform="translate(80,119)"/>
<path d="M0 0 C0.33 0 0.66 0 1 0 C1 4.29 1 8.58 1 13 C0.01 13 -0.98 13 -2 13 C-2.33 12.34 -2.66 11.68 -3 11 C-3.99 11.495 -3.99 11.495 -5 12 C-5.66 11.34 -6.32 10.68 -7 10 C-5.35 8.68 -3.7 7.36 -2 6 C-1.67 6.33 -1.34 6.66 -1 7 C-0.67 4.69 -0.34 2.38 0 0 Z " fill="#4586AD" transform="translate(126,100)"/>
<path d="M0 0 C3 2 3 2 4 5 C4.99 4.67 5.98 4.34 7 4 C6.34 6.64 5.68 9.28 5 12 C4.34 12 3.68 12 3 12 C2.01 8.04 1.02 4.08 0 0 Z " fill="#EDFCD3" transform="translate(34,96)"/>
<path d="M0 0 C1.98 0.99 1.98 0.99 4 2 C4 5.3 4 8.6 4 12 C3.01 12 2.02 12 1 12 C0.67 8.04 0.34 4.08 0 0 Z " fill="#E5F6D3" transform="translate(86,96)"/>
<path d="M0 0 C0.33 0.99 0.66 1.98 1 3 C1.66 3 2.32 3 3 3 C3.391875 3.804375 3.78375 4.60875 4.1875 5.4375 C5.8525473 8.40122736 5.8525473 8.40122736 9.6875 8.8125 C10.780625 8.874375 11.87375 8.93625 13 9 C13 9.33 13 9.66 13 10 C7.88634991 11.2134085 7.88634991 11.2134085 5 11 C1.77676294 8.17966757 0.1560355 6.43552663 -0.3125 2.125 C-0.209375 1.42375 -0.10625 0.7225 0 0 Z " fill="#ABC580" transform="translate(46,101)"/>
<path d="M0 0 C3.3 0 6.6 0 10 0 C10 0.99 10 1.98 10 3 C6.7 3 3.4 3 0 3 C0 2.01 0 1.02 0 0 Z " fill="#5D8799" transform="translate(150,101)"/>
<path d="M0 0 C0.66 0 1.32 0 2 0 C2 0.99 2 1.98 2 3 C2.99 3 3.98 3 5 3 C3.125 7.75 3.125 7.75 2 10 C1.01 10 0.02 10 -1 10 C-0.34 7.69 0.32 5.38 1 3 C0.34 2.67 -0.32 2.34 -1 2 C-0.67 1.34 -0.34 0.68 0 0 Z " fill="#E8F5C8" transform="translate(45,91)"/>
<path d="M0 0 C0.66 0.33 1.32 0.66 2 1 C1.34 2.32 0.68 3.64 0 5 C0 4.34 0 3.68 0 3 C-2.64 3.33 -5.28 3.66 -8 4 C-8 3.01 -8 2.02 -8 1 C-5.26094655 -0.36952673 -3.02912668 -0.12621361 0 0 Z " fill="#A1C387" transform="translate(81,93)"/>
<path d="M0 0 C0.33 0.66 0.66 1.32 1 2 C1.66 2.33 2.32 2.66 3 3 C2.67 3.66 2.34 4.32 2 5 C1.34 5 0.68 5 0 5 C0 5.66 0 6.32 0 7 C-3.81489674 8.46726798 -6.29011622 7.43336419 -10 6 C-10 5.67 -10 5.34 -10 5 C-7.36 5.33 -4.72 5.66 -2 6 C-2 4.68 -2 3.36 -2 2 C-1.34 2 -0.68 2 0 2 C0 1.34 0 0.68 0 0 Z " fill="#A5B0B6" transform="translate(98,87)"/>
<path d="M0 0 C0.99 0 1.98 0 3 0 C3.99 3.3 4.98 6.6 6 10 C4.68 9.67 3.36 9.34 2 9 C1.34 6.03 0.68 3.06 0 0 Z " fill="#A8BF87" transform="translate(19,94)"/>
<path d="M0 0 C2.31 0.66 4.62 1.32 7 2 C7.33 3.98 7.66 5.96 8 8 C4.22699642 6.9802693 3.19793856 6.34127338 1.1875 2.875 C0.795625 1.92625 0.40375 0.9775 0 0 Z " fill="#B3CD8C" transform="translate(58,96)"/>
<path d="M0 0 C0.33 0 0.66 0 1 0 C1 1.65 1 3.3 1 5 C1.66 5 2.32 5 3 5 C3 5.66 3 6.32 3 7 C3.99 7 4.98 7 6 7 C6.33 7.99 6.66 8.98 7 10 C4.0625 9.625 4.0625 9.625 1 9 C-0.4783226 6.04335481 -0.06032783 3.25770263 0 0 Z " fill="#EDF8CC" transform="translate(71,100)"/>
<path d="M0 0 C0.66 0 1.32 0 2 0 C2 0.99 2 1.98 2 3 C1.195625 3.61875 0.39125 4.2375 -0.4375 4.875 C-3.210674 6.77298325 -3.210674 6.77298325 -3.8125 9.75 C-3.874375 10.4925 -3.93625 11.235 -4 12 C-4.33 12 -4.66 12 -5 12 C-5.34934248 9.06552319 -5.51495218 6.85632498 -3.95703125 4.265625 C-2.625 2.625 -2.625 2.625 0 0 Z " fill="#49809C" transform="translate(112,94)"/>
<path d="M0 0 C2.64 0 5.28 0 8 0 C8 0.66 8 1.32 8 2 C7.01 2.33 6.02 2.66 5 3 C4.01 4.485 4.01 4.485 3 6 C3 5.01 3 4.02 3 3 C2.34 3 1.68 3 1 3 C0.67 3.66 0.34 4.32 0 5 C0 3.35 0 1.7 0 0 Z " fill="#467CA6" transform="translate(100,94)"/>
<path d="M0 0 C0.33 0 0.66 0 1 0 C1 4.29 1 8.58 1 13 C2.32 13.66 3.64 14.32 5 15 C3.125 15.625 3.125 15.625 1 16 C0.34 15.34 -0.32 14.68 -1 14 C-0.9765625 10.7421875 -0.9765625 10.7421875 -0.625 6.875 C-0.51414063 5.59367187 -0.40328125 4.31234375 -0.2890625 2.9921875 C-0.19367188 2.00476563 -0.09828125 1.01734375 0 0 Z " fill="#E8FAFB" transform="translate(137,98)"/>
<path d="M0 0 C1.98 0 3.96 0 6 0 C6 0.99 6 1.98 6 3 C5 4 5 4 2.4375 4.0625 C1.2309375 4.0315625 1.2309375 4.0315625 0 4 C0 2.68 0 1.36 0 0 Z " fill="#FAFCF7" transform="translate(52,105)"/>
<path d="M0 0 C1.98 0 3.96 0 6 0 C5.01 0.495 5.01 0.495 4 1 C3.34786708 3.02463255 3.34786708 3.02463255 3 5 C1.35 4.67 -0.3 4.34 -2 4 C-1.34 2.68 -0.68 1.36 0 0 Z " fill="#EFF9E0" transform="translate(74,96)"/>
<path d="M0 0 C3.1875 -0.3125 3.1875 -0.3125 7 0 C9.9375 2.5 9.9375 2.5 12 5 C10.37247769 4.74476126 8.74796804 4.47025506 7.125 4.1875 C6.22007813 4.03667969 5.31515625 3.88585937 4.3828125 3.73046875 C2 3 2 3 0 0 Z " fill="#A9C27B" transform="translate(52,93)"/>
<path d="M0 0 C-0.33 0.99 -0.66 1.98 -1 3 C-1.99 3.33 -2.98 3.66 -4 4 C-5.66710346 5.49985609 -5.66710346 5.49985609 -7 7 C-7.1875 4.625 -7.1875 4.625 -7 2 C-4 0 -4 0 0 0 Z " fill="#4B7D99" transform="translate(137,87)"/>
<path d="M0 0 C0.66 0 1.32 0 2 0 C3.4783226 2.95664519 3.06032783 5.74229737 3 9 C2.01 9 1.02 9 0 9 C0 6.03 0 3.06 0 0 Z " fill="#AFC184" transform="translate(68,87)"/>
<path d="M0 0 C0.33 0.66 0.66 1.32 1 2 C1.66 1.34 2.32 0.68 3 0 C3.33 1.32 3.66 2.64 4 4 C1.03 3.67 -1.94 3.34 -5 3 C-5 2.34 -5 1.68 -5 1 C-2 0 -2 0 0 0 Z " fill="#B6B7B7" transform="translate(106,117)"/>
<path d="M0 0 C2.97 0 5.94 0 9 0 C5.39338934 1.80330533 2.91606575 2.46599103 -1 3 C-0.67 2.01 -0.34 1.02 0 0 Z " fill="#EAFEFF" transform="translate(151,104)"/>
<path d="M0 0 C0.598125 0.639375 1.19625 1.27875 1.8125 1.9375 C3.90810337 4.20310389 3.90810337 4.20310389 7 5 C7 5.66 7 6.32 7 7 C4.03 6.505 4.03 6.505 1 6 C0.67 4.02 0.34 2.04 0 0 Z " fill="#407492" transform="translate(139,106)"/>
<path d="M0 0 C0.66 0.33 1.32 0.66 2 1 C2 3.31 2 5.62 2 8 C1.01 7.67 0.02 7.34 -1 7 C-1.04254356 5.00045254 -1.04080783 2.99958364 -1 1 C-0.67 0.67 -0.34 0.34 0 0 Z " fill="#C3F0E0" transform="translate(83,99)"/>
<path d="M0 0 C1.32 0.33 2.64 0.66 4 1 C2.6875 2.5 2.6875 2.5 1 4 C0.01 4 -0.98 4 -2 4 C-2.33 4.99 -2.66 5.98 -3 7 C-3.66 6.67 -4.32 6.34 -5 6 C-4.34 4.68 -3.68 3.36 -3 2 C-2.01 2 -1.02 2 0 2 C0 1.34 0 0.68 0 0 Z " fill="#C7EAF8" transform="translate(108,94)"/>
<path d="M0 0 C0.33 0 0.66 0 1 0 C1.28571429 7.42857143 1.28571429 7.42857143 -1 11 C-1.66 11 -2.32 11 -3 11 C-2.01 7.37 -1.02 3.74 0 0 Z " fill="#E5F4CC" transform="translate(43,101)"/>
<path d="M0 0 C1.32 0.33 2.64 0.66 4 1 C3.34 1 2.68 1 2 1 C2 2.32 2 3.64 2 5 C-0.64 5 -3.28 5 -6 5 C-6 4.67 -6 4.34 -6 4 C-4.02 3.34 -2.04 2.68 0 2 C0 1.34 0 0.68 0 0 Z " fill="#F0F9DF" transform="translate(58,105)"/>
<path d="M0 0 C2.475 0.495 2.475 0.495 5 1 C5 2.32 5 3.64 5 5 C3.35 4.67 1.7 4.34 0 4 C0 2.68 0 1.36 0 0 Z " fill="#FBF8F2" transform="translate(139,81)"/>
<path d="M0 0 C0.66 0 1.32 0 2 0 C2 0.99 2 1.98 2 3 C2.99 3 3.98 3 5 3 C4.67 3.66 4.34 4.32 4 5 C1.9375 5.625 1.9375 5.625 0 6 C-1.125 2.25 -1.125 2.25 0 0 Z " fill="#3F6676" transform="translate(97,107)"/>
</svg>
